M48
; DRILL file {KiCad 8.0.8} date 2025-01-31T08:37:11-0600
; FORMAT={-:-/ absolute / metric / decimal}
; #@! TF.CreationDate,2025-01-31T08:37:11-06:00
; #@! TF.GenerationSoftware,Kicad,Pcbnew,8.0.8
; #@! TF.FileFunction,Plated,1,4,PTH
FMAT,2
METRIC
; #@! TA.AperFunction,Plated,PTH,ViaDrill
T1C0.250
; #@! TA.AperFunction,Plated,PTH,ComponentDrill
T2C0.500
; #@! TA.AperFunction,Plated,PTH,ComponentDrill
T3C0.800
; #@! TA.AperFunction,Plated,PTH,ComponentDrill
T4C1.000
; #@! TA.AperFunction,Plated,PTH,ComponentDrill
T5C1.300
; #@! TA.AperFunction,Plated,PTH,ComponentDrill
T6C3.200
%
G90
G05
T1
X105.25Y-101.5
X106.927Y-114.949
X107.5Y-95.25
X108.827Y-114.937
X110.639Y-114.929
X111.002Y-113.179
X112.364Y-114.929
X113.575Y-102.9
X114.614Y-86.352
X115.089Y-98.414
X115.089Y-100.414
X115.952Y-109.369
X115.952Y-113.179
X116.7Y-102.9
X116.914Y-98.414
X116.914Y-100.414
X117.0Y-115.0
X118.25Y-110.75
X118.514Y-87.164
X118.514Y-90.974
X120.164Y-104.414
X121.914Y-104.414
X122.014Y-85.414
X123.452Y-112.929
X123.464Y-87.164
X123.739Y-85.414
X125.389Y-114.929
X125.614Y-87.702
X125.752Y-113.179
X126.5Y-98.5
X127.114Y-114.929
X130.702Y-109.369
X131.914Y-99.189
X131.914Y-100.914
X132.952Y-114.679
X133.964Y-98.529
X133.964Y-101.069
X134.439Y-102.664
X135.764Y-86.069
X137.889Y-91.174
X141.564Y-85.5
X141.977Y-113.184
X142.414Y-102.459
X142.839Y-87.364
X143.289Y-85.5
X143.914Y-114.934
X144.102Y-102.879
X144.277Y-113.184
X144.514Y-101.129
X144.964Y-87.769
X145.639Y-114.934
X145.827Y-102.879
X148.152Y-102.829
X148.314Y-78.314
X149.227Y-109.374
X149.227Y-113.184
X149.3Y-107.6
X149.464Y-97.319
X150.039Y-78.314
X150.2Y-105.1
X151.814Y-78.314
X152.75Y-108.75
X152.877Y-81.814
X152.964Y-80.314
X152.964Y-83.314
X153.1Y-98.075
X153.539Y-78.314
X155.027Y-97.729
X155.027Y-98.379
X155.077Y-113.029
X155.088Y-118.125
X155.088Y-119.95
X155.1Y-114.675
X155.1Y-116.5
X155.152Y-109.779
X155.152Y-110.779
X155.152Y-111.279
X155.314Y-81.814
X155.314Y-83.539
X155.4Y-107.6
X156.802Y-113.029
X157.2Y-118.237
X157.2Y-121.362
X157.475Y-94.35
X157.475Y-96.1
X157.827Y-107.529
X158.75Y-114.75
X159.2Y-94.35
X159.2Y-96.1
X159.252Y-97.729
X159.5Y-89.162
X159.552Y-107.529
X159.552Y-109.279
X159.552Y-109.779
X161.527Y-96.504
X161.527Y-100.404
X161.8Y-118.3
X162.25Y-89.162
X163.25Y-114.75
X163.425Y-94.914
X165.25Y-94.914
X166.25Y-89.25
X167.252Y-96.504
X167.252Y-100.404
X167.414Y-116.189
X167.414Y-117.914
X168.75Y-105.5
X169.137Y-119.6
X169.162Y-116.15
X169.162Y-118.05
X170.5Y-95.037
X170.5Y-96.762
X170.862Y-119.6
X171.064Y-88.639
X171.064Y-90.364
X171.438Y-117.1
X171.775Y-82.0
X172.3Y-95.05
X172.564Y-88.639
X172.564Y-90.364
X173.5Y-82.0
X174.0Y-122.75
X174.4Y-96.7
X174.564Y-88.464
X174.564Y-89.414
X174.839Y-100.414
X174.839Y-103.664
X176.564Y-100.414
X176.564Y-103.664
X177.264Y-88.464
X177.675Y-117.665
X177.675Y-119.165
X178.064Y-101.914
X178.064Y-102.414
X178.15Y-114.8
X178.15Y-116.07
X178.314Y-106.914
X178.314Y-108.639
X178.714Y-102.664
X179.314Y-88.502
X179.314Y-90.227
X179.4Y-117.665
X179.4Y-119.165
X179.5Y-109.7
X179.564Y-105.414
X180.2Y-109.7
X180.564Y-105.414
X180.75Y-114.0
X180.814Y-99.564
X181.064Y-105.414
X181.314Y-95.689
X181.314Y-97.414
X181.314Y-102.164
X181.314Y-106.939
X181.314Y-108.664
X181.564Y-98.914
X182.314Y-104.764
X182.314Y-109.25
X182.414Y-85.414
X182.75Y-110.0
X182.8Y-110.8
X182.814Y-104.764
X183.064Y-105.414
X183.1Y-112.26
X183.1Y-113.53
X183.314Y-99.564
X183.314Y-104.764
X183.5Y-110.0
X183.564Y-105.414
X183.6Y-110.8
X183.75Y-82.0
X183.914Y-100.164
X183.914Y-101.164
X184.064Y-105.414
X184.25Y-89.75
X184.25Y-110.0
X184.314Y-95.689
X184.314Y-97.414
X184.314Y-106.914
X184.314Y-108.639
X184.564Y-99.414
X184.564Y-102.414
X184.564Y-103.414
X185.164Y-85.414
X185.4Y-97.4
X185.4Y-98.1
X186.064Y-102.164
X186.089Y-99.164
X186.089Y-105.164
X186.5Y-82.0
X187.25Y-89.75
X187.789Y-102.164
X187.814Y-99.164
X187.814Y-105.164
X187.914Y-85.414
X187.914Y-108.664
X187.914Y-110.414
X190.0Y-99.75
X190.664Y-85.414
X191.845Y-99.375
X192.5Y-92.087
X195.655Y-104.625
X197.25Y-103.0
X197.25Y-104.725
X198.0Y-87.25
X198.75Y-103.0
X198.75Y-104.725
X201.25Y-108.75
T2
X102.5Y-112.7
X108.164Y-85.414
X119.564Y-98.439
X121.75Y-116.25
X133.414Y-79.664
X141.414Y-79.664
X151.4Y-107.9
X152.5Y-91.3
X155.2Y-87.5
X155.4Y-105.9
X163.3Y-105.2
X180.0Y-93.5
X193.8Y-110.1
X197.0Y-114.0
T3
X178.0Y-79.568
X178.0Y-82.068
T4
X99.0Y-89.21
X99.0Y-91.75
X99.0Y-98.92
X99.0Y-101.46
X99.0Y-104.0
X99.0Y-111.23
X99.0Y-113.77
X115.46Y-79.0
X118.0Y-79.0
X118.46Y-120.75
X121.0Y-120.75
X149.46Y-120.71
X152.0Y-120.71
X160.46Y-79.25
X160.46Y-120.7
X163.0Y-79.25
X163.0Y-120.7
X169.21Y-79.25
X171.75Y-79.25
X180.1Y-122.4
X182.64Y-122.4
X184.34Y-79.25
X185.18Y-122.4
X186.88Y-79.25
X187.72Y-122.4
X189.42Y-79.25
X190.26Y-122.4
X191.96Y-79.25
X192.8Y-114.035
X192.8Y-116.575
X192.8Y-122.4
X194.5Y-79.25
T5
X194.75Y-93.0
X201.25Y-93.0
T6
X98.914Y-78.914
X98.914Y-120.914
X200.914Y-78.914
X200.914Y-120.914
M30
