G04 #@! TF.GenerationSoftware,KiCad,Pcbnew,8.0.8*
G04 #@! TF.CreationDate,2025-01-31T08:36:52-06:00*
G04 #@! TF.ProjectId,delay_pedal,64656c61-795f-4706-9564-616c2e6b6963,rev?*
G04 #@! TF.SameCoordinates,Original*
G04 #@! TF.FileFunction,Soldermask,Top*
G04 #@! TF.FilePolarity,Negative*
%FSLAX46Y46*%
G04 Gerber Fmt 4.6, Leading zero omitted, Abs format (unit mm)*
G04 Created by KiCad (PCBNEW 8.0.8) date 2025-01-31 08:36:52*
%MOMM*%
%LPD*%
G01*
G04 APERTURE LIST*
G04 Aperture macros list*
%AMRoundRect*
0 Rectangle with rounded corners*
0 $1 Rounding radius*
0 $2 $3 $4 $5 $6 $7 $8 $9 X,Y pos of 4 corners*
0 Add a 4 corners polygon primitive as box body*
4,1,4,$2,$3,$4,$5,$6,$7,$8,$9,$2,$3,0*
0 Add four circle primitives for the rounded corners*
1,1,$1+$1,$2,$3*
1,1,$1+$1,$4,$5*
1,1,$1+$1,$6,$7*
1,1,$1+$1,$8,$9*
0 Add four rect primitives between the rounded corners*
20,1,$1+$1,$2,$3,$4,$5,0*
20,1,$1+$1,$4,$5,$6,$7,0*
20,1,$1+$1,$6,$7,$8,$9,0*
20,1,$1+$1,$8,$9,$2,$3,0*%
%AMFreePoly0*
4,1,9,5.362500,-0.866500,1.237500,-0.866500,1.237500,-0.450000,-1.237500,-0.450000,-1.237500,0.450000,1.237500,0.450000,1.237500,0.866500,5.362500,0.866500,5.362500,-0.866500,5.362500,-0.866500,$1*%
G04 Aperture macros list end*
%ADD10C,1.000000*%
%ADD11RoundRect,0.237500X-0.237500X0.250000X-0.237500X-0.250000X0.237500X-0.250000X0.237500X0.250000X0*%
%ADD12RoundRect,0.237500X-0.237500X0.300000X-0.237500X-0.300000X0.237500X-0.300000X0.237500X0.300000X0*%
%ADD13RoundRect,0.237500X0.300000X0.237500X-0.300000X0.237500X-0.300000X-0.237500X0.300000X-0.237500X0*%
%ADD14RoundRect,0.237500X0.237500X-0.300000X0.237500X0.300000X-0.237500X0.300000X-0.237500X-0.300000X0*%
%ADD15RoundRect,0.237500X0.237500X-0.250000X0.237500X0.250000X-0.237500X0.250000X-0.237500X-0.250000X0*%
%ADD16C,6.000000*%
%ADD17RoundRect,0.237500X-0.250000X-0.237500X0.250000X-0.237500X0.250000X0.237500X-0.250000X0.237500X0*%
%ADD18RoundRect,0.237500X-0.237500X0.287500X-0.237500X-0.287500X0.237500X-0.287500X0.237500X0.287500X0*%
%ADD19R,1.700000X1.700000*%
%ADD20O,1.700000X1.700000*%
%ADD21RoundRect,0.150000X-0.825000X-0.150000X0.825000X-0.150000X0.825000X0.150000X-0.825000X0.150000X0*%
%ADD22RoundRect,0.125000X-0.687500X-0.125000X0.687500X-0.125000X0.687500X0.125000X-0.687500X0.125000X0*%
%ADD23RoundRect,0.237500X-0.287500X-0.237500X0.287500X-0.237500X0.287500X0.237500X-0.287500X0.237500X0*%
%ADD24RoundRect,0.237500X0.250000X0.237500X-0.250000X0.237500X-0.250000X-0.237500X0.250000X-0.237500X0*%
%ADD25RoundRect,0.237500X-0.300000X-0.237500X0.300000X-0.237500X0.300000X0.237500X-0.300000X0.237500X0*%
%ADD26RoundRect,0.237500X0.237500X-0.287500X0.237500X0.287500X-0.237500X0.287500X-0.237500X-0.287500X0*%
%ADD27R,2.250000X2.250000*%
%ADD28C,2.250000*%
%ADD29R,2.300000X0.900000*%
%ADD30FreePoly0,180.000000*%
%ADD31RoundRect,0.075000X-0.650000X-0.075000X0.650000X-0.075000X0.650000X0.075000X-0.650000X0.075000X0*%
%ADD32RoundRect,0.150000X0.825000X0.150000X-0.825000X0.150000X-0.825000X-0.150000X0.825000X-0.150000X0*%
%ADD33R,1.560000X0.650000*%
%ADD34RoundRect,0.250000X0.412500X0.650000X-0.412500X0.650000X-0.412500X-0.650000X0.412500X-0.650000X0*%
%ADD35RoundRect,0.102000X-2.200000X-2.200000X2.200000X-2.200000X2.200000X2.200000X-2.200000X2.200000X0*%
%ADD36RoundRect,0.102000X-0.200000X-0.110000X0.200000X-0.110000X0.200000X0.110000X-0.200000X0.110000X0*%
%ADD37RoundRect,0.102000X-0.110000X-0.200000X0.110000X-0.200000X0.110000X0.200000X-0.110000X0.200000X0*%
%ADD38RoundRect,0.250000X0.250000X0.250000X-0.250000X0.250000X-0.250000X-0.250000X0.250000X-0.250000X0*%
%ADD39R,1.600000X1.600000*%
%ADD40C,1.600000*%
%ADD41RoundRect,0.250000X-0.650000X0.412500X-0.650000X-0.412500X0.650000X-0.412500X0.650000X0.412500X0*%
%ADD42RoundRect,0.250000X-0.412500X-0.650000X0.412500X-0.650000X0.412500X0.650000X-0.412500X0.650000X0*%
%ADD43RoundRect,0.150000X0.150000X-0.675000X0.150000X0.675000X-0.150000X0.675000X-0.150000X-0.675000X0*%
%ADD44RoundRect,0.150000X-0.512500X-0.150000X0.512500X-0.150000X0.512500X0.150000X-0.512500X0.150000X0*%
%ADD45RoundRect,0.100000X0.637500X0.100000X-0.637500X0.100000X-0.637500X-0.100000X0.637500X-0.100000X0*%
%ADD46RoundRect,0.250000X0.650000X-0.412500X0.650000X0.412500X-0.650000X0.412500X-0.650000X-0.412500X0*%
%ADD47R,1.300000X1.100000*%
G04 APERTURE END LIST*
D10*
X119564214Y-98439214D03*
D11*
X155087500Y-118125000D03*
X155087500Y-119950000D03*
D12*
X170500000Y-95037500D03*
X170500000Y-96762500D03*
D13*
X112364214Y-114929214D03*
X110639214Y-114929214D03*
D14*
X135764214Y-87794214D03*
X135764214Y-86069214D03*
D15*
X120201714Y-112929214D03*
X120201714Y-111104214D03*
D16*
X98914214Y-78914214D03*
D17*
X136575000Y-106700000D03*
X138400000Y-106700000D03*
D10*
X155200000Y-87500000D03*
X155400000Y-105900000D03*
D12*
X171064214Y-88639214D03*
X171064214Y-90364214D03*
D18*
X120164214Y-104414214D03*
X120164214Y-106164214D03*
D12*
X167414214Y-116189214D03*
X167414214Y-117914214D03*
D19*
X99000000Y-89210000D03*
D20*
X99000000Y-91750000D03*
D10*
X197000000Y-114000000D03*
D21*
X144514214Y-97319214D03*
X144514214Y-98589214D03*
X144514214Y-99859214D03*
X144514214Y-101129214D03*
X149464214Y-101129214D03*
X149464214Y-99859214D03*
X149464214Y-98589214D03*
X149464214Y-97319214D03*
D11*
X171250000Y-103587500D03*
X171250000Y-105412500D03*
D22*
X155026714Y-97729214D03*
X155026714Y-98379214D03*
X155026714Y-99029214D03*
X155026714Y-99679214D03*
X159251714Y-99679214D03*
X159251714Y-99029214D03*
X159251714Y-98379214D03*
X159251714Y-97729214D03*
D23*
X171250000Y-102000000D03*
X173000000Y-102000000D03*
D15*
X142414214Y-99071714D03*
X142414214Y-97246714D03*
D17*
X145976714Y-107629214D03*
X147801714Y-107629214D03*
D19*
X171750000Y-79250000D03*
D20*
X169210000Y-79250000D03*
D24*
X120201714Y-109429214D03*
X118376714Y-109429214D03*
D25*
X140251714Y-109684214D03*
X141976714Y-109684214D03*
D26*
X159500000Y-89162500D03*
X159500000Y-87412500D03*
D14*
X135764214Y-91194214D03*
X135764214Y-89469214D03*
D11*
X192500000Y-92087500D03*
X192500000Y-93912500D03*
D19*
X192800000Y-122400000D03*
D20*
X190260000Y-122400000D03*
X187720000Y-122400000D03*
X185180000Y-122400000D03*
X182640000Y-122400000D03*
X180100000Y-122400000D03*
D11*
X155100000Y-114675000D03*
X155100000Y-116500000D03*
D17*
X148464214Y-91269214D03*
X150289214Y-91269214D03*
D27*
X194750000Y-93000000D03*
D28*
X201250000Y-93000000D03*
D13*
X145826714Y-102879214D03*
X144101714Y-102879214D03*
D15*
X187914214Y-85414214D03*
X187914214Y-83589214D03*
D12*
X178314214Y-106914214D03*
X178314214Y-108639214D03*
X131914214Y-99189214D03*
X131914214Y-100914214D03*
D13*
X149876714Y-102829214D03*
X148151714Y-102829214D03*
D21*
X178150000Y-112260000D03*
X178150000Y-113530000D03*
X178150000Y-114800000D03*
X178150000Y-116070000D03*
X183100000Y-116070000D03*
X183100000Y-114800000D03*
X183100000Y-113530000D03*
X183100000Y-112260000D03*
D17*
X163425000Y-94914214D03*
X165250000Y-94914214D03*
D11*
X107014214Y-113124214D03*
X107014214Y-114949214D03*
D15*
X114614214Y-88176714D03*
X114614214Y-86351714D03*
D24*
X116914214Y-100414214D03*
X115089214Y-100414214D03*
D25*
X155076714Y-113029214D03*
X156801714Y-113029214D03*
X169137500Y-119600000D03*
X170862500Y-119600000D03*
D10*
X108164214Y-85414214D03*
D12*
X184314214Y-106914214D03*
X184314214Y-108639214D03*
X123451714Y-111204214D03*
X123451714Y-112929214D03*
D29*
X152964214Y-83314214D03*
D30*
X152876714Y-81814214D03*
D29*
X152964214Y-80314214D03*
D24*
X157012500Y-101300000D03*
X155187500Y-101300000D03*
D31*
X155151714Y-109279214D03*
X155151714Y-109779214D03*
X155151714Y-110279214D03*
X155151714Y-110779214D03*
X155151714Y-111279214D03*
X159551714Y-111279214D03*
X159551714Y-110779214D03*
X159551714Y-110279214D03*
X159551714Y-109779214D03*
X159551714Y-109279214D03*
D26*
X121914214Y-106164214D03*
X121914214Y-104414214D03*
D11*
X153100000Y-98075000D03*
X153100000Y-99900000D03*
D13*
X150039214Y-78314214D03*
X148314214Y-78314214D03*
D12*
X198750000Y-103000000D03*
X198750000Y-104725000D03*
D25*
X157475000Y-94350000D03*
X159200000Y-94350000D03*
D32*
X142839214Y-91174214D03*
X142839214Y-89904214D03*
X142839214Y-88634214D03*
X142839214Y-87364214D03*
X137889214Y-87364214D03*
X137889214Y-88634214D03*
X137889214Y-89904214D03*
X137889214Y-91174214D03*
D17*
X119114214Y-92664214D03*
X120939214Y-92664214D03*
D13*
X146789214Y-91269214D03*
X145064214Y-91269214D03*
D10*
X133414214Y-79664214D03*
D33*
X174564214Y-88464214D03*
X174564214Y-89414214D03*
X174564214Y-90364214D03*
X177264214Y-90364214D03*
X177264214Y-88464214D03*
D19*
X99000000Y-111230000D03*
D20*
X99000000Y-113770000D03*
D34*
X116200000Y-90200000D03*
X113075000Y-90200000D03*
D12*
X181314214Y-106939214D03*
X181314214Y-108664214D03*
D14*
X125614214Y-89426714D03*
X125614214Y-87701714D03*
D32*
X123464214Y-90974214D03*
X123464214Y-89704214D03*
X123464214Y-88434214D03*
X123464214Y-87164214D03*
X118514214Y-87164214D03*
X118514214Y-88434214D03*
X118514214Y-89704214D03*
X118514214Y-90974214D03*
D10*
X141414214Y-79664214D03*
D19*
X118000000Y-79000000D03*
D20*
X115460000Y-79000000D03*
D17*
X115089214Y-98414214D03*
X116914214Y-98414214D03*
D35*
X181314214Y-102164214D03*
D36*
X178064214Y-99414214D03*
X178064214Y-99914214D03*
X178064214Y-100414214D03*
X178064214Y-100914214D03*
X178064214Y-101414214D03*
X178064214Y-101914214D03*
X178064214Y-102414214D03*
X178064214Y-102914214D03*
X178064214Y-103414214D03*
X178064214Y-103914214D03*
X178064214Y-104414214D03*
X178064214Y-104914214D03*
D37*
X178564214Y-105414214D03*
X179064214Y-105414214D03*
X179564214Y-105414214D03*
X180064214Y-105414214D03*
X180564214Y-105414214D03*
X181064214Y-105414214D03*
X181564214Y-105414214D03*
X182064214Y-105414214D03*
X182564214Y-105414214D03*
X183064214Y-105414214D03*
X183564214Y-105414214D03*
X184064214Y-105414214D03*
D36*
X184564214Y-104914214D03*
X184564214Y-104414214D03*
X184564214Y-103914214D03*
X184564214Y-103414214D03*
X184564214Y-102914214D03*
X184564214Y-102414214D03*
X184564214Y-101914214D03*
X184564214Y-101414214D03*
X184564214Y-100914214D03*
X184564214Y-100414214D03*
X184564214Y-99914214D03*
X184564214Y-99414214D03*
D37*
X184064214Y-98914214D03*
X183564214Y-98914214D03*
X183064214Y-98914214D03*
X182564214Y-98914214D03*
X182064214Y-98914214D03*
X181564214Y-98914214D03*
X181064214Y-98914214D03*
X180564214Y-98914214D03*
X180064214Y-98914214D03*
X179564214Y-98914214D03*
X179064214Y-98914214D03*
X178564214Y-98914214D03*
D36*
X178714214Y-100164214D03*
X178714214Y-100664214D03*
X178714214Y-101164214D03*
X178714214Y-101664214D03*
X178714214Y-102164214D03*
X178714214Y-102664214D03*
X178714214Y-103164214D03*
X178714214Y-103664214D03*
X178714214Y-104164214D03*
D37*
X179314214Y-104764214D03*
X179814214Y-104764214D03*
X180314214Y-104764214D03*
X180814214Y-104764214D03*
X181314214Y-104764214D03*
X181814214Y-104764214D03*
X182314214Y-104764214D03*
X182814214Y-104764214D03*
X183314214Y-104764214D03*
D36*
X183914214Y-104164214D03*
X183914214Y-103664214D03*
X183914214Y-103164214D03*
X183914214Y-102664214D03*
X183914214Y-102164214D03*
X183914214Y-101664214D03*
X183914214Y-101164214D03*
X183914214Y-100664214D03*
X183914214Y-100164214D03*
D37*
X183314214Y-99564214D03*
X182814214Y-99564214D03*
X182314214Y-99564214D03*
X181814214Y-99564214D03*
X181314214Y-99564214D03*
X180814214Y-99564214D03*
X180314214Y-99564214D03*
X179814214Y-99564214D03*
X179314214Y-99564214D03*
D16*
X200914214Y-120914214D03*
D21*
X133964214Y-97259214D03*
X133964214Y-98529214D03*
X133964214Y-99799214D03*
X133964214Y-101069214D03*
X138914214Y-101069214D03*
X138914214Y-99799214D03*
X138914214Y-98529214D03*
X138914214Y-97259214D03*
D12*
X141976714Y-111459214D03*
X141976714Y-113184214D03*
D19*
X99000000Y-98920000D03*
D20*
X99000000Y-101460000D03*
X99000000Y-104000000D03*
D19*
X192800000Y-116575000D03*
D20*
X192800000Y-114035000D03*
D38*
X167500000Y-84000000D03*
X165000000Y-84000000D03*
D12*
X132951714Y-112954214D03*
X132951714Y-114679214D03*
D15*
X162250000Y-89162500D03*
X162250000Y-87337500D03*
D24*
X138476714Y-109684214D03*
X136651714Y-109684214D03*
D12*
X172564214Y-88639214D03*
X172564214Y-90364214D03*
D25*
X157475000Y-96100000D03*
X159200000Y-96100000D03*
D15*
X182414214Y-85414214D03*
X182414214Y-83589214D03*
D14*
X144964214Y-89494214D03*
X144964214Y-87769214D03*
D39*
X178000000Y-79567621D03*
D40*
X178000000Y-82067621D03*
D15*
X108826714Y-114936714D03*
X108826714Y-113111714D03*
D13*
X127114214Y-114929214D03*
X125389214Y-114929214D03*
D25*
X186189214Y-108664214D03*
X187914214Y-108664214D03*
X141564214Y-85500000D03*
X143289214Y-85500000D03*
X186089214Y-105164214D03*
X187814214Y-105164214D03*
D21*
X144276714Y-109374214D03*
X144276714Y-110644214D03*
X144276714Y-111914214D03*
X144276714Y-113184214D03*
X149226714Y-113184214D03*
X149226714Y-111914214D03*
X149226714Y-110644214D03*
X149226714Y-109374214D03*
D25*
X121726714Y-109429214D03*
X123451714Y-109429214D03*
D14*
X155314214Y-83539214D03*
X155314214Y-81814214D03*
D12*
X142414214Y-100734214D03*
X142414214Y-102459214D03*
D41*
X157200000Y-118237500D03*
X157200000Y-121362500D03*
D10*
X152500000Y-91300000D03*
D11*
X129014214Y-87651714D03*
X129014214Y-89476714D03*
D17*
X129014214Y-91064214D03*
X130839214Y-91064214D03*
D15*
X185164214Y-85414214D03*
X185164214Y-83589214D03*
D17*
X138764214Y-92869214D03*
X140589214Y-92869214D03*
D24*
X114476714Y-107724214D03*
X112651714Y-107724214D03*
D25*
X122014214Y-85414214D03*
X123739214Y-85414214D03*
D42*
X146175000Y-95200000D03*
X149300000Y-95200000D03*
D34*
X143400000Y-106300000D03*
X140275000Y-106300000D03*
D17*
X186089214Y-110414214D03*
X187914214Y-110414214D03*
D11*
X134164214Y-89169214D03*
X134164214Y-90994214D03*
D43*
X191845000Y-104625000D03*
X193115000Y-104625000D03*
X194385000Y-104625000D03*
X195655000Y-104625000D03*
X195655000Y-99375000D03*
X194385000Y-99375000D03*
X193115000Y-99375000D03*
X191845000Y-99375000D03*
D16*
X98914214Y-120914214D03*
D34*
X116700000Y-102900000D03*
X113575000Y-102900000D03*
D13*
X179400000Y-119165000D03*
X177675000Y-119165000D03*
D19*
X194500000Y-79250000D03*
D20*
X191960000Y-79250000D03*
X189420000Y-79250000D03*
X186880000Y-79250000D03*
X184340000Y-79250000D03*
D44*
X169162500Y-116150000D03*
X169162500Y-118050000D03*
X171437500Y-117100000D03*
D19*
X118460000Y-120750000D03*
D20*
X121000000Y-120750000D03*
D21*
X125751714Y-109369214D03*
X125751714Y-110639214D03*
X125751714Y-111909214D03*
X125751714Y-113179214D03*
X130701714Y-113179214D03*
X130701714Y-111909214D03*
X130701714Y-110639214D03*
X130701714Y-109369214D03*
D10*
X180000000Y-93500000D03*
D15*
X190664214Y-85414214D03*
X190664214Y-83589214D03*
D13*
X136164214Y-102664214D03*
X134439214Y-102664214D03*
D25*
X186064214Y-102164214D03*
X187789214Y-102164214D03*
D13*
X176564214Y-100414214D03*
X174839214Y-100414214D03*
D12*
X132951714Y-109454214D03*
X132951714Y-111179214D03*
D10*
X193800000Y-110100000D03*
D15*
X138476714Y-113184214D03*
X138476714Y-111359214D03*
D12*
X197250000Y-103000000D03*
X197250000Y-104725000D03*
D10*
X151400000Y-107900000D03*
D13*
X159551714Y-107529214D03*
X157826714Y-107529214D03*
X153539214Y-78314214D03*
X151814214Y-78314214D03*
D19*
X160460000Y-120700000D03*
D20*
X163000000Y-120700000D03*
D13*
X127339214Y-91064214D03*
X125614214Y-91064214D03*
D12*
X179314214Y-88501714D03*
X179314214Y-90226714D03*
D10*
X163300000Y-105200000D03*
D16*
X200914214Y-78914214D03*
D10*
X121750000Y-116250000D03*
D13*
X179400000Y-117665000D03*
X177675000Y-117665000D03*
D21*
X111001714Y-109369214D03*
X111001714Y-110639214D03*
X111001714Y-111909214D03*
X111001714Y-113179214D03*
X115951714Y-113179214D03*
X115951714Y-111909214D03*
X115951714Y-110639214D03*
X115951714Y-109369214D03*
D13*
X176564214Y-103664214D03*
X174839214Y-103664214D03*
X145639214Y-114934214D03*
X143914214Y-114934214D03*
D42*
X105537500Y-109800000D03*
X108662500Y-109800000D03*
D24*
X129251714Y-107679214D03*
X127426714Y-107679214D03*
D25*
X186089214Y-99164214D03*
X187814214Y-99164214D03*
X171775000Y-82000000D03*
X173500000Y-82000000D03*
D14*
X184314214Y-97414214D03*
X184314214Y-95689214D03*
D11*
X148464214Y-87769214D03*
X148464214Y-89594214D03*
X151301714Y-109804214D03*
X151301714Y-111629214D03*
D19*
X149460000Y-120710000D03*
D20*
X152000000Y-120710000D03*
D45*
X167251714Y-100404214D03*
X167251714Y-99754214D03*
X167251714Y-99104214D03*
X167251714Y-98454214D03*
X167251714Y-97804214D03*
X167251714Y-97154214D03*
X167251714Y-96504214D03*
X161526714Y-96504214D03*
X161526714Y-97154214D03*
X161526714Y-97804214D03*
X161526714Y-98454214D03*
X161526714Y-99104214D03*
X161526714Y-99754214D03*
X161526714Y-100404214D03*
D19*
X163000000Y-79250000D03*
D20*
X160460000Y-79250000D03*
D15*
X134701714Y-111929214D03*
X134701714Y-110104214D03*
D14*
X181314214Y-97414214D03*
X181314214Y-95689214D03*
D46*
X151900000Y-104762500D03*
X151900000Y-101637500D03*
D10*
X102500000Y-112700000D03*
D11*
X151300000Y-113275000D03*
X151300000Y-115100000D03*
D47*
X172300000Y-96700000D03*
X174400000Y-96700000D03*
X174400000Y-95050000D03*
X172300000Y-95050000D03*
M02*
