G04 #@! TF.GenerationSoftware,KiCad,Pcbnew,8.0.8*
G04 #@! TF.CreationDate,2025-01-24T13:19:23-06:00*
G04 #@! TF.ProjectId,delay_pedal,64656c61-795f-4706-9564-616c2e6b6963,rev?*
G04 #@! TF.SameCoordinates,Original*
G04 #@! TF.FileFunction,Paste,Top*
G04 #@! TF.FilePolarity,Positive*
%FSLAX46Y46*%
G04 Gerber Fmt 4.6, Leading zero omitted, Abs format (unit mm)*
G04 Created by KiCad (PCBNEW 8.0.8) date 2025-01-24 13:19:23*
%MOMM*%
%LPD*%
G01*
G04 APERTURE LIST*
G04 Aperture macros list*
%AMRoundRect*
0 Rectangle with rounded corners*
0 $1 Rounding radius*
0 $2 $3 $4 $5 $6 $7 $8 $9 X,Y pos of 4 corners*
0 Add a 4 corners polygon primitive as box body*
4,1,4,$2,$3,$4,$5,$6,$7,$8,$9,$2,$3,0*
0 Add four circle primitives for the rounded corners*
1,1,$1+$1,$2,$3*
1,1,$1+$1,$4,$5*
1,1,$1+$1,$6,$7*
1,1,$1+$1,$8,$9*
0 Add four rect primitives between the rounded corners*
20,1,$1+$1,$2,$3,$4,$5,0*
20,1,$1+$1,$4,$5,$6,$7,0*
20,1,$1+$1,$6,$7,$8,$9,0*
20,1,$1+$1,$8,$9,$2,$3,0*%
%AMFreePoly0*
4,1,9,5.362500,-0.866500,1.237500,-0.866500,1.237500,-0.450000,-1.237500,-0.450000,-1.237500,0.450000,1.237500,0.450000,1.237500,0.866500,5.362500,0.866500,5.362500,-0.866500,5.362500,-0.866500,$1*%
G04 Aperture macros list end*
%ADD10C,0.010000*%
%ADD11RoundRect,0.250000X0.650000X-0.412500X0.650000X0.412500X-0.650000X0.412500X-0.650000X-0.412500X0*%
%ADD12RoundRect,0.250000X0.412500X0.650000X-0.412500X0.650000X-0.412500X-0.650000X0.412500X-0.650000X0*%
%ADD13RoundRect,0.250000X-0.412500X-0.650000X0.412500X-0.650000X0.412500X0.650000X-0.412500X0.650000X0*%
%ADD14RoundRect,0.237500X-0.237500X0.250000X-0.237500X-0.250000X0.237500X-0.250000X0.237500X0.250000X0*%
%ADD15RoundRect,0.237500X-0.237500X0.300000X-0.237500X-0.300000X0.237500X-0.300000X0.237500X0.300000X0*%
%ADD16RoundRect,0.237500X0.300000X0.237500X-0.300000X0.237500X-0.300000X-0.237500X0.300000X-0.237500X0*%
%ADD17RoundRect,0.237500X0.237500X-0.300000X0.237500X0.300000X-0.237500X0.300000X-0.237500X-0.300000X0*%
%ADD18RoundRect,0.237500X0.237500X-0.250000X0.237500X0.250000X-0.237500X0.250000X-0.237500X-0.250000X0*%
%ADD19RoundRect,0.237500X-0.250000X-0.237500X0.250000X-0.237500X0.250000X0.237500X-0.250000X0.237500X0*%
%ADD20RoundRect,0.237500X-0.237500X0.287500X-0.237500X-0.287500X0.237500X-0.287500X0.237500X0.287500X0*%
%ADD21RoundRect,0.150000X-0.825000X-0.150000X0.825000X-0.150000X0.825000X0.150000X-0.825000X0.150000X0*%
%ADD22RoundRect,0.125000X-0.687500X-0.125000X0.687500X-0.125000X0.687500X0.125000X-0.687500X0.125000X0*%
%ADD23RoundRect,0.237500X-0.287500X-0.237500X0.287500X-0.237500X0.287500X0.237500X-0.287500X0.237500X0*%
%ADD24RoundRect,0.237500X0.250000X0.237500X-0.250000X0.237500X-0.250000X-0.237500X0.250000X-0.237500X0*%
%ADD25RoundRect,0.237500X-0.300000X-0.237500X0.300000X-0.237500X0.300000X0.237500X-0.300000X0.237500X0*%
%ADD26RoundRect,0.237500X0.237500X-0.287500X0.237500X0.287500X-0.237500X0.287500X-0.237500X-0.287500X0*%
%ADD27R,2.300000X0.900000*%
%ADD28FreePoly0,180.000000*%
%ADD29RoundRect,0.075000X-0.650000X-0.075000X0.650000X-0.075000X0.650000X0.075000X-0.650000X0.075000X0*%
%ADD30RoundRect,0.150000X0.825000X0.150000X-0.825000X0.150000X-0.825000X-0.150000X0.825000X-0.150000X0*%
%ADD31R,1.560000X0.650000*%
%ADD32R,0.400000X0.220000*%
%ADD33R,0.220000X0.400000*%
%ADD34RoundRect,0.250000X0.250000X0.250000X-0.250000X0.250000X-0.250000X-0.250000X0.250000X-0.250000X0*%
%ADD35RoundRect,0.150000X0.150000X-0.675000X0.150000X0.675000X-0.150000X0.675000X-0.150000X-0.675000X0*%
%ADD36FreePoly0,0.000000*%
%ADD37RoundRect,0.100000X0.637500X0.100000X-0.637500X0.100000X-0.637500X-0.100000X0.637500X-0.100000X0*%
%ADD38R,1.300000X1.100000*%
G04 APERTURE END LIST*
D10*
X182705614Y-103556414D02*
X179922014Y-103556414D01*
X179922014Y-100772814D01*
X182705614Y-100772814D01*
X182705614Y-103556414D01*
G36*
X182705614Y-103556414D02*
G01*
X179922014Y-103556414D01*
X179922014Y-100772814D01*
X182705614Y-100772814D01*
X182705614Y-103556414D01*
G37*
D11*
X151900000Y-104762500D03*
X151900000Y-101637500D03*
D12*
X116200000Y-90200000D03*
X113075000Y-90200000D03*
D13*
X105537500Y-109800000D03*
X108662500Y-109800000D03*
D14*
X155087500Y-118125000D03*
X155087500Y-119950000D03*
D15*
X170500000Y-95037500D03*
X170500000Y-96762500D03*
D16*
X112364214Y-114929214D03*
X110639214Y-114929214D03*
D17*
X135764214Y-87794214D03*
X135764214Y-86069214D03*
D18*
X120201714Y-112929214D03*
X120201714Y-111104214D03*
D19*
X136575000Y-106700000D03*
X138400000Y-106700000D03*
D15*
X171064214Y-88639214D03*
X171064214Y-90364214D03*
D20*
X120164214Y-104414214D03*
X120164214Y-106164214D03*
D15*
X167414214Y-116189214D03*
X167414214Y-117914214D03*
D21*
X149464214Y-97319214D03*
X149464214Y-98589214D03*
X149464214Y-99859214D03*
X149464214Y-101129214D03*
X144514214Y-101129214D03*
X144514214Y-99859214D03*
X144514214Y-98589214D03*
X144514214Y-97319214D03*
D14*
X171250000Y-103587500D03*
X171250000Y-105412500D03*
D22*
X155026714Y-97729214D03*
X155026714Y-98379214D03*
X155026714Y-99029214D03*
X155026714Y-99679214D03*
X159251714Y-99679214D03*
X159251714Y-99029214D03*
X159251714Y-98379214D03*
X159251714Y-97729214D03*
D23*
X171250000Y-102000000D03*
X173000000Y-102000000D03*
D18*
X142414214Y-99071714D03*
X142414214Y-97246714D03*
D19*
X145976714Y-107629214D03*
X147801714Y-107629214D03*
D24*
X120201714Y-109429214D03*
X118376714Y-109429214D03*
D25*
X140251714Y-109684214D03*
X141976714Y-109684214D03*
D26*
X133664214Y-121414214D03*
X133664214Y-119664214D03*
D17*
X135764214Y-91194214D03*
X135764214Y-89469214D03*
D14*
X192500000Y-92087500D03*
X192500000Y-93912500D03*
X155100000Y-114675000D03*
X155100000Y-116500000D03*
D19*
X148464214Y-91269214D03*
X150289214Y-91269214D03*
D16*
X145826714Y-102879214D03*
X144101714Y-102879214D03*
D18*
X187914214Y-85414214D03*
X187914214Y-83589214D03*
D15*
X178314214Y-106914214D03*
X178314214Y-108639214D03*
X131914214Y-99189214D03*
X131914214Y-100914214D03*
D16*
X148151714Y-102829214D03*
X149876714Y-102829214D03*
D21*
X178150000Y-112260000D03*
X178150000Y-113530000D03*
X178150000Y-114800000D03*
X178150000Y-116070000D03*
X183100000Y-116070000D03*
X183100000Y-114800000D03*
X183100000Y-113530000D03*
X183100000Y-112260000D03*
D19*
X163425000Y-94914214D03*
X165250000Y-94914214D03*
D14*
X107014214Y-113124214D03*
X107014214Y-114949214D03*
D18*
X114614214Y-88176714D03*
X114614214Y-86351714D03*
D24*
X116914214Y-100414214D03*
X115089214Y-100414214D03*
D25*
X155076714Y-113029214D03*
X156801714Y-113029214D03*
D16*
X170914214Y-121414214D03*
X169189214Y-121414214D03*
D15*
X184314214Y-106914214D03*
X184314214Y-108639214D03*
X123451714Y-111204214D03*
X123451714Y-112929214D03*
D27*
X152964214Y-83314214D03*
D28*
X152876714Y-81814214D03*
D27*
X152964214Y-80314214D03*
D24*
X157012500Y-101300000D03*
X155187500Y-101300000D03*
D29*
X155151714Y-109279214D03*
X155151714Y-109779214D03*
X155151714Y-110279214D03*
X155151714Y-110779214D03*
X155151714Y-111279214D03*
X159551714Y-111279214D03*
X159551714Y-110779214D03*
X159551714Y-110279214D03*
X159551714Y-109779214D03*
X159551714Y-109279214D03*
D26*
X121914214Y-106164214D03*
X121914214Y-104414214D03*
D14*
X153100000Y-98075000D03*
X153100000Y-99900000D03*
D16*
X150039214Y-78314214D03*
X148314214Y-78314214D03*
D15*
X198750000Y-103000000D03*
X198750000Y-104725000D03*
D25*
X157475000Y-94350000D03*
X159200000Y-94350000D03*
D30*
X142839214Y-91174214D03*
X142839214Y-89904214D03*
X142839214Y-88634214D03*
X142839214Y-87364214D03*
X137889214Y-87364214D03*
X137889214Y-88634214D03*
X137889214Y-89904214D03*
X137889214Y-91174214D03*
D19*
X119114214Y-92664214D03*
X120939214Y-92664214D03*
D16*
X146789214Y-91269214D03*
X145064214Y-91269214D03*
D31*
X174564214Y-88464214D03*
X174564214Y-89414214D03*
X174564214Y-90364214D03*
X177264214Y-90364214D03*
X177264214Y-88464214D03*
D15*
X181314214Y-106939214D03*
X181314214Y-108664214D03*
D17*
X125614214Y-89426714D03*
X125614214Y-87701714D03*
D30*
X123464214Y-90974214D03*
X123464214Y-89704214D03*
X123464214Y-88434214D03*
X123464214Y-87164214D03*
X118514214Y-87164214D03*
X118514214Y-88434214D03*
X118514214Y-89704214D03*
X118514214Y-90974214D03*
D19*
X115089214Y-98414214D03*
X116914214Y-98414214D03*
D32*
X178064214Y-99414214D03*
X178064214Y-99914214D03*
X178064214Y-100414214D03*
X178064214Y-100914214D03*
X178064214Y-101414214D03*
X178064214Y-101914214D03*
X178064214Y-102414214D03*
X178064214Y-102914214D03*
X178064214Y-103414214D03*
X178064214Y-103914214D03*
X178064214Y-104414214D03*
X178064214Y-104914214D03*
D33*
X178564214Y-105414214D03*
X179064214Y-105414214D03*
X179564214Y-105414214D03*
X180064214Y-105414214D03*
X180564214Y-105414214D03*
X181064214Y-105414214D03*
X181564214Y-105414214D03*
X182064214Y-105414214D03*
X182564214Y-105414214D03*
X183064214Y-105414214D03*
X183564214Y-105414214D03*
X184064214Y-105414214D03*
D32*
X184564214Y-104914214D03*
X184564214Y-104414214D03*
X184564214Y-103914214D03*
X184564214Y-103414214D03*
X184564214Y-102914214D03*
X184564214Y-102414214D03*
X184564214Y-101914214D03*
X184564214Y-101414214D03*
X184564214Y-100914214D03*
X184564214Y-100414214D03*
X184564214Y-99914214D03*
X184564214Y-99414214D03*
D33*
X184064214Y-98914214D03*
X183564214Y-98914214D03*
X183064214Y-98914214D03*
X182564214Y-98914214D03*
X182064214Y-98914214D03*
X181564214Y-98914214D03*
X181064214Y-98914214D03*
X180564214Y-98914214D03*
X180064214Y-98914214D03*
X179564214Y-98914214D03*
X179064214Y-98914214D03*
X178564214Y-98914214D03*
D32*
X178714214Y-100164214D03*
X178714214Y-100664214D03*
X178714214Y-101164214D03*
X178714214Y-101664214D03*
X178714214Y-102164214D03*
X178714214Y-102664214D03*
X178714214Y-103164214D03*
X178714214Y-103664214D03*
X178714214Y-104164214D03*
D33*
X179314214Y-104764214D03*
X179814214Y-104764214D03*
X180314214Y-104764214D03*
X180814214Y-104764214D03*
X181314214Y-104764214D03*
X181814214Y-104764214D03*
X182314214Y-104764214D03*
X182814214Y-104764214D03*
X183314214Y-104764214D03*
D32*
X183914214Y-104164214D03*
X183914214Y-103664214D03*
X183914214Y-103164214D03*
X183914214Y-102664214D03*
X183914214Y-102164214D03*
X183914214Y-101664214D03*
X183914214Y-101164214D03*
X183914214Y-100664214D03*
X183914214Y-100164214D03*
D33*
X183314214Y-99564214D03*
X182814214Y-99564214D03*
X182314214Y-99564214D03*
X181814214Y-99564214D03*
X181314214Y-99564214D03*
X180814214Y-99564214D03*
X180314214Y-99564214D03*
X179814214Y-99564214D03*
X179314214Y-99564214D03*
D21*
X133964214Y-97259214D03*
X133964214Y-98529214D03*
X133964214Y-99799214D03*
X133964214Y-101069214D03*
X138914214Y-101069214D03*
X138914214Y-99799214D03*
X138914214Y-98529214D03*
X138914214Y-97259214D03*
D15*
X141976714Y-111459214D03*
X141976714Y-113184214D03*
D34*
X167500000Y-84000000D03*
X165000000Y-84000000D03*
D15*
X132951714Y-112954214D03*
X132951714Y-114679214D03*
D18*
X136414214Y-121414214D03*
X136414214Y-119589214D03*
D24*
X138476714Y-109684214D03*
X136651714Y-109684214D03*
D15*
X172564214Y-88639214D03*
X172564214Y-90364214D03*
D25*
X157475000Y-96100000D03*
X159200000Y-96100000D03*
D18*
X182414214Y-85414214D03*
X182414214Y-83589214D03*
D17*
X144964214Y-89494214D03*
X144964214Y-87769214D03*
D18*
X108826714Y-114936714D03*
X108826714Y-113111714D03*
D16*
X127114214Y-114929214D03*
X125389214Y-114929214D03*
D25*
X186189214Y-108664214D03*
X187914214Y-108664214D03*
X141564214Y-85500000D03*
X143289214Y-85500000D03*
X186089214Y-105164214D03*
X187814214Y-105164214D03*
D21*
X149226714Y-109374214D03*
X149226714Y-110644214D03*
X149226714Y-111914214D03*
X149226714Y-113184214D03*
X144276714Y-113184214D03*
X144276714Y-111914214D03*
X144276714Y-110644214D03*
X144276714Y-109374214D03*
D25*
X121726714Y-109429214D03*
X123451714Y-109429214D03*
D17*
X155314214Y-83539214D03*
X155314214Y-81814214D03*
D15*
X142414214Y-100734214D03*
X142414214Y-102459214D03*
X156750000Y-116637500D03*
X156750000Y-118362500D03*
D14*
X129014214Y-87651714D03*
X129014214Y-89476714D03*
D19*
X129014214Y-91064214D03*
X130839214Y-91064214D03*
D18*
X185164214Y-85414214D03*
X185164214Y-83589214D03*
D19*
X138764214Y-92869214D03*
X140589214Y-92869214D03*
D24*
X114476714Y-107724214D03*
X112651714Y-107724214D03*
D25*
X122014214Y-85414214D03*
X123739214Y-85414214D03*
D17*
X151500000Y-99862500D03*
X151500000Y-98137500D03*
D16*
X141800000Y-106700000D03*
X140075000Y-106700000D03*
D19*
X186089214Y-110414214D03*
X187914214Y-110414214D03*
D14*
X134164214Y-89169214D03*
X134164214Y-90994214D03*
D35*
X191845000Y-104625000D03*
X193115000Y-104625000D03*
X194385000Y-104625000D03*
X195655000Y-104625000D03*
X195655000Y-99375000D03*
X194385000Y-99375000D03*
X193115000Y-99375000D03*
X191845000Y-99375000D03*
D16*
X116914214Y-102414214D03*
X115189214Y-102414214D03*
X179400000Y-119165000D03*
X177675000Y-119165000D03*
D27*
X169764214Y-116414214D03*
D36*
X169851714Y-117914214D03*
D27*
X169764214Y-119414214D03*
D21*
X130701714Y-109369214D03*
X130701714Y-110639214D03*
X130701714Y-111909214D03*
X130701714Y-113179214D03*
X125751714Y-113179214D03*
X125751714Y-111909214D03*
X125751714Y-110639214D03*
X125751714Y-109369214D03*
D18*
X190664214Y-85414214D03*
X190664214Y-83589214D03*
D16*
X136164214Y-102664214D03*
X134439214Y-102664214D03*
D25*
X186064214Y-102164214D03*
X187789214Y-102164214D03*
D16*
X176564214Y-100414214D03*
X174839214Y-100414214D03*
D15*
X132951714Y-109454214D03*
X132951714Y-111179214D03*
D18*
X138476714Y-113184214D03*
X138476714Y-111359214D03*
D15*
X197250000Y-103000000D03*
X197250000Y-104725000D03*
D16*
X159551714Y-107529214D03*
X157826714Y-107529214D03*
X153539214Y-78314214D03*
X151814214Y-78314214D03*
X127339214Y-91064214D03*
X125614214Y-91064214D03*
D15*
X179314214Y-88501714D03*
X179314214Y-90226714D03*
D16*
X179400000Y-117665000D03*
X177675000Y-117665000D03*
D21*
X115951714Y-109369214D03*
X115951714Y-110639214D03*
X115951714Y-111909214D03*
X115951714Y-113179214D03*
X111001714Y-113179214D03*
X111001714Y-111909214D03*
X111001714Y-110639214D03*
X111001714Y-109369214D03*
D16*
X176564214Y-103664214D03*
X174839214Y-103664214D03*
X145639214Y-114934214D03*
X143914214Y-114934214D03*
D24*
X129251714Y-107679214D03*
X127426714Y-107679214D03*
D25*
X186089214Y-99164214D03*
X187814214Y-99164214D03*
X171775000Y-82000000D03*
X173500000Y-82000000D03*
D17*
X184314214Y-97414214D03*
X184314214Y-95689214D03*
D14*
X148464214Y-87769214D03*
X148464214Y-89594214D03*
X151301714Y-109804214D03*
X151301714Y-111629214D03*
D37*
X167251714Y-100404214D03*
X167251714Y-99754214D03*
X167251714Y-99104214D03*
X167251714Y-98454214D03*
X167251714Y-97804214D03*
X167251714Y-97154214D03*
X167251714Y-96504214D03*
X161526714Y-96504214D03*
X161526714Y-97154214D03*
X161526714Y-97804214D03*
X161526714Y-98454214D03*
X161526714Y-99104214D03*
X161526714Y-99754214D03*
X161526714Y-100404214D03*
D18*
X134701714Y-111929214D03*
X134701714Y-110104214D03*
D17*
X181314214Y-97414214D03*
X181314214Y-95689214D03*
D14*
X151300000Y-113275000D03*
X151300000Y-115100000D03*
D38*
X172300000Y-96700000D03*
X174400000Y-96700000D03*
X174400000Y-95050000D03*
X172300000Y-95050000D03*
M02*
