%TF.GenerationSoftware,KiCad,Pcbnew,8.0.8*%
%TF.CreationDate,2025-01-24T13:19:42-06:00*%
%TF.ProjectId,delay_pedal,64656c61-795f-4706-9564-616c2e6b6963,rev?*%
%TF.SameCoordinates,Original*%
%TF.FileFunction,Drillmap*%
%TF.FilePolarity,Positive*%
%FSLAX45Y45*%
G04 Gerber Fmt 4.5, Leading zero omitted, Abs format (unit mm)*
G04 Created by KiCad (PCBNEW 8.0.8) date 2025-01-24 13:19:42*
%MOMM*%
%LPD*%
G01*
G04 APERTURE LIST*
%ADD10C,0.050000*%
%ADD11C,0.200000*%
%ADD12C,0.100000*%
%ADD13C,0.130000*%
%ADD14C,0.320000*%
G04 APERTURE END LIST*
D10*
X9691421Y-7491421D02*
X20291421Y-7491421D01*
X9491421Y-7691421D02*
G75*
G02*
X9691421Y-7491421I199999J1D01*
G01*
X20291421Y-7491421D02*
G75*
G02*
X20491419Y-7691421I-1J-199999D01*
G01*
X20491421Y-7691421D02*
X20491421Y-12291421D01*
X9491421Y-12291421D02*
X9491421Y-7691421D01*
X20291421Y-12491421D02*
X9691421Y-12491421D01*
X9691421Y-12491421D02*
G75*
G02*
X9491419Y-12291421I-1J200001D01*
G01*
X20491421Y-12291421D02*
G75*
G02*
X20291421Y-12491421I-200001J1D01*
G01*
D11*
D12*
X14932500Y-10762500D02*
X14947500Y-10777500D01*
X14947500Y-10762500D02*
X14932500Y-10777500D01*
X15002500Y-10512500D02*
X15017500Y-10527500D01*
X15017500Y-10512500D02*
X15002500Y-10527500D01*
X10537500Y-10150000D02*
G75*
G02*
X10512500Y-10150000I-12500J0D01*
G01*
X10512500Y-10150000D02*
G75*
G02*
X10537500Y-10150000I12500J0D01*
G01*
X10705171Y-11494921D02*
G75*
G02*
X10680171Y-11494921I-12500J0D01*
G01*
X10680171Y-11494921D02*
G75*
G02*
X10705171Y-11494921I12500J0D01*
G01*
X10762500Y-9525000D02*
G75*
G02*
X10737500Y-9525000I-12500J0D01*
G01*
X10737500Y-9525000D02*
G75*
G02*
X10762500Y-9525000I12500J0D01*
G01*
X10895171Y-11493671D02*
G75*
G02*
X10870171Y-11493671I-12500J0D01*
G01*
X10870171Y-11493671D02*
G75*
G02*
X10895171Y-11493671I12500J0D01*
G01*
X10912500Y-12075000D02*
G75*
G02*
X10887500Y-12075000I-12500J0D01*
G01*
X10887500Y-12075000D02*
G75*
G02*
X10912500Y-12075000I12500J0D01*
G01*
X11076421Y-11492921D02*
G75*
G02*
X11051421Y-11492921I-12500J0D01*
G01*
X11051421Y-11492921D02*
G75*
G02*
X11076421Y-11492921I12500J0D01*
G01*
X11112671Y-11317921D02*
G75*
G02*
X11087671Y-11317921I-12500J0D01*
G01*
X11087671Y-11317921D02*
G75*
G02*
X11112671Y-11317921I12500J0D01*
G01*
X11248921Y-11492921D02*
G75*
G02*
X11223921Y-11492921I-12500J0D01*
G01*
X11223921Y-11492921D02*
G75*
G02*
X11248921Y-11492921I12500J0D01*
G01*
X11473921Y-8635171D02*
G75*
G02*
X11448921Y-8635171I-12500J0D01*
G01*
X11448921Y-8635171D02*
G75*
G02*
X11473921Y-8635171I12500J0D01*
G01*
X11521421Y-9841421D02*
G75*
G02*
X11496421Y-9841421I-12500J0D01*
G01*
X11496421Y-9841421D02*
G75*
G02*
X11521421Y-9841421I12500J0D01*
G01*
X11521421Y-10041421D02*
G75*
G02*
X11496421Y-10041421I-12500J0D01*
G01*
X11496421Y-10041421D02*
G75*
G02*
X11521421Y-10041421I12500J0D01*
G01*
X11531421Y-10241421D02*
G75*
G02*
X11506421Y-10241421I-12500J0D01*
G01*
X11506421Y-10241421D02*
G75*
G02*
X11531421Y-10241421I12500J0D01*
G01*
X11607671Y-10936921D02*
G75*
G02*
X11582671Y-10936921I-12500J0D01*
G01*
X11582671Y-10936921D02*
G75*
G02*
X11607671Y-10936921I12500J0D01*
G01*
X11607671Y-11317921D02*
G75*
G02*
X11582671Y-11317921I-12500J0D01*
G01*
X11582671Y-11317921D02*
G75*
G02*
X11607671Y-11317921I12500J0D01*
G01*
X11703921Y-9841421D02*
G75*
G02*
X11678921Y-9841421I-12500J0D01*
G01*
X11678921Y-9841421D02*
G75*
G02*
X11703921Y-9841421I12500J0D01*
G01*
X11703921Y-10041421D02*
G75*
G02*
X11678921Y-10041421I-12500J0D01*
G01*
X11678921Y-10041421D02*
G75*
G02*
X11703921Y-10041421I12500J0D01*
G01*
X11703921Y-10241421D02*
G75*
G02*
X11678921Y-10241421I-12500J0D01*
G01*
X11678921Y-10241421D02*
G75*
G02*
X11703921Y-10241421I12500J0D01*
G01*
X11712500Y-11500000D02*
G75*
G02*
X11687500Y-11500000I-12500J0D01*
G01*
X11687500Y-11500000D02*
G75*
G02*
X11712500Y-11500000I12500J0D01*
G01*
X11837500Y-11075000D02*
G75*
G02*
X11812500Y-11075000I-12500J0D01*
G01*
X11812500Y-11075000D02*
G75*
G02*
X11837500Y-11075000I12500J0D01*
G01*
X11863921Y-8716421D02*
G75*
G02*
X11838921Y-8716421I-12500J0D01*
G01*
X11838921Y-8716421D02*
G75*
G02*
X11863921Y-8716421I12500J0D01*
G01*
X11863921Y-9097421D02*
G75*
G02*
X11838921Y-9097421I-12500J0D01*
G01*
X11838921Y-9097421D02*
G75*
G02*
X11863921Y-9097421I12500J0D01*
G01*
X12028921Y-10441421D02*
G75*
G02*
X12003921Y-10441421I-12500J0D01*
G01*
X12003921Y-10441421D02*
G75*
G02*
X12028921Y-10441421I12500J0D01*
G01*
X12203921Y-10441421D02*
G75*
G02*
X12178921Y-10441421I-12500J0D01*
G01*
X12178921Y-10441421D02*
G75*
G02*
X12203921Y-10441421I12500J0D01*
G01*
X12213921Y-8541421D02*
G75*
G02*
X12188921Y-8541421I-12500J0D01*
G01*
X12188921Y-8541421D02*
G75*
G02*
X12213921Y-8541421I12500J0D01*
G01*
X12357671Y-11292921D02*
G75*
G02*
X12332671Y-11292921I-12500J0D01*
G01*
X12332671Y-11292921D02*
G75*
G02*
X12357671Y-11292921I12500J0D01*
G01*
X12358921Y-8716421D02*
G75*
G02*
X12333921Y-8716421I-12500J0D01*
G01*
X12333921Y-8716421D02*
G75*
G02*
X12358921Y-8716421I12500J0D01*
G01*
X12386421Y-8541421D02*
G75*
G02*
X12361421Y-8541421I-12500J0D01*
G01*
X12361421Y-8541421D02*
G75*
G02*
X12386421Y-8541421I12500J0D01*
G01*
X12551421Y-11492921D02*
G75*
G02*
X12526421Y-11492921I-12500J0D01*
G01*
X12526421Y-11492921D02*
G75*
G02*
X12551421Y-11492921I12500J0D01*
G01*
X12573921Y-8770171D02*
G75*
G02*
X12548921Y-8770171I-12500J0D01*
G01*
X12548921Y-8770171D02*
G75*
G02*
X12573921Y-8770171I12500J0D01*
G01*
X12587671Y-11317921D02*
G75*
G02*
X12562671Y-11317921I-12500J0D01*
G01*
X12562671Y-11317921D02*
G75*
G02*
X12587671Y-11317921I12500J0D01*
G01*
X12662500Y-9850000D02*
G75*
G02*
X12637500Y-9850000I-12500J0D01*
G01*
X12637500Y-9850000D02*
G75*
G02*
X12662500Y-9850000I12500J0D01*
G01*
X12723921Y-11492921D02*
G75*
G02*
X12698921Y-11492921I-12500J0D01*
G01*
X12698921Y-11492921D02*
G75*
G02*
X12723921Y-11492921I12500J0D01*
G01*
X12937500Y-12050000D02*
G75*
G02*
X12912500Y-12050000I-12500J0D01*
G01*
X12912500Y-12050000D02*
G75*
G02*
X12937500Y-12050000I12500J0D01*
G01*
X13082671Y-10936921D02*
G75*
G02*
X13057671Y-10936921I-12500J0D01*
G01*
X13057671Y-10936921D02*
G75*
G02*
X13082671Y-10936921I12500J0D01*
G01*
X13203921Y-9918921D02*
G75*
G02*
X13178921Y-9918921I-12500J0D01*
G01*
X13178921Y-9918921D02*
G75*
G02*
X13203921Y-9918921I12500J0D01*
G01*
X13203921Y-10091421D02*
G75*
G02*
X13178921Y-10091421I-12500J0D01*
G01*
X13178921Y-10091421D02*
G75*
G02*
X13203921Y-10091421I12500J0D01*
G01*
X13307671Y-11467921D02*
G75*
G02*
X13282671Y-11467921I-12500J0D01*
G01*
X13282671Y-11467921D02*
G75*
G02*
X13307671Y-11467921I12500J0D01*
G01*
X13378921Y-12141421D02*
G75*
G02*
X13353921Y-12141421I-12500J0D01*
G01*
X13353921Y-12141421D02*
G75*
G02*
X13378921Y-12141421I12500J0D01*
G01*
X13408921Y-9852921D02*
G75*
G02*
X13383921Y-9852921I-12500J0D01*
G01*
X13383921Y-9852921D02*
G75*
G02*
X13408921Y-9852921I12500J0D01*
G01*
X13408921Y-10106921D02*
G75*
G02*
X13383921Y-10106921I-12500J0D01*
G01*
X13383921Y-10106921D02*
G75*
G02*
X13408921Y-10106921I12500J0D01*
G01*
X13456421Y-10266421D02*
G75*
G02*
X13431421Y-10266421I-12500J0D01*
G01*
X13431421Y-10266421D02*
G75*
G02*
X13456421Y-10266421I12500J0D01*
G01*
X13588921Y-8606921D02*
G75*
G02*
X13563921Y-8606921I-12500J0D01*
G01*
X13563921Y-8606921D02*
G75*
G02*
X13588921Y-8606921I12500J0D01*
G01*
X13653921Y-12141421D02*
G75*
G02*
X13628921Y-12141421I-12500J0D01*
G01*
X13628921Y-12141421D02*
G75*
G02*
X13653921Y-12141421I12500J0D01*
G01*
X13801421Y-9117421D02*
G75*
G02*
X13776421Y-9117421I-12500J0D01*
G01*
X13776421Y-9117421D02*
G75*
G02*
X13801421Y-9117421I12500J0D01*
G01*
X14168921Y-8566921D02*
G75*
G02*
X14143921Y-8566921I-12500J0D01*
G01*
X14143921Y-8566921D02*
G75*
G02*
X14168921Y-8566921I12500J0D01*
G01*
X14210171Y-11318421D02*
G75*
G02*
X14185171Y-11318421I-12500J0D01*
G01*
X14185171Y-11318421D02*
G75*
G02*
X14210171Y-11318421I12500J0D01*
G01*
X14253921Y-10245921D02*
G75*
G02*
X14228921Y-10245921I-12500J0D01*
G01*
X14228921Y-10245921D02*
G75*
G02*
X14253921Y-10245921I12500J0D01*
G01*
X14296421Y-8736421D02*
G75*
G02*
X14271421Y-8736421I-12500J0D01*
G01*
X14271421Y-8736421D02*
G75*
G02*
X14296421Y-8736421I12500J0D01*
G01*
X14341421Y-8566921D02*
G75*
G02*
X14316421Y-8566921I-12500J0D01*
G01*
X14316421Y-8566921D02*
G75*
G02*
X14341421Y-8566921I12500J0D01*
G01*
X14403921Y-11493421D02*
G75*
G02*
X14378921Y-11493421I-12500J0D01*
G01*
X14378921Y-11493421D02*
G75*
G02*
X14403921Y-11493421I12500J0D01*
G01*
X14422671Y-10287921D02*
G75*
G02*
X14397671Y-10287921I-12500J0D01*
G01*
X14397671Y-10287921D02*
G75*
G02*
X14422671Y-10287921I12500J0D01*
G01*
X14440171Y-11318421D02*
G75*
G02*
X14415171Y-11318421I-12500J0D01*
G01*
X14415171Y-11318421D02*
G75*
G02*
X14440171Y-11318421I12500J0D01*
G01*
X14463921Y-10112921D02*
G75*
G02*
X14438921Y-10112921I-12500J0D01*
G01*
X14438921Y-10112921D02*
G75*
G02*
X14463921Y-10112921I12500J0D01*
G01*
X14508921Y-8776921D02*
G75*
G02*
X14483921Y-8776921I-12500J0D01*
G01*
X14483921Y-8776921D02*
G75*
G02*
X14508921Y-8776921I12500J0D01*
G01*
X14576421Y-11493421D02*
G75*
G02*
X14551421Y-11493421I-12500J0D01*
G01*
X14551421Y-11493421D02*
G75*
G02*
X14576421Y-11493421I12500J0D01*
G01*
X14595171Y-10287921D02*
G75*
G02*
X14570171Y-10287921I-12500J0D01*
G01*
X14570171Y-10287921D02*
G75*
G02*
X14595171Y-10287921I12500J0D01*
G01*
X14713921Y-10473921D02*
G75*
G02*
X14688921Y-10473921I-12500J0D01*
G01*
X14688921Y-10473921D02*
G75*
G02*
X14713921Y-10473921I12500J0D01*
G01*
X14827671Y-10282921D02*
G75*
G02*
X14802671Y-10282921I-12500J0D01*
G01*
X14802671Y-10282921D02*
G75*
G02*
X14827671Y-10282921I12500J0D01*
G01*
X14843921Y-7831421D02*
G75*
G02*
X14818921Y-7831421I-12500J0D01*
G01*
X14818921Y-7831421D02*
G75*
G02*
X14843921Y-7831421I12500J0D01*
G01*
X14912500Y-10410000D02*
G75*
G02*
X14887500Y-10410000I-12500J0D01*
G01*
X14887500Y-10410000D02*
G75*
G02*
X14912500Y-10410000I12500J0D01*
G01*
X14935171Y-10937421D02*
G75*
G02*
X14910171Y-10937421I-12500J0D01*
G01*
X14910171Y-10937421D02*
G75*
G02*
X14935171Y-10937421I12500J0D01*
G01*
X14935171Y-11318421D02*
G75*
G02*
X14910171Y-11318421I-12500J0D01*
G01*
X14910171Y-11318421D02*
G75*
G02*
X14935171Y-11318421I12500J0D01*
G01*
X14958921Y-9731921D02*
G75*
G02*
X14933921Y-9731921I-12500J0D01*
G01*
X14933921Y-9731921D02*
G75*
G02*
X14958921Y-9731921I12500J0D01*
G01*
X15016421Y-7831421D02*
G75*
G02*
X14991421Y-7831421I-12500J0D01*
G01*
X14991421Y-7831421D02*
G75*
G02*
X15016421Y-7831421I12500J0D01*
G01*
X15193921Y-7831421D02*
G75*
G02*
X15168921Y-7831421I-12500J0D01*
G01*
X15168921Y-7831421D02*
G75*
G02*
X15193921Y-7831421I12500J0D01*
G01*
X15287500Y-10875000D02*
G75*
G02*
X15262500Y-10875000I-12500J0D01*
G01*
X15262500Y-10875000D02*
G75*
G02*
X15287500Y-10875000I12500J0D01*
G01*
X15300171Y-8181421D02*
G75*
G02*
X15275171Y-8181421I-12500J0D01*
G01*
X15275171Y-8181421D02*
G75*
G02*
X15300171Y-8181421I12500J0D01*
G01*
X15308921Y-8031421D02*
G75*
G02*
X15283921Y-8031421I-12500J0D01*
G01*
X15283921Y-8031421D02*
G75*
G02*
X15308921Y-8031421I12500J0D01*
G01*
X15308921Y-8331421D02*
G75*
G02*
X15283921Y-8331421I-12500J0D01*
G01*
X15283921Y-8331421D02*
G75*
G02*
X15308921Y-8331421I12500J0D01*
G01*
X15322500Y-9807500D02*
G75*
G02*
X15297500Y-9807500I-12500J0D01*
G01*
X15297500Y-9807500D02*
G75*
G02*
X15322500Y-9807500I12500J0D01*
G01*
X15366421Y-7831421D02*
G75*
G02*
X15341421Y-7831421I-12500J0D01*
G01*
X15341421Y-7831421D02*
G75*
G02*
X15366421Y-7831421I12500J0D01*
G01*
X15515171Y-9772921D02*
G75*
G02*
X15490171Y-9772921I-12500J0D01*
G01*
X15490171Y-9772921D02*
G75*
G02*
X15515171Y-9772921I12500J0D01*
G01*
X15515171Y-9837921D02*
G75*
G02*
X15490171Y-9837921I-12500J0D01*
G01*
X15490171Y-9837921D02*
G75*
G02*
X15515171Y-9837921I12500J0D01*
G01*
X15520171Y-11302921D02*
G75*
G02*
X15495171Y-11302921I-12500J0D01*
G01*
X15495171Y-11302921D02*
G75*
G02*
X15520171Y-11302921I12500J0D01*
G01*
X15521250Y-11812500D02*
G75*
G02*
X15496250Y-11812500I-12500J0D01*
G01*
X15496250Y-11812500D02*
G75*
G02*
X15521250Y-11812500I12500J0D01*
G01*
X15521250Y-11995000D02*
G75*
G02*
X15496250Y-11995000I-12500J0D01*
G01*
X15496250Y-11995000D02*
G75*
G02*
X15521250Y-11995000I12500J0D01*
G01*
X15522500Y-11467500D02*
G75*
G02*
X15497500Y-11467500I-12500J0D01*
G01*
X15497500Y-11467500D02*
G75*
G02*
X15522500Y-11467500I12500J0D01*
G01*
X15522500Y-11650000D02*
G75*
G02*
X15497500Y-11650000I-12500J0D01*
G01*
X15497500Y-11650000D02*
G75*
G02*
X15522500Y-11650000I12500J0D01*
G01*
X15527671Y-10977921D02*
G75*
G02*
X15502671Y-10977921I-12500J0D01*
G01*
X15502671Y-10977921D02*
G75*
G02*
X15527671Y-10977921I12500J0D01*
G01*
X15527671Y-11077921D02*
G75*
G02*
X15502671Y-11077921I-12500J0D01*
G01*
X15502671Y-11077921D02*
G75*
G02*
X15527671Y-11077921I12500J0D01*
G01*
X15527671Y-11127921D02*
G75*
G02*
X15502671Y-11127921I-12500J0D01*
G01*
X15502671Y-11127921D02*
G75*
G02*
X15527671Y-11127921I12500J0D01*
G01*
X15543921Y-8181421D02*
G75*
G02*
X15518921Y-8181421I-12500J0D01*
G01*
X15518921Y-8181421D02*
G75*
G02*
X15543921Y-8181421I12500J0D01*
G01*
X15543921Y-8353921D02*
G75*
G02*
X15518921Y-8353921I-12500J0D01*
G01*
X15518921Y-8353921D02*
G75*
G02*
X15543921Y-8353921I12500J0D01*
G01*
X15552500Y-10760000D02*
G75*
G02*
X15527500Y-10760000I-12500J0D01*
G01*
X15527500Y-10760000D02*
G75*
G02*
X15552500Y-10760000I12500J0D01*
G01*
X15687500Y-11663750D02*
G75*
G02*
X15662500Y-11663750I-12500J0D01*
G01*
X15662500Y-11663750D02*
G75*
G02*
X15687500Y-11663750I12500J0D01*
G01*
X15687500Y-11836250D02*
G75*
G02*
X15662500Y-11836250I-12500J0D01*
G01*
X15662500Y-11836250D02*
G75*
G02*
X15687500Y-11836250I12500J0D01*
G01*
X15692671Y-11302921D02*
G75*
G02*
X15667671Y-11302921I-12500J0D01*
G01*
X15667671Y-11302921D02*
G75*
G02*
X15692671Y-11302921I12500J0D01*
G01*
X15760000Y-9435000D02*
G75*
G02*
X15735000Y-9435000I-12500J0D01*
G01*
X15735000Y-9435000D02*
G75*
G02*
X15760000Y-9435000I12500J0D01*
G01*
X15760000Y-9610000D02*
G75*
G02*
X15735000Y-9610000I-12500J0D01*
G01*
X15735000Y-9610000D02*
G75*
G02*
X15760000Y-9610000I12500J0D01*
G01*
X15795171Y-10752921D02*
G75*
G02*
X15770171Y-10752921I-12500J0D01*
G01*
X15770171Y-10752921D02*
G75*
G02*
X15795171Y-10752921I12500J0D01*
G01*
X15932500Y-9435000D02*
G75*
G02*
X15907500Y-9435000I-12500J0D01*
G01*
X15907500Y-9435000D02*
G75*
G02*
X15932500Y-9435000I12500J0D01*
G01*
X15932500Y-9610000D02*
G75*
G02*
X15907500Y-9610000I-12500J0D01*
G01*
X15907500Y-9610000D02*
G75*
G02*
X15932500Y-9610000I12500J0D01*
G01*
X15937671Y-9772921D02*
G75*
G02*
X15912671Y-9772921I-12500J0D01*
G01*
X15912671Y-9772921D02*
G75*
G02*
X15937671Y-9772921I12500J0D01*
G01*
X15962500Y-11475000D02*
G75*
G02*
X15937500Y-11475000I-12500J0D01*
G01*
X15937500Y-11475000D02*
G75*
G02*
X15962500Y-11475000I12500J0D01*
G01*
X15967671Y-10752921D02*
G75*
G02*
X15942671Y-10752921I-12500J0D01*
G01*
X15942671Y-10752921D02*
G75*
G02*
X15967671Y-10752921I12500J0D01*
G01*
X15967671Y-10927921D02*
G75*
G02*
X15942671Y-10927921I-12500J0D01*
G01*
X15942671Y-10927921D02*
G75*
G02*
X15967671Y-10927921I12500J0D01*
G01*
X15967671Y-10977921D02*
G75*
G02*
X15942671Y-10977921I-12500J0D01*
G01*
X15942671Y-10977921D02*
G75*
G02*
X15967671Y-10977921I12500J0D01*
G01*
X16165171Y-9650421D02*
G75*
G02*
X16140171Y-9650421I-12500J0D01*
G01*
X16140171Y-9650421D02*
G75*
G02*
X16165171Y-9650421I12500J0D01*
G01*
X16165171Y-10040421D02*
G75*
G02*
X16140171Y-10040421I-12500J0D01*
G01*
X16140171Y-10040421D02*
G75*
G02*
X16165171Y-10040421I12500J0D01*
G01*
X16192500Y-11830000D02*
G75*
G02*
X16167500Y-11830000I-12500J0D01*
G01*
X16167500Y-11830000D02*
G75*
G02*
X16192500Y-11830000I12500J0D01*
G01*
X16337500Y-11475000D02*
G75*
G02*
X16312500Y-11475000I-12500J0D01*
G01*
X16312500Y-11475000D02*
G75*
G02*
X16337500Y-11475000I12500J0D01*
G01*
X16362500Y-8775000D02*
G75*
G02*
X16337500Y-8775000I-12500J0D01*
G01*
X16337500Y-8775000D02*
G75*
G02*
X16362500Y-8775000I12500J0D01*
G01*
X16371421Y-9491421D02*
G75*
G02*
X16346421Y-9491421I-12500J0D01*
G01*
X16346421Y-9491421D02*
G75*
G02*
X16371421Y-9491421I12500J0D01*
G01*
X16553921Y-9491421D02*
G75*
G02*
X16528921Y-9491421I-12500J0D01*
G01*
X16528921Y-9491421D02*
G75*
G02*
X16553921Y-9491421I12500J0D01*
G01*
X16737671Y-9650421D02*
G75*
G02*
X16712671Y-9650421I-12500J0D01*
G01*
X16712671Y-9650421D02*
G75*
G02*
X16737671Y-9650421I12500J0D01*
G01*
X16737671Y-10040421D02*
G75*
G02*
X16712671Y-10040421I-12500J0D01*
G01*
X16712671Y-10040421D02*
G75*
G02*
X16737671Y-10040421I12500J0D01*
G01*
X16753921Y-11618921D02*
G75*
G02*
X16728921Y-11618921I-12500J0D01*
G01*
X16728921Y-11618921D02*
G75*
G02*
X16753921Y-11618921I12500J0D01*
G01*
X16753921Y-11791421D02*
G75*
G02*
X16728921Y-11791421I-12500J0D01*
G01*
X16728921Y-11791421D02*
G75*
G02*
X16753921Y-11791421I12500J0D01*
G01*
X16887500Y-10550000D02*
G75*
G02*
X16862500Y-10550000I-12500J0D01*
G01*
X16862500Y-10550000D02*
G75*
G02*
X16887500Y-10550000I12500J0D01*
G01*
X16931421Y-12141421D02*
G75*
G02*
X16906421Y-12141421I-12500J0D01*
G01*
X16906421Y-12141421D02*
G75*
G02*
X16931421Y-12141421I12500J0D01*
G01*
X16988921Y-11641421D02*
G75*
G02*
X16963921Y-11641421I-12500J0D01*
G01*
X16963921Y-11641421D02*
G75*
G02*
X16988921Y-11641421I12500J0D01*
G01*
X16988921Y-11941421D02*
G75*
G02*
X16963921Y-11941421I-12500J0D01*
G01*
X16963921Y-11941421D02*
G75*
G02*
X16988921Y-11941421I12500J0D01*
G01*
X16997671Y-11791421D02*
G75*
G02*
X16972671Y-11791421I-12500J0D01*
G01*
X16972671Y-11791421D02*
G75*
G02*
X16997671Y-11791421I12500J0D01*
G01*
X17062500Y-9503750D02*
G75*
G02*
X17037500Y-9503750I-12500J0D01*
G01*
X17037500Y-9503750D02*
G75*
G02*
X17062500Y-9503750I12500J0D01*
G01*
X17062500Y-9676250D02*
G75*
G02*
X17037500Y-9676250I-12500J0D01*
G01*
X17037500Y-9676250D02*
G75*
G02*
X17062500Y-9676250I12500J0D01*
G01*
X17103921Y-12141421D02*
G75*
G02*
X17078921Y-12141421I-12500J0D01*
G01*
X17078921Y-12141421D02*
G75*
G02*
X17103921Y-12141421I12500J0D01*
G01*
X17118921Y-8863921D02*
G75*
G02*
X17093921Y-8863921I-12500J0D01*
G01*
X17093921Y-8863921D02*
G75*
G02*
X17118921Y-8863921I12500J0D01*
G01*
X17118921Y-9036421D02*
G75*
G02*
X17093921Y-9036421I-12500J0D01*
G01*
X17093921Y-9036421D02*
G75*
G02*
X17118921Y-9036421I12500J0D01*
G01*
X17190000Y-8200000D02*
G75*
G02*
X17165000Y-8200000I-12500J0D01*
G01*
X17165000Y-8200000D02*
G75*
G02*
X17190000Y-8200000I12500J0D01*
G01*
X17242500Y-9505000D02*
G75*
G02*
X17217500Y-9505000I-12500J0D01*
G01*
X17217500Y-9505000D02*
G75*
G02*
X17242500Y-9505000I12500J0D01*
G01*
X17268921Y-8863921D02*
G75*
G02*
X17243921Y-8863921I-12500J0D01*
G01*
X17243921Y-8863921D02*
G75*
G02*
X17268921Y-8863921I12500J0D01*
G01*
X17268921Y-9036421D02*
G75*
G02*
X17243921Y-9036421I-12500J0D01*
G01*
X17243921Y-9036421D02*
G75*
G02*
X17268921Y-9036421I12500J0D01*
G01*
X17362500Y-8200000D02*
G75*
G02*
X17337500Y-8200000I-12500J0D01*
G01*
X17337500Y-8200000D02*
G75*
G02*
X17362500Y-8200000I12500J0D01*
G01*
X17412500Y-12275000D02*
G75*
G02*
X17387500Y-12275000I-12500J0D01*
G01*
X17387500Y-12275000D02*
G75*
G02*
X17412500Y-12275000I12500J0D01*
G01*
X17452500Y-9670000D02*
G75*
G02*
X17427500Y-9670000I-12500J0D01*
G01*
X17427500Y-9670000D02*
G75*
G02*
X17452500Y-9670000I12500J0D01*
G01*
X17468921Y-8846421D02*
G75*
G02*
X17443921Y-8846421I-12500J0D01*
G01*
X17443921Y-8846421D02*
G75*
G02*
X17468921Y-8846421I12500J0D01*
G01*
X17468921Y-8941421D02*
G75*
G02*
X17443921Y-8941421I-12500J0D01*
G01*
X17443921Y-8941421D02*
G75*
G02*
X17468921Y-8941421I12500J0D01*
G01*
X17496421Y-10041421D02*
G75*
G02*
X17471421Y-10041421I-12500J0D01*
G01*
X17471421Y-10041421D02*
G75*
G02*
X17496421Y-10041421I12500J0D01*
G01*
X17496421Y-10366421D02*
G75*
G02*
X17471421Y-10366421I-12500J0D01*
G01*
X17471421Y-10366421D02*
G75*
G02*
X17496421Y-10366421I12500J0D01*
G01*
X17668921Y-10041421D02*
G75*
G02*
X17643921Y-10041421I-12500J0D01*
G01*
X17643921Y-10041421D02*
G75*
G02*
X17668921Y-10041421I12500J0D01*
G01*
X17668921Y-10366421D02*
G75*
G02*
X17643921Y-10366421I-12500J0D01*
G01*
X17643921Y-10366421D02*
G75*
G02*
X17668921Y-10366421I12500J0D01*
G01*
X17738921Y-8846421D02*
G75*
G02*
X17713921Y-8846421I-12500J0D01*
G01*
X17713921Y-8846421D02*
G75*
G02*
X17738921Y-8846421I12500J0D01*
G01*
X17780000Y-11766500D02*
G75*
G02*
X17755000Y-11766500I-12500J0D01*
G01*
X17755000Y-11766500D02*
G75*
G02*
X17780000Y-11766500I12500J0D01*
G01*
X17780000Y-11916500D02*
G75*
G02*
X17755000Y-11916500I-12500J0D01*
G01*
X17755000Y-11916500D02*
G75*
G02*
X17780000Y-11916500I12500J0D01*
G01*
X17818921Y-10191421D02*
G75*
G02*
X17793921Y-10191421I-12500J0D01*
G01*
X17793921Y-10191421D02*
G75*
G02*
X17818921Y-10191421I12500J0D01*
G01*
X17818921Y-10241421D02*
G75*
G02*
X17793921Y-10241421I-12500J0D01*
G01*
X17793921Y-10241421D02*
G75*
G02*
X17818921Y-10241421I12500J0D01*
G01*
X17827500Y-11480000D02*
G75*
G02*
X17802500Y-11480000I-12500J0D01*
G01*
X17802500Y-11480000D02*
G75*
G02*
X17827500Y-11480000I12500J0D01*
G01*
X17827500Y-11607000D02*
G75*
G02*
X17802500Y-11607000I-12500J0D01*
G01*
X17802500Y-11607000D02*
G75*
G02*
X17827500Y-11607000I12500J0D01*
G01*
X17843921Y-10691421D02*
G75*
G02*
X17818921Y-10691421I-12500J0D01*
G01*
X17818921Y-10691421D02*
G75*
G02*
X17843921Y-10691421I12500J0D01*
G01*
X17843921Y-10863921D02*
G75*
G02*
X17818921Y-10863921I-12500J0D01*
G01*
X17818921Y-10863921D02*
G75*
G02*
X17843921Y-10863921I12500J0D01*
G01*
X17883921Y-10266421D02*
G75*
G02*
X17858921Y-10266421I-12500J0D01*
G01*
X17858921Y-10266421D02*
G75*
G02*
X17883921Y-10266421I12500J0D01*
G01*
X17943921Y-8850171D02*
G75*
G02*
X17918921Y-8850171I-12500J0D01*
G01*
X17918921Y-8850171D02*
G75*
G02*
X17943921Y-8850171I12500J0D01*
G01*
X17943921Y-9022671D02*
G75*
G02*
X17918921Y-9022671I-12500J0D01*
G01*
X17918921Y-9022671D02*
G75*
G02*
X17943921Y-9022671I12500J0D01*
G01*
X17952500Y-11766500D02*
G75*
G02*
X17927500Y-11766500I-12500J0D01*
G01*
X17927500Y-11766500D02*
G75*
G02*
X17952500Y-11766500I12500J0D01*
G01*
X17952500Y-11916500D02*
G75*
G02*
X17927500Y-11916500I-12500J0D01*
G01*
X17927500Y-11916500D02*
G75*
G02*
X17952500Y-11916500I12500J0D01*
G01*
X17968921Y-10541421D02*
G75*
G02*
X17943921Y-10541421I-12500J0D01*
G01*
X17943921Y-10541421D02*
G75*
G02*
X17968921Y-10541421I12500J0D01*
G01*
X18032500Y-10970000D02*
G75*
G02*
X18007500Y-10970000I-12500J0D01*
G01*
X18007500Y-10970000D02*
G75*
G02*
X18032500Y-10970000I12500J0D01*
G01*
X18068921Y-10541421D02*
G75*
G02*
X18043921Y-10541421I-12500J0D01*
G01*
X18043921Y-10541421D02*
G75*
G02*
X18068921Y-10541421I12500J0D01*
G01*
X18087500Y-11400000D02*
G75*
G02*
X18062500Y-11400000I-12500J0D01*
G01*
X18062500Y-11400000D02*
G75*
G02*
X18087500Y-11400000I12500J0D01*
G01*
X18093921Y-9956421D02*
G75*
G02*
X18068921Y-9956421I-12500J0D01*
G01*
X18068921Y-9956421D02*
G75*
G02*
X18093921Y-9956421I12500J0D01*
G01*
X18118921Y-10541421D02*
G75*
G02*
X18093921Y-10541421I-12500J0D01*
G01*
X18093921Y-10541421D02*
G75*
G02*
X18118921Y-10541421I12500J0D01*
G01*
X18143921Y-9568921D02*
G75*
G02*
X18118921Y-9568921I-12500J0D01*
G01*
X18118921Y-9568921D02*
G75*
G02*
X18143921Y-9568921I12500J0D01*
G01*
X18143921Y-9741421D02*
G75*
G02*
X18118921Y-9741421I-12500J0D01*
G01*
X18118921Y-9741421D02*
G75*
G02*
X18143921Y-9741421I12500J0D01*
G01*
X18143921Y-10216421D02*
G75*
G02*
X18118921Y-10216421I-12500J0D01*
G01*
X18118921Y-10216421D02*
G75*
G02*
X18143921Y-10216421I12500J0D01*
G01*
X18143921Y-10693921D02*
G75*
G02*
X18118921Y-10693921I-12500J0D01*
G01*
X18118921Y-10693921D02*
G75*
G02*
X18143921Y-10693921I12500J0D01*
G01*
X18143921Y-10866421D02*
G75*
G02*
X18118921Y-10866421I-12500J0D01*
G01*
X18118921Y-10866421D02*
G75*
G02*
X18143921Y-10866421I12500J0D01*
G01*
X18168921Y-9891421D02*
G75*
G02*
X18143921Y-9891421I-12500J0D01*
G01*
X18143921Y-9891421D02*
G75*
G02*
X18168921Y-9891421I12500J0D01*
G01*
X18243921Y-10476421D02*
G75*
G02*
X18218921Y-10476421I-12500J0D01*
G01*
X18218921Y-10476421D02*
G75*
G02*
X18243921Y-10476421I12500J0D01*
G01*
X18243921Y-10925000D02*
G75*
G02*
X18218921Y-10925000I-12500J0D01*
G01*
X18218921Y-10925000D02*
G75*
G02*
X18243921Y-10925000I12500J0D01*
G01*
X18253921Y-8541421D02*
G75*
G02*
X18228921Y-8541421I-12500J0D01*
G01*
X18228921Y-8541421D02*
G75*
G02*
X18253921Y-8541421I12500J0D01*
G01*
X18287500Y-11000000D02*
G75*
G02*
X18262500Y-11000000I-12500J0D01*
G01*
X18262500Y-11000000D02*
G75*
G02*
X18287500Y-11000000I12500J0D01*
G01*
X18293921Y-10476421D02*
G75*
G02*
X18268921Y-10476421I-12500J0D01*
G01*
X18268921Y-10476421D02*
G75*
G02*
X18293921Y-10476421I12500J0D01*
G01*
X18318921Y-10541421D02*
G75*
G02*
X18293921Y-10541421I-12500J0D01*
G01*
X18293921Y-10541421D02*
G75*
G02*
X18318921Y-10541421I12500J0D01*
G01*
X18322500Y-11226000D02*
G75*
G02*
X18297500Y-11226000I-12500J0D01*
G01*
X18297500Y-11226000D02*
G75*
G02*
X18322500Y-11226000I12500J0D01*
G01*
X18322500Y-11353000D02*
G75*
G02*
X18297500Y-11353000I-12500J0D01*
G01*
X18297500Y-11353000D02*
G75*
G02*
X18322500Y-11353000I12500J0D01*
G01*
X18343921Y-9956421D02*
G75*
G02*
X18318921Y-9956421I-12500J0D01*
G01*
X18318921Y-9956421D02*
G75*
G02*
X18343921Y-9956421I12500J0D01*
G01*
X18343921Y-10476421D02*
G75*
G02*
X18318921Y-10476421I-12500J0D01*
G01*
X18318921Y-10476421D02*
G75*
G02*
X18343921Y-10476421I12500J0D01*
G01*
X18362500Y-11000000D02*
G75*
G02*
X18337500Y-11000000I-12500J0D01*
G01*
X18337500Y-11000000D02*
G75*
G02*
X18362500Y-11000000I12500J0D01*
G01*
X18368921Y-10541421D02*
G75*
G02*
X18343921Y-10541421I-12500J0D01*
G01*
X18343921Y-10541421D02*
G75*
G02*
X18368921Y-10541421I12500J0D01*
G01*
X18387500Y-8200000D02*
G75*
G02*
X18362500Y-8200000I-12500J0D01*
G01*
X18362500Y-8200000D02*
G75*
G02*
X18387500Y-8200000I12500J0D01*
G01*
X18403921Y-10016421D02*
G75*
G02*
X18378921Y-10016421I-12500J0D01*
G01*
X18378921Y-10016421D02*
G75*
G02*
X18403921Y-10016421I12500J0D01*
G01*
X18403921Y-10116421D02*
G75*
G02*
X18378921Y-10116421I-12500J0D01*
G01*
X18378921Y-10116421D02*
G75*
G02*
X18403921Y-10116421I12500J0D01*
G01*
X18418921Y-10541421D02*
G75*
G02*
X18393921Y-10541421I-12500J0D01*
G01*
X18393921Y-10541421D02*
G75*
G02*
X18418921Y-10541421I12500J0D01*
G01*
X18437500Y-8975000D02*
G75*
G02*
X18412500Y-8975000I-12500J0D01*
G01*
X18412500Y-8975000D02*
G75*
G02*
X18437500Y-8975000I12500J0D01*
G01*
X18437500Y-11000000D02*
G75*
G02*
X18412500Y-11000000I-12500J0D01*
G01*
X18412500Y-11000000D02*
G75*
G02*
X18437500Y-11000000I12500J0D01*
G01*
X18443921Y-9568921D02*
G75*
G02*
X18418921Y-9568921I-12500J0D01*
G01*
X18418921Y-9568921D02*
G75*
G02*
X18443921Y-9568921I12500J0D01*
G01*
X18443921Y-9741421D02*
G75*
G02*
X18418921Y-9741421I-12500J0D01*
G01*
X18418921Y-9741421D02*
G75*
G02*
X18443921Y-9741421I12500J0D01*
G01*
X18443921Y-10691421D02*
G75*
G02*
X18418921Y-10691421I-12500J0D01*
G01*
X18418921Y-10691421D02*
G75*
G02*
X18443921Y-10691421I12500J0D01*
G01*
X18443921Y-10863921D02*
G75*
G02*
X18418921Y-10863921I-12500J0D01*
G01*
X18418921Y-10863921D02*
G75*
G02*
X18443921Y-10863921I12500J0D01*
G01*
X18468921Y-9941421D02*
G75*
G02*
X18443921Y-9941421I-12500J0D01*
G01*
X18443921Y-9941421D02*
G75*
G02*
X18468921Y-9941421I12500J0D01*
G01*
X18468921Y-10241421D02*
G75*
G02*
X18443921Y-10241421I-12500J0D01*
G01*
X18443921Y-10241421D02*
G75*
G02*
X18468921Y-10241421I12500J0D01*
G01*
X18468921Y-10341421D02*
G75*
G02*
X18443921Y-10341421I-12500J0D01*
G01*
X18443921Y-10341421D02*
G75*
G02*
X18468921Y-10341421I12500J0D01*
G01*
X18528921Y-8541421D02*
G75*
G02*
X18503921Y-8541421I-12500J0D01*
G01*
X18503921Y-8541421D02*
G75*
G02*
X18528921Y-8541421I12500J0D01*
G01*
X18552500Y-9810000D02*
G75*
G02*
X18527500Y-9810000I-12500J0D01*
G01*
X18527500Y-9810000D02*
G75*
G02*
X18552500Y-9810000I12500J0D01*
G01*
X18618921Y-10216421D02*
G75*
G02*
X18593921Y-10216421I-12500J0D01*
G01*
X18593921Y-10216421D02*
G75*
G02*
X18618921Y-10216421I12500J0D01*
G01*
X18621421Y-9916421D02*
G75*
G02*
X18596421Y-9916421I-12500J0D01*
G01*
X18596421Y-9916421D02*
G75*
G02*
X18621421Y-9916421I12500J0D01*
G01*
X18621421Y-10516421D02*
G75*
G02*
X18596421Y-10516421I-12500J0D01*
G01*
X18596421Y-10516421D02*
G75*
G02*
X18621421Y-10516421I12500J0D01*
G01*
X18662500Y-8200000D02*
G75*
G02*
X18637500Y-8200000I-12500J0D01*
G01*
X18637500Y-8200000D02*
G75*
G02*
X18662500Y-8200000I12500J0D01*
G01*
X18737500Y-8975000D02*
G75*
G02*
X18712500Y-8975000I-12500J0D01*
G01*
X18712500Y-8975000D02*
G75*
G02*
X18737500Y-8975000I12500J0D01*
G01*
X18791421Y-10216421D02*
G75*
G02*
X18766421Y-10216421I-12500J0D01*
G01*
X18766421Y-10216421D02*
G75*
G02*
X18791421Y-10216421I12500J0D01*
G01*
X18793921Y-9916421D02*
G75*
G02*
X18768921Y-9916421I-12500J0D01*
G01*
X18768921Y-9916421D02*
G75*
G02*
X18793921Y-9916421I12500J0D01*
G01*
X18793921Y-10516421D02*
G75*
G02*
X18768921Y-10516421I-12500J0D01*
G01*
X18768921Y-10516421D02*
G75*
G02*
X18793921Y-10516421I12500J0D01*
G01*
X18803921Y-8541421D02*
G75*
G02*
X18778921Y-8541421I-12500J0D01*
G01*
X18778921Y-8541421D02*
G75*
G02*
X18803921Y-8541421I12500J0D01*
G01*
X18803921Y-10866421D02*
G75*
G02*
X18778921Y-10866421I-12500J0D01*
G01*
X18778921Y-10866421D02*
G75*
G02*
X18803921Y-10866421I12500J0D01*
G01*
X18803921Y-11041421D02*
G75*
G02*
X18778921Y-11041421I-12500J0D01*
G01*
X18778921Y-11041421D02*
G75*
G02*
X18803921Y-11041421I12500J0D01*
G01*
X19012500Y-9975000D02*
G75*
G02*
X18987500Y-9975000I-12500J0D01*
G01*
X18987500Y-9975000D02*
G75*
G02*
X19012500Y-9975000I12500J0D01*
G01*
X19078921Y-8541421D02*
G75*
G02*
X19053921Y-8541421I-12500J0D01*
G01*
X19053921Y-8541421D02*
G75*
G02*
X19078921Y-8541421I12500J0D01*
G01*
X19197000Y-9937500D02*
G75*
G02*
X19172000Y-9937500I-12500J0D01*
G01*
X19172000Y-9937500D02*
G75*
G02*
X19197000Y-9937500I12500J0D01*
G01*
X19262500Y-9208750D02*
G75*
G02*
X19237500Y-9208750I-12500J0D01*
G01*
X19237500Y-9208750D02*
G75*
G02*
X19262500Y-9208750I12500J0D01*
G01*
X19578000Y-10462500D02*
G75*
G02*
X19553000Y-10462500I-12500J0D01*
G01*
X19553000Y-10462500D02*
G75*
G02*
X19578000Y-10462500I12500J0D01*
G01*
X19737500Y-10300000D02*
G75*
G02*
X19712500Y-10300000I-12500J0D01*
G01*
X19712500Y-10300000D02*
G75*
G02*
X19737500Y-10300000I12500J0D01*
G01*
X19737500Y-10472500D02*
G75*
G02*
X19712500Y-10472500I-12500J0D01*
G01*
X19712500Y-10472500D02*
G75*
G02*
X19737500Y-10472500I12500J0D01*
G01*
X19812500Y-8725000D02*
G75*
G02*
X19787500Y-8725000I-12500J0D01*
G01*
X19787500Y-8725000D02*
G75*
G02*
X19812500Y-8725000I12500J0D01*
G01*
X19887500Y-10300000D02*
G75*
G02*
X19862500Y-10300000I-12500J0D01*
G01*
X19862500Y-10300000D02*
G75*
G02*
X19887500Y-10300000I12500J0D01*
G01*
X19887500Y-10472500D02*
G75*
G02*
X19862500Y-10472500I-12500J0D01*
G01*
X19862500Y-10472500D02*
G75*
G02*
X19887500Y-10472500I12500J0D01*
G01*
X20137500Y-10875000D02*
G75*
G02*
X20112500Y-10875000I-12500J0D01*
G01*
X20112500Y-10875000D02*
G75*
G02*
X20137500Y-10875000I12500J0D01*
G01*
X10250000Y-11245000D02*
X10250000Y-11295000D01*
X10225000Y-11270000D02*
X10275000Y-11270000D01*
X10816421Y-8516421D02*
X10816421Y-8566421D01*
X10791421Y-8541421D02*
X10841421Y-8541421D01*
X11956421Y-9818921D02*
X11956421Y-9868921D01*
X11931421Y-9843921D02*
X11981421Y-9843921D01*
X12471421Y-12041421D02*
X12471421Y-12091421D01*
X12446421Y-12066421D02*
X12496421Y-12066421D01*
X13341421Y-7941421D02*
X13341421Y-7991421D01*
X13316421Y-7966421D02*
X13366421Y-7966421D01*
X14141421Y-7941421D02*
X14141421Y-7991421D01*
X14116421Y-7966421D02*
X14166421Y-7966421D01*
X15140000Y-10765000D02*
X15140000Y-10815000D01*
X15115000Y-10790000D02*
X15165000Y-10790000D01*
X15250000Y-9105000D02*
X15250000Y-9155000D01*
X15225000Y-9130000D02*
X15275000Y-9130000D01*
X15520000Y-8725000D02*
X15520000Y-8775000D01*
X15495000Y-8750000D02*
X15545000Y-8750000D01*
X15540000Y-10565000D02*
X15540000Y-10615000D01*
X15515000Y-10590000D02*
X15565000Y-10590000D01*
X16330000Y-10495000D02*
X16330000Y-10545000D01*
X16305000Y-10520000D02*
X16355000Y-10520000D01*
X18000000Y-9325000D02*
X18000000Y-9375000D01*
X17975000Y-9350000D02*
X18025000Y-9350000D01*
X19380000Y-10985000D02*
X19380000Y-11035000D01*
X19355000Y-11010000D02*
X19405000Y-11010000D01*
X19700000Y-11375000D02*
X19700000Y-11425000D01*
X19675000Y-11400000D02*
X19725000Y-11400000D01*
X17828285Y-7985047D02*
X17828285Y-7928478D01*
X17771716Y-7928478D01*
X17771716Y-7985047D01*
X17828285Y-7985047D01*
X17828285Y-8235047D02*
X17828285Y-8178478D01*
X17771716Y-8178478D01*
X17771716Y-8235047D01*
X17828285Y-8235047D01*
X9900000Y-8971000D02*
X9950000Y-8921000D01*
X9900000Y-8871000D01*
X9850000Y-8921000D01*
X9900000Y-8971000D01*
X9900000Y-9225000D02*
X9950000Y-9175000D01*
X9900000Y-9125000D01*
X9850000Y-9175000D01*
X9900000Y-9225000D01*
X9900000Y-9942000D02*
X9950000Y-9892000D01*
X9900000Y-9842000D01*
X9850000Y-9892000D01*
X9900000Y-9942000D01*
X9900000Y-10196000D02*
X9950000Y-10146000D01*
X9900000Y-10096000D01*
X9850000Y-10146000D01*
X9900000Y-10196000D01*
X9900000Y-10450000D02*
X9950000Y-10400000D01*
X9900000Y-10350000D01*
X9850000Y-10400000D01*
X9900000Y-10450000D01*
X9900000Y-11173000D02*
X9950000Y-11123000D01*
X9900000Y-11073000D01*
X9850000Y-11123000D01*
X9900000Y-11173000D01*
X9900000Y-11427000D02*
X9950000Y-11377000D01*
X9900000Y-11327000D01*
X9850000Y-11377000D01*
X9900000Y-11427000D01*
X11546000Y-7950000D02*
X11596000Y-7900000D01*
X11546000Y-7850000D01*
X11496000Y-7900000D01*
X11546000Y-7950000D01*
X11800000Y-7950000D02*
X11850000Y-7900000D01*
X11800000Y-7850000D01*
X11750000Y-7900000D01*
X11800000Y-7950000D01*
X11846000Y-12125000D02*
X11896000Y-12075000D01*
X11846000Y-12025000D01*
X11796000Y-12075000D01*
X11846000Y-12125000D01*
X12100000Y-12125000D02*
X12150000Y-12075000D01*
X12100000Y-12025000D01*
X12050000Y-12075000D01*
X12100000Y-12125000D01*
X14946000Y-12121000D02*
X14996000Y-12071000D01*
X14946000Y-12021000D01*
X14896000Y-12071000D01*
X14946000Y-12121000D01*
X15200000Y-12121000D02*
X15250000Y-12071000D01*
X15200000Y-12021000D01*
X15150000Y-12071000D01*
X15200000Y-12121000D01*
X16046000Y-7975000D02*
X16096000Y-7925000D01*
X16046000Y-7875000D01*
X15996000Y-7925000D01*
X16046000Y-7975000D01*
X16046000Y-12120000D02*
X16096000Y-12070000D01*
X16046000Y-12020000D01*
X15996000Y-12070000D01*
X16046000Y-12120000D01*
X16300000Y-7975000D02*
X16350000Y-7925000D01*
X16300000Y-7875000D01*
X16250000Y-7925000D01*
X16300000Y-7975000D01*
X16300000Y-12120000D02*
X16350000Y-12070000D01*
X16300000Y-12020000D01*
X16250000Y-12070000D01*
X16300000Y-12120000D01*
X16921000Y-7975000D02*
X16971000Y-7925000D01*
X16921000Y-7875000D01*
X16871000Y-7925000D01*
X16921000Y-7975000D01*
X17175000Y-7975000D02*
X17225000Y-7925000D01*
X17175000Y-7875000D01*
X17125000Y-7925000D01*
X17175000Y-7975000D01*
X18010000Y-12290000D02*
X18060000Y-12240000D01*
X18010000Y-12190000D01*
X17960000Y-12240000D01*
X18010000Y-12290000D01*
X18264000Y-12290000D02*
X18314000Y-12240000D01*
X18264000Y-12190000D01*
X18214000Y-12240000D01*
X18264000Y-12290000D01*
X18434000Y-7975000D02*
X18484000Y-7925000D01*
X18434000Y-7875000D01*
X18384000Y-7925000D01*
X18434000Y-7975000D01*
X18518000Y-12290000D02*
X18568000Y-12240000D01*
X18518000Y-12190000D01*
X18468000Y-12240000D01*
X18518000Y-12290000D01*
X18688000Y-7975000D02*
X18738000Y-7925000D01*
X18688000Y-7875000D01*
X18638000Y-7925000D01*
X18688000Y-7975000D01*
X18772000Y-12290000D02*
X18822000Y-12240000D01*
X18772000Y-12190000D01*
X18722000Y-12240000D01*
X18772000Y-12290000D01*
X18942000Y-7975000D02*
X18992000Y-7925000D01*
X18942000Y-7875000D01*
X18892000Y-7925000D01*
X18942000Y-7975000D01*
X19026000Y-12290000D02*
X19076000Y-12240000D01*
X19026000Y-12190000D01*
X18976000Y-12240000D01*
X19026000Y-12290000D01*
X19196000Y-7975000D02*
X19246000Y-7925000D01*
X19196000Y-7875000D01*
X19146000Y-7925000D01*
X19196000Y-7975000D01*
X19280000Y-11453500D02*
X19330000Y-11403500D01*
X19280000Y-11353500D01*
X19230000Y-11403500D01*
X19280000Y-11453500D01*
X19280000Y-11707500D02*
X19330000Y-11657500D01*
X19280000Y-11607500D01*
X19230000Y-11657500D01*
X19280000Y-11707500D01*
X19280000Y-12290000D02*
X19330000Y-12240000D01*
X19280000Y-12190000D01*
X19230000Y-12240000D01*
X19280000Y-12290000D01*
X19450000Y-7975000D02*
X19500000Y-7925000D01*
X19450000Y-7875000D01*
X19400000Y-7925000D01*
X19450000Y-7975000D01*
D13*
X19410000Y-9235000D02*
X19540000Y-9365000D01*
X19540000Y-9235000D02*
X19410000Y-9365000D01*
X19540000Y-9300000D02*
G75*
G02*
X19410000Y-9300000I-65000J0D01*
G01*
X19410000Y-9300000D02*
G75*
G02*
X19540000Y-9300000I65000J0D01*
G01*
X20060000Y-9235000D02*
X20190000Y-9365000D01*
X20190000Y-9235000D02*
X20060000Y-9365000D01*
X20190000Y-9300000D02*
G75*
G02*
X20060000Y-9300000I-65000J0D01*
G01*
X20060000Y-9300000D02*
G75*
G02*
X20190000Y-9300000I65000J0D01*
G01*
D14*
X9731421Y-7731421D02*
X10051421Y-8051421D01*
X10051421Y-7731421D02*
X9731421Y-8051421D01*
X9891421Y-7731421D02*
X9891421Y-8051421D01*
X9731421Y-7891421D02*
X10051421Y-7891421D01*
X9731421Y-11931421D02*
X10051421Y-12251421D01*
X10051421Y-11931421D02*
X9731421Y-12251421D01*
X9891421Y-11931421D02*
X9891421Y-12251421D01*
X9731421Y-12091421D02*
X10051421Y-12091421D01*
X19931421Y-7731421D02*
X20251421Y-8051421D01*
X20251421Y-7731421D02*
X19931421Y-8051421D01*
X20091421Y-7731421D02*
X20091421Y-8051421D01*
X19931421Y-7891421D02*
X20251421Y-7891421D01*
X19931421Y-11931421D02*
X20251421Y-12251421D01*
X20251421Y-11931421D02*
X19931421Y-12251421D01*
X20091421Y-11931421D02*
X20091421Y-12251421D01*
X19931421Y-12091421D02*
X20251421Y-12091421D01*
D11*
X9749698Y-12805405D02*
X9749698Y-12605405D01*
X9749698Y-12605405D02*
X9797317Y-12605405D01*
X9797317Y-12605405D02*
X9825889Y-12614929D01*
X9825889Y-12614929D02*
X9844936Y-12633977D01*
X9844936Y-12633977D02*
X9854460Y-12653024D01*
X9854460Y-12653024D02*
X9863984Y-12691119D01*
X9863984Y-12691119D02*
X9863984Y-12719691D01*
X9863984Y-12719691D02*
X9854460Y-12757786D01*
X9854460Y-12757786D02*
X9844936Y-12776834D01*
X9844936Y-12776834D02*
X9825889Y-12795881D01*
X9825889Y-12795881D02*
X9797317Y-12805405D01*
X9797317Y-12805405D02*
X9749698Y-12805405D01*
X9949698Y-12805405D02*
X9949698Y-12672072D01*
X9949698Y-12710167D02*
X9959222Y-12691119D01*
X9959222Y-12691119D02*
X9968746Y-12681596D01*
X9968746Y-12681596D02*
X9987793Y-12672072D01*
X9987793Y-12672072D02*
X10006841Y-12672072D01*
X10073508Y-12805405D02*
X10073508Y-12672072D01*
X10073508Y-12605405D02*
X10063984Y-12614929D01*
X10063984Y-12614929D02*
X10073508Y-12624453D01*
X10073508Y-12624453D02*
X10083032Y-12614929D01*
X10083032Y-12614929D02*
X10073508Y-12605405D01*
X10073508Y-12605405D02*
X10073508Y-12624453D01*
X10197317Y-12805405D02*
X10178270Y-12795881D01*
X10178270Y-12795881D02*
X10168746Y-12776834D01*
X10168746Y-12776834D02*
X10168746Y-12605405D01*
X10302079Y-12805405D02*
X10283032Y-12795881D01*
X10283032Y-12795881D02*
X10273508Y-12776834D01*
X10273508Y-12776834D02*
X10273508Y-12605405D01*
X10530651Y-12805405D02*
X10530651Y-12605405D01*
X10530651Y-12605405D02*
X10597317Y-12748262D01*
X10597317Y-12748262D02*
X10663984Y-12605405D01*
X10663984Y-12605405D02*
X10663984Y-12805405D01*
X10844936Y-12805405D02*
X10844936Y-12700643D01*
X10844936Y-12700643D02*
X10835413Y-12681596D01*
X10835413Y-12681596D02*
X10816365Y-12672072D01*
X10816365Y-12672072D02*
X10778270Y-12672072D01*
X10778270Y-12672072D02*
X10759222Y-12681596D01*
X10844936Y-12795881D02*
X10825889Y-12805405D01*
X10825889Y-12805405D02*
X10778270Y-12805405D01*
X10778270Y-12805405D02*
X10759222Y-12795881D01*
X10759222Y-12795881D02*
X10749698Y-12776834D01*
X10749698Y-12776834D02*
X10749698Y-12757786D01*
X10749698Y-12757786D02*
X10759222Y-12738738D01*
X10759222Y-12738738D02*
X10778270Y-12729215D01*
X10778270Y-12729215D02*
X10825889Y-12729215D01*
X10825889Y-12729215D02*
X10844936Y-12719691D01*
X10940174Y-12672072D02*
X10940174Y-12872072D01*
X10940174Y-12681596D02*
X10959222Y-12672072D01*
X10959222Y-12672072D02*
X10997317Y-12672072D01*
X10997317Y-12672072D02*
X11016365Y-12681596D01*
X11016365Y-12681596D02*
X11025889Y-12691119D01*
X11025889Y-12691119D02*
X11035413Y-12710167D01*
X11035413Y-12710167D02*
X11035413Y-12767310D01*
X11035413Y-12767310D02*
X11025889Y-12786357D01*
X11025889Y-12786357D02*
X11016365Y-12795881D01*
X11016365Y-12795881D02*
X10997317Y-12805405D01*
X10997317Y-12805405D02*
X10959222Y-12805405D01*
X10959222Y-12805405D02*
X10940174Y-12795881D01*
X11121127Y-12786357D02*
X11130651Y-12795881D01*
X11130651Y-12795881D02*
X11121127Y-12805405D01*
X11121127Y-12805405D02*
X11111603Y-12795881D01*
X11111603Y-12795881D02*
X11121127Y-12786357D01*
X11121127Y-12786357D02*
X11121127Y-12805405D01*
X11121127Y-12681596D02*
X11130651Y-12691119D01*
X11130651Y-12691119D02*
X11121127Y-12700643D01*
X11121127Y-12700643D02*
X11111603Y-12691119D01*
X11111603Y-12691119D02*
X11121127Y-12681596D01*
X11121127Y-12681596D02*
X11121127Y-12700643D01*
D12*
X9473921Y-13126421D02*
X9488921Y-13141421D01*
X9488921Y-13126421D02*
X9473921Y-13141421D01*
D11*
X9787793Y-13025405D02*
X9806841Y-13025405D01*
X9806841Y-13025405D02*
X9825889Y-13034929D01*
X9825889Y-13034929D02*
X9835413Y-13044453D01*
X9835413Y-13044453D02*
X9844936Y-13063500D01*
X9844936Y-13063500D02*
X9854460Y-13101596D01*
X9854460Y-13101596D02*
X9854460Y-13149215D01*
X9854460Y-13149215D02*
X9844936Y-13187310D01*
X9844936Y-13187310D02*
X9835413Y-13206357D01*
X9835413Y-13206357D02*
X9825889Y-13215881D01*
X9825889Y-13215881D02*
X9806841Y-13225405D01*
X9806841Y-13225405D02*
X9787793Y-13225405D01*
X9787793Y-13225405D02*
X9768746Y-13215881D01*
X9768746Y-13215881D02*
X9759222Y-13206357D01*
X9759222Y-13206357D02*
X9749698Y-13187310D01*
X9749698Y-13187310D02*
X9740174Y-13149215D01*
X9740174Y-13149215D02*
X9740174Y-13101596D01*
X9740174Y-13101596D02*
X9749698Y-13063500D01*
X9749698Y-13063500D02*
X9759222Y-13044453D01*
X9759222Y-13044453D02*
X9768746Y-13034929D01*
X9768746Y-13034929D02*
X9787793Y-13025405D01*
X9940174Y-13206357D02*
X9949698Y-13215881D01*
X9949698Y-13215881D02*
X9940174Y-13225405D01*
X9940174Y-13225405D02*
X9930651Y-13215881D01*
X9930651Y-13215881D02*
X9940174Y-13206357D01*
X9940174Y-13206357D02*
X9940174Y-13225405D01*
X10140174Y-13225405D02*
X10025889Y-13225405D01*
X10083032Y-13225405D02*
X10083032Y-13025405D01*
X10083032Y-13025405D02*
X10063984Y-13053977D01*
X10063984Y-13053977D02*
X10044936Y-13073024D01*
X10044936Y-13073024D02*
X10025889Y-13082548D01*
X10321127Y-13025405D02*
X10225889Y-13025405D01*
X10225889Y-13025405D02*
X10216365Y-13120643D01*
X10216365Y-13120643D02*
X10225889Y-13111119D01*
X10225889Y-13111119D02*
X10244936Y-13101596D01*
X10244936Y-13101596D02*
X10292555Y-13101596D01*
X10292555Y-13101596D02*
X10311603Y-13111119D01*
X10311603Y-13111119D02*
X10321127Y-13120643D01*
X10321127Y-13120643D02*
X10330651Y-13139691D01*
X10330651Y-13139691D02*
X10330651Y-13187310D01*
X10330651Y-13187310D02*
X10321127Y-13206357D01*
X10321127Y-13206357D02*
X10311603Y-13215881D01*
X10311603Y-13215881D02*
X10292555Y-13225405D01*
X10292555Y-13225405D02*
X10244936Y-13225405D01*
X10244936Y-13225405D02*
X10225889Y-13215881D01*
X10225889Y-13215881D02*
X10216365Y-13206357D01*
X10454460Y-13025405D02*
X10473508Y-13025405D01*
X10473508Y-13025405D02*
X10492555Y-13034929D01*
X10492555Y-13034929D02*
X10502079Y-13044453D01*
X10502079Y-13044453D02*
X10511603Y-13063500D01*
X10511603Y-13063500D02*
X10521127Y-13101596D01*
X10521127Y-13101596D02*
X10521127Y-13149215D01*
X10521127Y-13149215D02*
X10511603Y-13187310D01*
X10511603Y-13187310D02*
X10502079Y-13206357D01*
X10502079Y-13206357D02*
X10492555Y-13215881D01*
X10492555Y-13215881D02*
X10473508Y-13225405D01*
X10473508Y-13225405D02*
X10454460Y-13225405D01*
X10454460Y-13225405D02*
X10435413Y-13215881D01*
X10435413Y-13215881D02*
X10425889Y-13206357D01*
X10425889Y-13206357D02*
X10416365Y-13187310D01*
X10416365Y-13187310D02*
X10406841Y-13149215D01*
X10406841Y-13149215D02*
X10406841Y-13101596D01*
X10406841Y-13101596D02*
X10416365Y-13063500D01*
X10416365Y-13063500D02*
X10425889Y-13044453D01*
X10425889Y-13044453D02*
X10435413Y-13034929D01*
X10435413Y-13034929D02*
X10454460Y-13025405D01*
X10606841Y-13225405D02*
X10606841Y-13092072D01*
X10606841Y-13111119D02*
X10616365Y-13101596D01*
X10616365Y-13101596D02*
X10635413Y-13092072D01*
X10635413Y-13092072D02*
X10663984Y-13092072D01*
X10663984Y-13092072D02*
X10683032Y-13101596D01*
X10683032Y-13101596D02*
X10692555Y-13120643D01*
X10692555Y-13120643D02*
X10692555Y-13225405D01*
X10692555Y-13120643D02*
X10702079Y-13101596D01*
X10702079Y-13101596D02*
X10721127Y-13092072D01*
X10721127Y-13092072D02*
X10749698Y-13092072D01*
X10749698Y-13092072D02*
X10768746Y-13101596D01*
X10768746Y-13101596D02*
X10778270Y-13120643D01*
X10778270Y-13120643D02*
X10778270Y-13225405D01*
X10873508Y-13225405D02*
X10873508Y-13092072D01*
X10873508Y-13111119D02*
X10883032Y-13101596D01*
X10883032Y-13101596D02*
X10902079Y-13092072D01*
X10902079Y-13092072D02*
X10930651Y-13092072D01*
X10930651Y-13092072D02*
X10949698Y-13101596D01*
X10949698Y-13101596D02*
X10959222Y-13120643D01*
X10959222Y-13120643D02*
X10959222Y-13225405D01*
X10959222Y-13120643D02*
X10968746Y-13101596D01*
X10968746Y-13101596D02*
X10987794Y-13092072D01*
X10987794Y-13092072D02*
X11016365Y-13092072D01*
X11016365Y-13092072D02*
X11035413Y-13101596D01*
X11035413Y-13101596D02*
X11044936Y-13120643D01*
X11044936Y-13120643D02*
X11044936Y-13225405D01*
X11435413Y-13015881D02*
X11263984Y-13273024D01*
X11692555Y-13025405D02*
X11711603Y-13025405D01*
X11711603Y-13025405D02*
X11730651Y-13034929D01*
X11730651Y-13034929D02*
X11740175Y-13044453D01*
X11740175Y-13044453D02*
X11749698Y-13063500D01*
X11749698Y-13063500D02*
X11759222Y-13101596D01*
X11759222Y-13101596D02*
X11759222Y-13149215D01*
X11759222Y-13149215D02*
X11749698Y-13187310D01*
X11749698Y-13187310D02*
X11740175Y-13206357D01*
X11740175Y-13206357D02*
X11730651Y-13215881D01*
X11730651Y-13215881D02*
X11711603Y-13225405D01*
X11711603Y-13225405D02*
X11692555Y-13225405D01*
X11692555Y-13225405D02*
X11673508Y-13215881D01*
X11673508Y-13215881D02*
X11663984Y-13206357D01*
X11663984Y-13206357D02*
X11654460Y-13187310D01*
X11654460Y-13187310D02*
X11644936Y-13149215D01*
X11644936Y-13149215D02*
X11644936Y-13101596D01*
X11644936Y-13101596D02*
X11654460Y-13063500D01*
X11654460Y-13063500D02*
X11663984Y-13044453D01*
X11663984Y-13044453D02*
X11673508Y-13034929D01*
X11673508Y-13034929D02*
X11692555Y-13025405D01*
X11844936Y-13206357D02*
X11854460Y-13215881D01*
X11854460Y-13215881D02*
X11844936Y-13225405D01*
X11844936Y-13225405D02*
X11835413Y-13215881D01*
X11835413Y-13215881D02*
X11844936Y-13206357D01*
X11844936Y-13206357D02*
X11844936Y-13225405D01*
X11978270Y-13025405D02*
X11997317Y-13025405D01*
X11997317Y-13025405D02*
X12016365Y-13034929D01*
X12016365Y-13034929D02*
X12025889Y-13044453D01*
X12025889Y-13044453D02*
X12035413Y-13063500D01*
X12035413Y-13063500D02*
X12044936Y-13101596D01*
X12044936Y-13101596D02*
X12044936Y-13149215D01*
X12044936Y-13149215D02*
X12035413Y-13187310D01*
X12035413Y-13187310D02*
X12025889Y-13206357D01*
X12025889Y-13206357D02*
X12016365Y-13215881D01*
X12016365Y-13215881D02*
X11997317Y-13225405D01*
X11997317Y-13225405D02*
X11978270Y-13225405D01*
X11978270Y-13225405D02*
X11959222Y-13215881D01*
X11959222Y-13215881D02*
X11949698Y-13206357D01*
X11949698Y-13206357D02*
X11940175Y-13187310D01*
X11940175Y-13187310D02*
X11930651Y-13149215D01*
X11930651Y-13149215D02*
X11930651Y-13101596D01*
X11930651Y-13101596D02*
X11940175Y-13063500D01*
X11940175Y-13063500D02*
X11949698Y-13044453D01*
X11949698Y-13044453D02*
X11959222Y-13034929D01*
X11959222Y-13034929D02*
X11978270Y-13025405D01*
X12168746Y-13025405D02*
X12187794Y-13025405D01*
X12187794Y-13025405D02*
X12206841Y-13034929D01*
X12206841Y-13034929D02*
X12216365Y-13044453D01*
X12216365Y-13044453D02*
X12225889Y-13063500D01*
X12225889Y-13063500D02*
X12235413Y-13101596D01*
X12235413Y-13101596D02*
X12235413Y-13149215D01*
X12235413Y-13149215D02*
X12225889Y-13187310D01*
X12225889Y-13187310D02*
X12216365Y-13206357D01*
X12216365Y-13206357D02*
X12206841Y-13215881D01*
X12206841Y-13215881D02*
X12187794Y-13225405D01*
X12187794Y-13225405D02*
X12168746Y-13225405D01*
X12168746Y-13225405D02*
X12149698Y-13215881D01*
X12149698Y-13215881D02*
X12140175Y-13206357D01*
X12140175Y-13206357D02*
X12130651Y-13187310D01*
X12130651Y-13187310D02*
X12121127Y-13149215D01*
X12121127Y-13149215D02*
X12121127Y-13101596D01*
X12121127Y-13101596D02*
X12130651Y-13063500D01*
X12130651Y-13063500D02*
X12140175Y-13044453D01*
X12140175Y-13044453D02*
X12149698Y-13034929D01*
X12149698Y-13034929D02*
X12168746Y-13025405D01*
X12416365Y-13025405D02*
X12321127Y-13025405D01*
X12321127Y-13025405D02*
X12311603Y-13120643D01*
X12311603Y-13120643D02*
X12321127Y-13111119D01*
X12321127Y-13111119D02*
X12340175Y-13101596D01*
X12340175Y-13101596D02*
X12387794Y-13101596D01*
X12387794Y-13101596D02*
X12406841Y-13111119D01*
X12406841Y-13111119D02*
X12416365Y-13120643D01*
X12416365Y-13120643D02*
X12425889Y-13139691D01*
X12425889Y-13139691D02*
X12425889Y-13187310D01*
X12425889Y-13187310D02*
X12416365Y-13206357D01*
X12416365Y-13206357D02*
X12406841Y-13215881D01*
X12406841Y-13215881D02*
X12387794Y-13225405D01*
X12387794Y-13225405D02*
X12340175Y-13225405D01*
X12340175Y-13225405D02*
X12321127Y-13215881D01*
X12321127Y-13215881D02*
X12311603Y-13206357D01*
X12521127Y-13225405D02*
X12559222Y-13225405D01*
X12559222Y-13225405D02*
X12578270Y-13215881D01*
X12578270Y-13215881D02*
X12587794Y-13206357D01*
X12587794Y-13206357D02*
X12606841Y-13177786D01*
X12606841Y-13177786D02*
X12616365Y-13139691D01*
X12616365Y-13139691D02*
X12616365Y-13063500D01*
X12616365Y-13063500D02*
X12606841Y-13044453D01*
X12606841Y-13044453D02*
X12597317Y-13034929D01*
X12597317Y-13034929D02*
X12578270Y-13025405D01*
X12578270Y-13025405D02*
X12540175Y-13025405D01*
X12540175Y-13025405D02*
X12521127Y-13034929D01*
X12521127Y-13034929D02*
X12511603Y-13044453D01*
X12511603Y-13044453D02*
X12502079Y-13063500D01*
X12502079Y-13063500D02*
X12502079Y-13111119D01*
X12502079Y-13111119D02*
X12511603Y-13130167D01*
X12511603Y-13130167D02*
X12521127Y-13139691D01*
X12521127Y-13139691D02*
X12540175Y-13149215D01*
X12540175Y-13149215D02*
X12578270Y-13149215D01*
X12578270Y-13149215D02*
X12597317Y-13139691D01*
X12597317Y-13139691D02*
X12606841Y-13130167D01*
X12606841Y-13130167D02*
X12616365Y-13111119D01*
X12692556Y-13025405D02*
X12692556Y-13063500D01*
X12768746Y-13025405D02*
X12768746Y-13063500D01*
X13063984Y-13301596D02*
X13054460Y-13292072D01*
X13054460Y-13292072D02*
X13035413Y-13263500D01*
X13035413Y-13263500D02*
X13025889Y-13244453D01*
X13025889Y-13244453D02*
X13016365Y-13215881D01*
X13016365Y-13215881D02*
X13006841Y-13168262D01*
X13006841Y-13168262D02*
X13006841Y-13130167D01*
X13006841Y-13130167D02*
X13016365Y-13082548D01*
X13016365Y-13082548D02*
X13025889Y-13053977D01*
X13025889Y-13053977D02*
X13035413Y-13034929D01*
X13035413Y-13034929D02*
X13054460Y-13006357D01*
X13054460Y-13006357D02*
X13063984Y-12996834D01*
X13130651Y-13044453D02*
X13140175Y-13034929D01*
X13140175Y-13034929D02*
X13159222Y-13025405D01*
X13159222Y-13025405D02*
X13206841Y-13025405D01*
X13206841Y-13025405D02*
X13225889Y-13034929D01*
X13225889Y-13034929D02*
X13235413Y-13044453D01*
X13235413Y-13044453D02*
X13244937Y-13063500D01*
X13244937Y-13063500D02*
X13244937Y-13082548D01*
X13244937Y-13082548D02*
X13235413Y-13111119D01*
X13235413Y-13111119D02*
X13121127Y-13225405D01*
X13121127Y-13225405D02*
X13244937Y-13225405D01*
X13483032Y-13225405D02*
X13483032Y-13025405D01*
X13568746Y-13225405D02*
X13568746Y-13120643D01*
X13568746Y-13120643D02*
X13559222Y-13101596D01*
X13559222Y-13101596D02*
X13540175Y-13092072D01*
X13540175Y-13092072D02*
X13511603Y-13092072D01*
X13511603Y-13092072D02*
X13492556Y-13101596D01*
X13492556Y-13101596D02*
X13483032Y-13111119D01*
X13692556Y-13225405D02*
X13673508Y-13215881D01*
X13673508Y-13215881D02*
X13663984Y-13206357D01*
X13663984Y-13206357D02*
X13654460Y-13187310D01*
X13654460Y-13187310D02*
X13654460Y-13130167D01*
X13654460Y-13130167D02*
X13663984Y-13111119D01*
X13663984Y-13111119D02*
X13673508Y-13101596D01*
X13673508Y-13101596D02*
X13692556Y-13092072D01*
X13692556Y-13092072D02*
X13721127Y-13092072D01*
X13721127Y-13092072D02*
X13740175Y-13101596D01*
X13740175Y-13101596D02*
X13749699Y-13111119D01*
X13749699Y-13111119D02*
X13759222Y-13130167D01*
X13759222Y-13130167D02*
X13759222Y-13187310D01*
X13759222Y-13187310D02*
X13749699Y-13206357D01*
X13749699Y-13206357D02*
X13740175Y-13215881D01*
X13740175Y-13215881D02*
X13721127Y-13225405D01*
X13721127Y-13225405D02*
X13692556Y-13225405D01*
X13873508Y-13225405D02*
X13854460Y-13215881D01*
X13854460Y-13215881D02*
X13844937Y-13196834D01*
X13844937Y-13196834D02*
X13844937Y-13025405D01*
X14025889Y-13215881D02*
X14006841Y-13225405D01*
X14006841Y-13225405D02*
X13968746Y-13225405D01*
X13968746Y-13225405D02*
X13949699Y-13215881D01*
X13949699Y-13215881D02*
X13940175Y-13196834D01*
X13940175Y-13196834D02*
X13940175Y-13120643D01*
X13940175Y-13120643D02*
X13949699Y-13101596D01*
X13949699Y-13101596D02*
X13968746Y-13092072D01*
X13968746Y-13092072D02*
X14006841Y-13092072D01*
X14006841Y-13092072D02*
X14025889Y-13101596D01*
X14025889Y-13101596D02*
X14035413Y-13120643D01*
X14035413Y-13120643D02*
X14035413Y-13139691D01*
X14035413Y-13139691D02*
X13940175Y-13158738D01*
X14111603Y-13215881D02*
X14130651Y-13225405D01*
X14130651Y-13225405D02*
X14168746Y-13225405D01*
X14168746Y-13225405D02*
X14187794Y-13215881D01*
X14187794Y-13215881D02*
X14197318Y-13196834D01*
X14197318Y-13196834D02*
X14197318Y-13187310D01*
X14197318Y-13187310D02*
X14187794Y-13168262D01*
X14187794Y-13168262D02*
X14168746Y-13158738D01*
X14168746Y-13158738D02*
X14140175Y-13158738D01*
X14140175Y-13158738D02*
X14121127Y-13149215D01*
X14121127Y-13149215D02*
X14111603Y-13130167D01*
X14111603Y-13130167D02*
X14111603Y-13120643D01*
X14111603Y-13120643D02*
X14121127Y-13101596D01*
X14121127Y-13101596D02*
X14140175Y-13092072D01*
X14140175Y-13092072D02*
X14168746Y-13092072D01*
X14168746Y-13092072D02*
X14187794Y-13101596D01*
X14263984Y-13301596D02*
X14273508Y-13292072D01*
X14273508Y-13292072D02*
X14292556Y-13263500D01*
X14292556Y-13263500D02*
X14302080Y-13244453D01*
X14302080Y-13244453D02*
X14311603Y-13215881D01*
X14311603Y-13215881D02*
X14321127Y-13168262D01*
X14321127Y-13168262D02*
X14321127Y-13130167D01*
X14321127Y-13130167D02*
X14311603Y-13082548D01*
X14311603Y-13082548D02*
X14302080Y-13053977D01*
X14302080Y-13053977D02*
X14292556Y-13034929D01*
X14292556Y-13034929D02*
X14273508Y-13006357D01*
X14273508Y-13006357D02*
X14263984Y-12996834D01*
D12*
X9488921Y-13397921D02*
G75*
G02*
X9463921Y-13397921I-12500J0D01*
G01*
X9463921Y-13397921D02*
G75*
G02*
X9488921Y-13397921I12500J0D01*
G01*
D11*
X9787793Y-13289405D02*
X9806841Y-13289405D01*
X9806841Y-13289405D02*
X9825889Y-13298929D01*
X9825889Y-13298929D02*
X9835413Y-13308453D01*
X9835413Y-13308453D02*
X9844936Y-13327500D01*
X9844936Y-13327500D02*
X9854460Y-13365596D01*
X9854460Y-13365596D02*
X9854460Y-13413215D01*
X9854460Y-13413215D02*
X9844936Y-13451310D01*
X9844936Y-13451310D02*
X9835413Y-13470357D01*
X9835413Y-13470357D02*
X9825889Y-13479881D01*
X9825889Y-13479881D02*
X9806841Y-13489405D01*
X9806841Y-13489405D02*
X9787793Y-13489405D01*
X9787793Y-13489405D02*
X9768746Y-13479881D01*
X9768746Y-13479881D02*
X9759222Y-13470357D01*
X9759222Y-13470357D02*
X9749698Y-13451310D01*
X9749698Y-13451310D02*
X9740174Y-13413215D01*
X9740174Y-13413215D02*
X9740174Y-13365596D01*
X9740174Y-13365596D02*
X9749698Y-13327500D01*
X9749698Y-13327500D02*
X9759222Y-13308453D01*
X9759222Y-13308453D02*
X9768746Y-13298929D01*
X9768746Y-13298929D02*
X9787793Y-13289405D01*
X9940174Y-13470357D02*
X9949698Y-13479881D01*
X9949698Y-13479881D02*
X9940174Y-13489405D01*
X9940174Y-13489405D02*
X9930651Y-13479881D01*
X9930651Y-13479881D02*
X9940174Y-13470357D01*
X9940174Y-13470357D02*
X9940174Y-13489405D01*
X10025889Y-13308453D02*
X10035413Y-13298929D01*
X10035413Y-13298929D02*
X10054460Y-13289405D01*
X10054460Y-13289405D02*
X10102079Y-13289405D01*
X10102079Y-13289405D02*
X10121127Y-13298929D01*
X10121127Y-13298929D02*
X10130651Y-13308453D01*
X10130651Y-13308453D02*
X10140174Y-13327500D01*
X10140174Y-13327500D02*
X10140174Y-13346548D01*
X10140174Y-13346548D02*
X10130651Y-13375119D01*
X10130651Y-13375119D02*
X10016365Y-13489405D01*
X10016365Y-13489405D02*
X10140174Y-13489405D01*
X10321127Y-13289405D02*
X10225889Y-13289405D01*
X10225889Y-13289405D02*
X10216365Y-13384643D01*
X10216365Y-13384643D02*
X10225889Y-13375119D01*
X10225889Y-13375119D02*
X10244936Y-13365596D01*
X10244936Y-13365596D02*
X10292555Y-13365596D01*
X10292555Y-13365596D02*
X10311603Y-13375119D01*
X10311603Y-13375119D02*
X10321127Y-13384643D01*
X10321127Y-13384643D02*
X10330651Y-13403691D01*
X10330651Y-13403691D02*
X10330651Y-13451310D01*
X10330651Y-13451310D02*
X10321127Y-13470357D01*
X10321127Y-13470357D02*
X10311603Y-13479881D01*
X10311603Y-13479881D02*
X10292555Y-13489405D01*
X10292555Y-13489405D02*
X10244936Y-13489405D01*
X10244936Y-13489405D02*
X10225889Y-13479881D01*
X10225889Y-13479881D02*
X10216365Y-13470357D01*
X10454460Y-13289405D02*
X10473508Y-13289405D01*
X10473508Y-13289405D02*
X10492555Y-13298929D01*
X10492555Y-13298929D02*
X10502079Y-13308453D01*
X10502079Y-13308453D02*
X10511603Y-13327500D01*
X10511603Y-13327500D02*
X10521127Y-13365596D01*
X10521127Y-13365596D02*
X10521127Y-13413215D01*
X10521127Y-13413215D02*
X10511603Y-13451310D01*
X10511603Y-13451310D02*
X10502079Y-13470357D01*
X10502079Y-13470357D02*
X10492555Y-13479881D01*
X10492555Y-13479881D02*
X10473508Y-13489405D01*
X10473508Y-13489405D02*
X10454460Y-13489405D01*
X10454460Y-13489405D02*
X10435413Y-13479881D01*
X10435413Y-13479881D02*
X10425889Y-13470357D01*
X10425889Y-13470357D02*
X10416365Y-13451310D01*
X10416365Y-13451310D02*
X10406841Y-13413215D01*
X10406841Y-13413215D02*
X10406841Y-13365596D01*
X10406841Y-13365596D02*
X10416365Y-13327500D01*
X10416365Y-13327500D02*
X10425889Y-13308453D01*
X10425889Y-13308453D02*
X10435413Y-13298929D01*
X10435413Y-13298929D02*
X10454460Y-13289405D01*
X10606841Y-13489405D02*
X10606841Y-13356072D01*
X10606841Y-13375119D02*
X10616365Y-13365596D01*
X10616365Y-13365596D02*
X10635413Y-13356072D01*
X10635413Y-13356072D02*
X10663984Y-13356072D01*
X10663984Y-13356072D02*
X10683032Y-13365596D01*
X10683032Y-13365596D02*
X10692555Y-13384643D01*
X10692555Y-13384643D02*
X10692555Y-13489405D01*
X10692555Y-13384643D02*
X10702079Y-13365596D01*
X10702079Y-13365596D02*
X10721127Y-13356072D01*
X10721127Y-13356072D02*
X10749698Y-13356072D01*
X10749698Y-13356072D02*
X10768746Y-13365596D01*
X10768746Y-13365596D02*
X10778270Y-13384643D01*
X10778270Y-13384643D02*
X10778270Y-13489405D01*
X10873508Y-13489405D02*
X10873508Y-13356072D01*
X10873508Y-13375119D02*
X10883032Y-13365596D01*
X10883032Y-13365596D02*
X10902079Y-13356072D01*
X10902079Y-13356072D02*
X10930651Y-13356072D01*
X10930651Y-13356072D02*
X10949698Y-13365596D01*
X10949698Y-13365596D02*
X10959222Y-13384643D01*
X10959222Y-13384643D02*
X10959222Y-13489405D01*
X10959222Y-13384643D02*
X10968746Y-13365596D01*
X10968746Y-13365596D02*
X10987794Y-13356072D01*
X10987794Y-13356072D02*
X11016365Y-13356072D01*
X11016365Y-13356072D02*
X11035413Y-13365596D01*
X11035413Y-13365596D02*
X11044936Y-13384643D01*
X11044936Y-13384643D02*
X11044936Y-13489405D01*
X11435413Y-13279881D02*
X11263984Y-13537024D01*
X11692555Y-13289405D02*
X11711603Y-13289405D01*
X11711603Y-13289405D02*
X11730651Y-13298929D01*
X11730651Y-13298929D02*
X11740175Y-13308453D01*
X11740175Y-13308453D02*
X11749698Y-13327500D01*
X11749698Y-13327500D02*
X11759222Y-13365596D01*
X11759222Y-13365596D02*
X11759222Y-13413215D01*
X11759222Y-13413215D02*
X11749698Y-13451310D01*
X11749698Y-13451310D02*
X11740175Y-13470357D01*
X11740175Y-13470357D02*
X11730651Y-13479881D01*
X11730651Y-13479881D02*
X11711603Y-13489405D01*
X11711603Y-13489405D02*
X11692555Y-13489405D01*
X11692555Y-13489405D02*
X11673508Y-13479881D01*
X11673508Y-13479881D02*
X11663984Y-13470357D01*
X11663984Y-13470357D02*
X11654460Y-13451310D01*
X11654460Y-13451310D02*
X11644936Y-13413215D01*
X11644936Y-13413215D02*
X11644936Y-13365596D01*
X11644936Y-13365596D02*
X11654460Y-13327500D01*
X11654460Y-13327500D02*
X11663984Y-13308453D01*
X11663984Y-13308453D02*
X11673508Y-13298929D01*
X11673508Y-13298929D02*
X11692555Y-13289405D01*
X11844936Y-13470357D02*
X11854460Y-13479881D01*
X11854460Y-13479881D02*
X11844936Y-13489405D01*
X11844936Y-13489405D02*
X11835413Y-13479881D01*
X11835413Y-13479881D02*
X11844936Y-13470357D01*
X11844936Y-13470357D02*
X11844936Y-13489405D01*
X11978270Y-13289405D02*
X11997317Y-13289405D01*
X11997317Y-13289405D02*
X12016365Y-13298929D01*
X12016365Y-13298929D02*
X12025889Y-13308453D01*
X12025889Y-13308453D02*
X12035413Y-13327500D01*
X12035413Y-13327500D02*
X12044936Y-13365596D01*
X12044936Y-13365596D02*
X12044936Y-13413215D01*
X12044936Y-13413215D02*
X12035413Y-13451310D01*
X12035413Y-13451310D02*
X12025889Y-13470357D01*
X12025889Y-13470357D02*
X12016365Y-13479881D01*
X12016365Y-13479881D02*
X11997317Y-13489405D01*
X11997317Y-13489405D02*
X11978270Y-13489405D01*
X11978270Y-13489405D02*
X11959222Y-13479881D01*
X11959222Y-13479881D02*
X11949698Y-13470357D01*
X11949698Y-13470357D02*
X11940175Y-13451310D01*
X11940175Y-13451310D02*
X11930651Y-13413215D01*
X11930651Y-13413215D02*
X11930651Y-13365596D01*
X11930651Y-13365596D02*
X11940175Y-13327500D01*
X11940175Y-13327500D02*
X11949698Y-13308453D01*
X11949698Y-13308453D02*
X11959222Y-13298929D01*
X11959222Y-13298929D02*
X11978270Y-13289405D01*
X12168746Y-13289405D02*
X12187794Y-13289405D01*
X12187794Y-13289405D02*
X12206841Y-13298929D01*
X12206841Y-13298929D02*
X12216365Y-13308453D01*
X12216365Y-13308453D02*
X12225889Y-13327500D01*
X12225889Y-13327500D02*
X12235413Y-13365596D01*
X12235413Y-13365596D02*
X12235413Y-13413215D01*
X12235413Y-13413215D02*
X12225889Y-13451310D01*
X12225889Y-13451310D02*
X12216365Y-13470357D01*
X12216365Y-13470357D02*
X12206841Y-13479881D01*
X12206841Y-13479881D02*
X12187794Y-13489405D01*
X12187794Y-13489405D02*
X12168746Y-13489405D01*
X12168746Y-13489405D02*
X12149698Y-13479881D01*
X12149698Y-13479881D02*
X12140175Y-13470357D01*
X12140175Y-13470357D02*
X12130651Y-13451310D01*
X12130651Y-13451310D02*
X12121127Y-13413215D01*
X12121127Y-13413215D02*
X12121127Y-13365596D01*
X12121127Y-13365596D02*
X12130651Y-13327500D01*
X12130651Y-13327500D02*
X12140175Y-13308453D01*
X12140175Y-13308453D02*
X12149698Y-13298929D01*
X12149698Y-13298929D02*
X12168746Y-13289405D01*
X12330651Y-13489405D02*
X12368746Y-13489405D01*
X12368746Y-13489405D02*
X12387794Y-13479881D01*
X12387794Y-13479881D02*
X12397317Y-13470357D01*
X12397317Y-13470357D02*
X12416365Y-13441786D01*
X12416365Y-13441786D02*
X12425889Y-13403691D01*
X12425889Y-13403691D02*
X12425889Y-13327500D01*
X12425889Y-13327500D02*
X12416365Y-13308453D01*
X12416365Y-13308453D02*
X12406841Y-13298929D01*
X12406841Y-13298929D02*
X12387794Y-13289405D01*
X12387794Y-13289405D02*
X12349698Y-13289405D01*
X12349698Y-13289405D02*
X12330651Y-13298929D01*
X12330651Y-13298929D02*
X12321127Y-13308453D01*
X12321127Y-13308453D02*
X12311603Y-13327500D01*
X12311603Y-13327500D02*
X12311603Y-13375119D01*
X12311603Y-13375119D02*
X12321127Y-13394167D01*
X12321127Y-13394167D02*
X12330651Y-13403691D01*
X12330651Y-13403691D02*
X12349698Y-13413215D01*
X12349698Y-13413215D02*
X12387794Y-13413215D01*
X12387794Y-13413215D02*
X12406841Y-13403691D01*
X12406841Y-13403691D02*
X12416365Y-13394167D01*
X12416365Y-13394167D02*
X12425889Y-13375119D01*
X12540175Y-13375119D02*
X12521127Y-13365596D01*
X12521127Y-13365596D02*
X12511603Y-13356072D01*
X12511603Y-13356072D02*
X12502079Y-13337024D01*
X12502079Y-13337024D02*
X12502079Y-13327500D01*
X12502079Y-13327500D02*
X12511603Y-13308453D01*
X12511603Y-13308453D02*
X12521127Y-13298929D01*
X12521127Y-13298929D02*
X12540175Y-13289405D01*
X12540175Y-13289405D02*
X12578270Y-13289405D01*
X12578270Y-13289405D02*
X12597317Y-13298929D01*
X12597317Y-13298929D02*
X12606841Y-13308453D01*
X12606841Y-13308453D02*
X12616365Y-13327500D01*
X12616365Y-13327500D02*
X12616365Y-13337024D01*
X12616365Y-13337024D02*
X12606841Y-13356072D01*
X12606841Y-13356072D02*
X12597317Y-13365596D01*
X12597317Y-13365596D02*
X12578270Y-13375119D01*
X12578270Y-13375119D02*
X12540175Y-13375119D01*
X12540175Y-13375119D02*
X12521127Y-13384643D01*
X12521127Y-13384643D02*
X12511603Y-13394167D01*
X12511603Y-13394167D02*
X12502079Y-13413215D01*
X12502079Y-13413215D02*
X12502079Y-13451310D01*
X12502079Y-13451310D02*
X12511603Y-13470357D01*
X12511603Y-13470357D02*
X12521127Y-13479881D01*
X12521127Y-13479881D02*
X12540175Y-13489405D01*
X12540175Y-13489405D02*
X12578270Y-13489405D01*
X12578270Y-13489405D02*
X12597317Y-13479881D01*
X12597317Y-13479881D02*
X12606841Y-13470357D01*
X12606841Y-13470357D02*
X12616365Y-13451310D01*
X12616365Y-13451310D02*
X12616365Y-13413215D01*
X12616365Y-13413215D02*
X12606841Y-13394167D01*
X12606841Y-13394167D02*
X12597317Y-13384643D01*
X12597317Y-13384643D02*
X12578270Y-13375119D01*
X12692556Y-13289405D02*
X12692556Y-13327500D01*
X12768746Y-13289405D02*
X12768746Y-13327500D01*
X13063984Y-13565596D02*
X13054460Y-13556072D01*
X13054460Y-13556072D02*
X13035413Y-13527500D01*
X13035413Y-13527500D02*
X13025889Y-13508453D01*
X13025889Y-13508453D02*
X13016365Y-13479881D01*
X13016365Y-13479881D02*
X13006841Y-13432262D01*
X13006841Y-13432262D02*
X13006841Y-13394167D01*
X13006841Y-13394167D02*
X13016365Y-13346548D01*
X13016365Y-13346548D02*
X13025889Y-13317977D01*
X13025889Y-13317977D02*
X13035413Y-13298929D01*
X13035413Y-13298929D02*
X13054460Y-13270357D01*
X13054460Y-13270357D02*
X13063984Y-13260834D01*
X13130651Y-13308453D02*
X13140175Y-13298929D01*
X13140175Y-13298929D02*
X13159222Y-13289405D01*
X13159222Y-13289405D02*
X13206841Y-13289405D01*
X13206841Y-13289405D02*
X13225889Y-13298929D01*
X13225889Y-13298929D02*
X13235413Y-13308453D01*
X13235413Y-13308453D02*
X13244937Y-13327500D01*
X13244937Y-13327500D02*
X13244937Y-13346548D01*
X13244937Y-13346548D02*
X13235413Y-13375119D01*
X13235413Y-13375119D02*
X13121127Y-13489405D01*
X13121127Y-13489405D02*
X13244937Y-13489405D01*
X13368746Y-13289405D02*
X13387794Y-13289405D01*
X13387794Y-13289405D02*
X13406841Y-13298929D01*
X13406841Y-13298929D02*
X13416365Y-13308453D01*
X13416365Y-13308453D02*
X13425889Y-13327500D01*
X13425889Y-13327500D02*
X13435413Y-13365596D01*
X13435413Y-13365596D02*
X13435413Y-13413215D01*
X13435413Y-13413215D02*
X13425889Y-13451310D01*
X13425889Y-13451310D02*
X13416365Y-13470357D01*
X13416365Y-13470357D02*
X13406841Y-13479881D01*
X13406841Y-13479881D02*
X13387794Y-13489405D01*
X13387794Y-13489405D02*
X13368746Y-13489405D01*
X13368746Y-13489405D02*
X13349698Y-13479881D01*
X13349698Y-13479881D02*
X13340175Y-13470357D01*
X13340175Y-13470357D02*
X13330651Y-13451310D01*
X13330651Y-13451310D02*
X13321127Y-13413215D01*
X13321127Y-13413215D02*
X13321127Y-13365596D01*
X13321127Y-13365596D02*
X13330651Y-13327500D01*
X13330651Y-13327500D02*
X13340175Y-13308453D01*
X13340175Y-13308453D02*
X13349698Y-13298929D01*
X13349698Y-13298929D02*
X13368746Y-13289405D01*
X13606841Y-13289405D02*
X13568746Y-13289405D01*
X13568746Y-13289405D02*
X13549698Y-13298929D01*
X13549698Y-13298929D02*
X13540175Y-13308453D01*
X13540175Y-13308453D02*
X13521127Y-13337024D01*
X13521127Y-13337024D02*
X13511603Y-13375119D01*
X13511603Y-13375119D02*
X13511603Y-13451310D01*
X13511603Y-13451310D02*
X13521127Y-13470357D01*
X13521127Y-13470357D02*
X13530651Y-13479881D01*
X13530651Y-13479881D02*
X13549698Y-13489405D01*
X13549698Y-13489405D02*
X13587794Y-13489405D01*
X13587794Y-13489405D02*
X13606841Y-13479881D01*
X13606841Y-13479881D02*
X13616365Y-13470357D01*
X13616365Y-13470357D02*
X13625889Y-13451310D01*
X13625889Y-13451310D02*
X13625889Y-13403691D01*
X13625889Y-13403691D02*
X13616365Y-13384643D01*
X13616365Y-13384643D02*
X13606841Y-13375119D01*
X13606841Y-13375119D02*
X13587794Y-13365596D01*
X13587794Y-13365596D02*
X13549698Y-13365596D01*
X13549698Y-13365596D02*
X13530651Y-13375119D01*
X13530651Y-13375119D02*
X13521127Y-13384643D01*
X13521127Y-13384643D02*
X13511603Y-13403691D01*
X13863984Y-13489405D02*
X13863984Y-13289405D01*
X13949699Y-13489405D02*
X13949699Y-13384643D01*
X13949699Y-13384643D02*
X13940175Y-13365596D01*
X13940175Y-13365596D02*
X13921127Y-13356072D01*
X13921127Y-13356072D02*
X13892556Y-13356072D01*
X13892556Y-13356072D02*
X13873508Y-13365596D01*
X13873508Y-13365596D02*
X13863984Y-13375119D01*
X14073508Y-13489405D02*
X14054460Y-13479881D01*
X14054460Y-13479881D02*
X14044937Y-13470357D01*
X14044937Y-13470357D02*
X14035413Y-13451310D01*
X14035413Y-13451310D02*
X14035413Y-13394167D01*
X14035413Y-13394167D02*
X14044937Y-13375119D01*
X14044937Y-13375119D02*
X14054460Y-13365596D01*
X14054460Y-13365596D02*
X14073508Y-13356072D01*
X14073508Y-13356072D02*
X14102080Y-13356072D01*
X14102080Y-13356072D02*
X14121127Y-13365596D01*
X14121127Y-13365596D02*
X14130651Y-13375119D01*
X14130651Y-13375119D02*
X14140175Y-13394167D01*
X14140175Y-13394167D02*
X14140175Y-13451310D01*
X14140175Y-13451310D02*
X14130651Y-13470357D01*
X14130651Y-13470357D02*
X14121127Y-13479881D01*
X14121127Y-13479881D02*
X14102080Y-13489405D01*
X14102080Y-13489405D02*
X14073508Y-13489405D01*
X14254460Y-13489405D02*
X14235413Y-13479881D01*
X14235413Y-13479881D02*
X14225889Y-13460834D01*
X14225889Y-13460834D02*
X14225889Y-13289405D01*
X14406841Y-13479881D02*
X14387794Y-13489405D01*
X14387794Y-13489405D02*
X14349699Y-13489405D01*
X14349699Y-13489405D02*
X14330651Y-13479881D01*
X14330651Y-13479881D02*
X14321127Y-13460834D01*
X14321127Y-13460834D02*
X14321127Y-13384643D01*
X14321127Y-13384643D02*
X14330651Y-13365596D01*
X14330651Y-13365596D02*
X14349699Y-13356072D01*
X14349699Y-13356072D02*
X14387794Y-13356072D01*
X14387794Y-13356072D02*
X14406841Y-13365596D01*
X14406841Y-13365596D02*
X14416365Y-13384643D01*
X14416365Y-13384643D02*
X14416365Y-13403691D01*
X14416365Y-13403691D02*
X14321127Y-13422738D01*
X14492556Y-13479881D02*
X14511603Y-13489405D01*
X14511603Y-13489405D02*
X14549699Y-13489405D01*
X14549699Y-13489405D02*
X14568746Y-13479881D01*
X14568746Y-13479881D02*
X14578270Y-13460834D01*
X14578270Y-13460834D02*
X14578270Y-13451310D01*
X14578270Y-13451310D02*
X14568746Y-13432262D01*
X14568746Y-13432262D02*
X14549699Y-13422738D01*
X14549699Y-13422738D02*
X14521127Y-13422738D01*
X14521127Y-13422738D02*
X14502080Y-13413215D01*
X14502080Y-13413215D02*
X14492556Y-13394167D01*
X14492556Y-13394167D02*
X14492556Y-13384643D01*
X14492556Y-13384643D02*
X14502080Y-13365596D01*
X14502080Y-13365596D02*
X14521127Y-13356072D01*
X14521127Y-13356072D02*
X14549699Y-13356072D01*
X14549699Y-13356072D02*
X14568746Y-13365596D01*
X14644937Y-13565596D02*
X14654461Y-13556072D01*
X14654461Y-13556072D02*
X14673508Y-13527500D01*
X14673508Y-13527500D02*
X14683032Y-13508453D01*
X14683032Y-13508453D02*
X14692556Y-13479881D01*
X14692556Y-13479881D02*
X14702080Y-13432262D01*
X14702080Y-13432262D02*
X14702080Y-13394167D01*
X14702080Y-13394167D02*
X14692556Y-13346548D01*
X14692556Y-13346548D02*
X14683032Y-13317977D01*
X14683032Y-13317977D02*
X14673508Y-13298929D01*
X14673508Y-13298929D02*
X14654461Y-13270357D01*
X14654461Y-13270357D02*
X14644937Y-13260834D01*
D12*
X9463921Y-13636921D02*
X9463921Y-13686921D01*
X9438921Y-13661921D02*
X9488921Y-13661921D01*
D11*
X9787793Y-13553405D02*
X9806841Y-13553405D01*
X9806841Y-13553405D02*
X9825889Y-13562929D01*
X9825889Y-13562929D02*
X9835413Y-13572453D01*
X9835413Y-13572453D02*
X9844936Y-13591500D01*
X9844936Y-13591500D02*
X9854460Y-13629596D01*
X9854460Y-13629596D02*
X9854460Y-13677215D01*
X9854460Y-13677215D02*
X9844936Y-13715310D01*
X9844936Y-13715310D02*
X9835413Y-13734357D01*
X9835413Y-13734357D02*
X9825889Y-13743881D01*
X9825889Y-13743881D02*
X9806841Y-13753405D01*
X9806841Y-13753405D02*
X9787793Y-13753405D01*
X9787793Y-13753405D02*
X9768746Y-13743881D01*
X9768746Y-13743881D02*
X9759222Y-13734357D01*
X9759222Y-13734357D02*
X9749698Y-13715310D01*
X9749698Y-13715310D02*
X9740174Y-13677215D01*
X9740174Y-13677215D02*
X9740174Y-13629596D01*
X9740174Y-13629596D02*
X9749698Y-13591500D01*
X9749698Y-13591500D02*
X9759222Y-13572453D01*
X9759222Y-13572453D02*
X9768746Y-13562929D01*
X9768746Y-13562929D02*
X9787793Y-13553405D01*
X9940174Y-13734357D02*
X9949698Y-13743881D01*
X9949698Y-13743881D02*
X9940174Y-13753405D01*
X9940174Y-13753405D02*
X9930651Y-13743881D01*
X9930651Y-13743881D02*
X9940174Y-13734357D01*
X9940174Y-13734357D02*
X9940174Y-13753405D01*
X10130651Y-13553405D02*
X10035413Y-13553405D01*
X10035413Y-13553405D02*
X10025889Y-13648643D01*
X10025889Y-13648643D02*
X10035413Y-13639119D01*
X10035413Y-13639119D02*
X10054460Y-13629596D01*
X10054460Y-13629596D02*
X10102079Y-13629596D01*
X10102079Y-13629596D02*
X10121127Y-13639119D01*
X10121127Y-13639119D02*
X10130651Y-13648643D01*
X10130651Y-13648643D02*
X10140174Y-13667691D01*
X10140174Y-13667691D02*
X10140174Y-13715310D01*
X10140174Y-13715310D02*
X10130651Y-13734357D01*
X10130651Y-13734357D02*
X10121127Y-13743881D01*
X10121127Y-13743881D02*
X10102079Y-13753405D01*
X10102079Y-13753405D02*
X10054460Y-13753405D01*
X10054460Y-13753405D02*
X10035413Y-13743881D01*
X10035413Y-13743881D02*
X10025889Y-13734357D01*
X10263984Y-13553405D02*
X10283032Y-13553405D01*
X10283032Y-13553405D02*
X10302079Y-13562929D01*
X10302079Y-13562929D02*
X10311603Y-13572453D01*
X10311603Y-13572453D02*
X10321127Y-13591500D01*
X10321127Y-13591500D02*
X10330651Y-13629596D01*
X10330651Y-13629596D02*
X10330651Y-13677215D01*
X10330651Y-13677215D02*
X10321127Y-13715310D01*
X10321127Y-13715310D02*
X10311603Y-13734357D01*
X10311603Y-13734357D02*
X10302079Y-13743881D01*
X10302079Y-13743881D02*
X10283032Y-13753405D01*
X10283032Y-13753405D02*
X10263984Y-13753405D01*
X10263984Y-13753405D02*
X10244936Y-13743881D01*
X10244936Y-13743881D02*
X10235413Y-13734357D01*
X10235413Y-13734357D02*
X10225889Y-13715310D01*
X10225889Y-13715310D02*
X10216365Y-13677215D01*
X10216365Y-13677215D02*
X10216365Y-13629596D01*
X10216365Y-13629596D02*
X10225889Y-13591500D01*
X10225889Y-13591500D02*
X10235413Y-13572453D01*
X10235413Y-13572453D02*
X10244936Y-13562929D01*
X10244936Y-13562929D02*
X10263984Y-13553405D01*
X10454460Y-13553405D02*
X10473508Y-13553405D01*
X10473508Y-13553405D02*
X10492555Y-13562929D01*
X10492555Y-13562929D02*
X10502079Y-13572453D01*
X10502079Y-13572453D02*
X10511603Y-13591500D01*
X10511603Y-13591500D02*
X10521127Y-13629596D01*
X10521127Y-13629596D02*
X10521127Y-13677215D01*
X10521127Y-13677215D02*
X10511603Y-13715310D01*
X10511603Y-13715310D02*
X10502079Y-13734357D01*
X10502079Y-13734357D02*
X10492555Y-13743881D01*
X10492555Y-13743881D02*
X10473508Y-13753405D01*
X10473508Y-13753405D02*
X10454460Y-13753405D01*
X10454460Y-13753405D02*
X10435413Y-13743881D01*
X10435413Y-13743881D02*
X10425889Y-13734357D01*
X10425889Y-13734357D02*
X10416365Y-13715310D01*
X10416365Y-13715310D02*
X10406841Y-13677215D01*
X10406841Y-13677215D02*
X10406841Y-13629596D01*
X10406841Y-13629596D02*
X10416365Y-13591500D01*
X10416365Y-13591500D02*
X10425889Y-13572453D01*
X10425889Y-13572453D02*
X10435413Y-13562929D01*
X10435413Y-13562929D02*
X10454460Y-13553405D01*
X10606841Y-13753405D02*
X10606841Y-13620072D01*
X10606841Y-13639119D02*
X10616365Y-13629596D01*
X10616365Y-13629596D02*
X10635413Y-13620072D01*
X10635413Y-13620072D02*
X10663984Y-13620072D01*
X10663984Y-13620072D02*
X10683032Y-13629596D01*
X10683032Y-13629596D02*
X10692555Y-13648643D01*
X10692555Y-13648643D02*
X10692555Y-13753405D01*
X10692555Y-13648643D02*
X10702079Y-13629596D01*
X10702079Y-13629596D02*
X10721127Y-13620072D01*
X10721127Y-13620072D02*
X10749698Y-13620072D01*
X10749698Y-13620072D02*
X10768746Y-13629596D01*
X10768746Y-13629596D02*
X10778270Y-13648643D01*
X10778270Y-13648643D02*
X10778270Y-13753405D01*
X10873508Y-13753405D02*
X10873508Y-13620072D01*
X10873508Y-13639119D02*
X10883032Y-13629596D01*
X10883032Y-13629596D02*
X10902079Y-13620072D01*
X10902079Y-13620072D02*
X10930651Y-13620072D01*
X10930651Y-13620072D02*
X10949698Y-13629596D01*
X10949698Y-13629596D02*
X10959222Y-13648643D01*
X10959222Y-13648643D02*
X10959222Y-13753405D01*
X10959222Y-13648643D02*
X10968746Y-13629596D01*
X10968746Y-13629596D02*
X10987794Y-13620072D01*
X10987794Y-13620072D02*
X11016365Y-13620072D01*
X11016365Y-13620072D02*
X11035413Y-13629596D01*
X11035413Y-13629596D02*
X11044936Y-13648643D01*
X11044936Y-13648643D02*
X11044936Y-13753405D01*
X11435413Y-13543881D02*
X11263984Y-13801024D01*
X11692555Y-13553405D02*
X11711603Y-13553405D01*
X11711603Y-13553405D02*
X11730651Y-13562929D01*
X11730651Y-13562929D02*
X11740175Y-13572453D01*
X11740175Y-13572453D02*
X11749698Y-13591500D01*
X11749698Y-13591500D02*
X11759222Y-13629596D01*
X11759222Y-13629596D02*
X11759222Y-13677215D01*
X11759222Y-13677215D02*
X11749698Y-13715310D01*
X11749698Y-13715310D02*
X11740175Y-13734357D01*
X11740175Y-13734357D02*
X11730651Y-13743881D01*
X11730651Y-13743881D02*
X11711603Y-13753405D01*
X11711603Y-13753405D02*
X11692555Y-13753405D01*
X11692555Y-13753405D02*
X11673508Y-13743881D01*
X11673508Y-13743881D02*
X11663984Y-13734357D01*
X11663984Y-13734357D02*
X11654460Y-13715310D01*
X11654460Y-13715310D02*
X11644936Y-13677215D01*
X11644936Y-13677215D02*
X11644936Y-13629596D01*
X11644936Y-13629596D02*
X11654460Y-13591500D01*
X11654460Y-13591500D02*
X11663984Y-13572453D01*
X11663984Y-13572453D02*
X11673508Y-13562929D01*
X11673508Y-13562929D02*
X11692555Y-13553405D01*
X11844936Y-13734357D02*
X11854460Y-13743881D01*
X11854460Y-13743881D02*
X11844936Y-13753405D01*
X11844936Y-13753405D02*
X11835413Y-13743881D01*
X11835413Y-13743881D02*
X11844936Y-13734357D01*
X11844936Y-13734357D02*
X11844936Y-13753405D01*
X11978270Y-13553405D02*
X11997317Y-13553405D01*
X11997317Y-13553405D02*
X12016365Y-13562929D01*
X12016365Y-13562929D02*
X12025889Y-13572453D01*
X12025889Y-13572453D02*
X12035413Y-13591500D01*
X12035413Y-13591500D02*
X12044936Y-13629596D01*
X12044936Y-13629596D02*
X12044936Y-13677215D01*
X12044936Y-13677215D02*
X12035413Y-13715310D01*
X12035413Y-13715310D02*
X12025889Y-13734357D01*
X12025889Y-13734357D02*
X12016365Y-13743881D01*
X12016365Y-13743881D02*
X11997317Y-13753405D01*
X11997317Y-13753405D02*
X11978270Y-13753405D01*
X11978270Y-13753405D02*
X11959222Y-13743881D01*
X11959222Y-13743881D02*
X11949698Y-13734357D01*
X11949698Y-13734357D02*
X11940175Y-13715310D01*
X11940175Y-13715310D02*
X11930651Y-13677215D01*
X11930651Y-13677215D02*
X11930651Y-13629596D01*
X11930651Y-13629596D02*
X11940175Y-13591500D01*
X11940175Y-13591500D02*
X11949698Y-13572453D01*
X11949698Y-13572453D02*
X11959222Y-13562929D01*
X11959222Y-13562929D02*
X11978270Y-13553405D01*
X12235413Y-13753405D02*
X12121127Y-13753405D01*
X12178270Y-13753405D02*
X12178270Y-13553405D01*
X12178270Y-13553405D02*
X12159222Y-13581977D01*
X12159222Y-13581977D02*
X12140175Y-13601024D01*
X12140175Y-13601024D02*
X12121127Y-13610548D01*
X12330651Y-13753405D02*
X12368746Y-13753405D01*
X12368746Y-13753405D02*
X12387794Y-13743881D01*
X12387794Y-13743881D02*
X12397317Y-13734357D01*
X12397317Y-13734357D02*
X12416365Y-13705786D01*
X12416365Y-13705786D02*
X12425889Y-13667691D01*
X12425889Y-13667691D02*
X12425889Y-13591500D01*
X12425889Y-13591500D02*
X12416365Y-13572453D01*
X12416365Y-13572453D02*
X12406841Y-13562929D01*
X12406841Y-13562929D02*
X12387794Y-13553405D01*
X12387794Y-13553405D02*
X12349698Y-13553405D01*
X12349698Y-13553405D02*
X12330651Y-13562929D01*
X12330651Y-13562929D02*
X12321127Y-13572453D01*
X12321127Y-13572453D02*
X12311603Y-13591500D01*
X12311603Y-13591500D02*
X12311603Y-13639119D01*
X12311603Y-13639119D02*
X12321127Y-13658167D01*
X12321127Y-13658167D02*
X12330651Y-13667691D01*
X12330651Y-13667691D02*
X12349698Y-13677215D01*
X12349698Y-13677215D02*
X12387794Y-13677215D01*
X12387794Y-13677215D02*
X12406841Y-13667691D01*
X12406841Y-13667691D02*
X12416365Y-13658167D01*
X12416365Y-13658167D02*
X12425889Y-13639119D01*
X12492556Y-13553405D02*
X12625889Y-13553405D01*
X12625889Y-13553405D02*
X12540175Y-13753405D01*
X12692556Y-13553405D02*
X12692556Y-13591500D01*
X12768746Y-13553405D02*
X12768746Y-13591500D01*
X13063984Y-13829596D02*
X13054460Y-13820072D01*
X13054460Y-13820072D02*
X13035413Y-13791500D01*
X13035413Y-13791500D02*
X13025889Y-13772453D01*
X13025889Y-13772453D02*
X13016365Y-13743881D01*
X13016365Y-13743881D02*
X13006841Y-13696262D01*
X13006841Y-13696262D02*
X13006841Y-13658167D01*
X13006841Y-13658167D02*
X13016365Y-13610548D01*
X13016365Y-13610548D02*
X13025889Y-13581977D01*
X13025889Y-13581977D02*
X13035413Y-13562929D01*
X13035413Y-13562929D02*
X13054460Y-13534357D01*
X13054460Y-13534357D02*
X13063984Y-13524834D01*
X13244937Y-13753405D02*
X13130651Y-13753405D01*
X13187794Y-13753405D02*
X13187794Y-13553405D01*
X13187794Y-13553405D02*
X13168746Y-13581977D01*
X13168746Y-13581977D02*
X13149698Y-13601024D01*
X13149698Y-13601024D02*
X13130651Y-13610548D01*
X13416365Y-13620072D02*
X13416365Y-13753405D01*
X13368746Y-13543881D02*
X13321127Y-13686738D01*
X13321127Y-13686738D02*
X13444937Y-13686738D01*
X13673508Y-13753405D02*
X13673508Y-13553405D01*
X13759222Y-13753405D02*
X13759222Y-13648643D01*
X13759222Y-13648643D02*
X13749699Y-13629596D01*
X13749699Y-13629596D02*
X13730651Y-13620072D01*
X13730651Y-13620072D02*
X13702079Y-13620072D01*
X13702079Y-13620072D02*
X13683032Y-13629596D01*
X13683032Y-13629596D02*
X13673508Y-13639119D01*
X13883032Y-13753405D02*
X13863984Y-13743881D01*
X13863984Y-13743881D02*
X13854460Y-13734357D01*
X13854460Y-13734357D02*
X13844937Y-13715310D01*
X13844937Y-13715310D02*
X13844937Y-13658167D01*
X13844937Y-13658167D02*
X13854460Y-13639119D01*
X13854460Y-13639119D02*
X13863984Y-13629596D01*
X13863984Y-13629596D02*
X13883032Y-13620072D01*
X13883032Y-13620072D02*
X13911603Y-13620072D01*
X13911603Y-13620072D02*
X13930651Y-13629596D01*
X13930651Y-13629596D02*
X13940175Y-13639119D01*
X13940175Y-13639119D02*
X13949699Y-13658167D01*
X13949699Y-13658167D02*
X13949699Y-13715310D01*
X13949699Y-13715310D02*
X13940175Y-13734357D01*
X13940175Y-13734357D02*
X13930651Y-13743881D01*
X13930651Y-13743881D02*
X13911603Y-13753405D01*
X13911603Y-13753405D02*
X13883032Y-13753405D01*
X14063984Y-13753405D02*
X14044937Y-13743881D01*
X14044937Y-13743881D02*
X14035413Y-13724834D01*
X14035413Y-13724834D02*
X14035413Y-13553405D01*
X14216365Y-13743881D02*
X14197318Y-13753405D01*
X14197318Y-13753405D02*
X14159222Y-13753405D01*
X14159222Y-13753405D02*
X14140175Y-13743881D01*
X14140175Y-13743881D02*
X14130651Y-13724834D01*
X14130651Y-13724834D02*
X14130651Y-13648643D01*
X14130651Y-13648643D02*
X14140175Y-13629596D01*
X14140175Y-13629596D02*
X14159222Y-13620072D01*
X14159222Y-13620072D02*
X14197318Y-13620072D01*
X14197318Y-13620072D02*
X14216365Y-13629596D01*
X14216365Y-13629596D02*
X14225889Y-13648643D01*
X14225889Y-13648643D02*
X14225889Y-13667691D01*
X14225889Y-13667691D02*
X14130651Y-13686738D01*
X14302080Y-13743881D02*
X14321127Y-13753405D01*
X14321127Y-13753405D02*
X14359222Y-13753405D01*
X14359222Y-13753405D02*
X14378270Y-13743881D01*
X14378270Y-13743881D02*
X14387794Y-13724834D01*
X14387794Y-13724834D02*
X14387794Y-13715310D01*
X14387794Y-13715310D02*
X14378270Y-13696262D01*
X14378270Y-13696262D02*
X14359222Y-13686738D01*
X14359222Y-13686738D02*
X14330651Y-13686738D01*
X14330651Y-13686738D02*
X14311603Y-13677215D01*
X14311603Y-13677215D02*
X14302080Y-13658167D01*
X14302080Y-13658167D02*
X14302080Y-13648643D01*
X14302080Y-13648643D02*
X14311603Y-13629596D01*
X14311603Y-13629596D02*
X14330651Y-13620072D01*
X14330651Y-13620072D02*
X14359222Y-13620072D01*
X14359222Y-13620072D02*
X14378270Y-13629596D01*
X14454461Y-13829596D02*
X14463984Y-13820072D01*
X14463984Y-13820072D02*
X14483032Y-13791500D01*
X14483032Y-13791500D02*
X14492556Y-13772453D01*
X14492556Y-13772453D02*
X14502080Y-13743881D01*
X14502080Y-13743881D02*
X14511603Y-13696262D01*
X14511603Y-13696262D02*
X14511603Y-13658167D01*
X14511603Y-13658167D02*
X14502080Y-13610548D01*
X14502080Y-13610548D02*
X14492556Y-13581977D01*
X14492556Y-13581977D02*
X14483032Y-13562929D01*
X14483032Y-13562929D02*
X14463984Y-13534357D01*
X14463984Y-13534357D02*
X14454461Y-13524834D01*
D12*
X9477206Y-13954206D02*
X9477206Y-13897637D01*
X9420637Y-13897637D01*
X9420637Y-13954206D01*
X9477206Y-13954206D01*
D11*
X9787793Y-13817405D02*
X9806841Y-13817405D01*
X9806841Y-13817405D02*
X9825889Y-13826929D01*
X9825889Y-13826929D02*
X9835413Y-13836453D01*
X9835413Y-13836453D02*
X9844936Y-13855500D01*
X9844936Y-13855500D02*
X9854460Y-13893596D01*
X9854460Y-13893596D02*
X9854460Y-13941215D01*
X9854460Y-13941215D02*
X9844936Y-13979310D01*
X9844936Y-13979310D02*
X9835413Y-13998357D01*
X9835413Y-13998357D02*
X9825889Y-14007881D01*
X9825889Y-14007881D02*
X9806841Y-14017405D01*
X9806841Y-14017405D02*
X9787793Y-14017405D01*
X9787793Y-14017405D02*
X9768746Y-14007881D01*
X9768746Y-14007881D02*
X9759222Y-13998357D01*
X9759222Y-13998357D02*
X9749698Y-13979310D01*
X9749698Y-13979310D02*
X9740174Y-13941215D01*
X9740174Y-13941215D02*
X9740174Y-13893596D01*
X9740174Y-13893596D02*
X9749698Y-13855500D01*
X9749698Y-13855500D02*
X9759222Y-13836453D01*
X9759222Y-13836453D02*
X9768746Y-13826929D01*
X9768746Y-13826929D02*
X9787793Y-13817405D01*
X9940174Y-13998357D02*
X9949698Y-14007881D01*
X9949698Y-14007881D02*
X9940174Y-14017405D01*
X9940174Y-14017405D02*
X9930651Y-14007881D01*
X9930651Y-14007881D02*
X9940174Y-13998357D01*
X9940174Y-13998357D02*
X9940174Y-14017405D01*
X10063984Y-13903119D02*
X10044936Y-13893596D01*
X10044936Y-13893596D02*
X10035413Y-13884072D01*
X10035413Y-13884072D02*
X10025889Y-13865024D01*
X10025889Y-13865024D02*
X10025889Y-13855500D01*
X10025889Y-13855500D02*
X10035413Y-13836453D01*
X10035413Y-13836453D02*
X10044936Y-13826929D01*
X10044936Y-13826929D02*
X10063984Y-13817405D01*
X10063984Y-13817405D02*
X10102079Y-13817405D01*
X10102079Y-13817405D02*
X10121127Y-13826929D01*
X10121127Y-13826929D02*
X10130651Y-13836453D01*
X10130651Y-13836453D02*
X10140174Y-13855500D01*
X10140174Y-13855500D02*
X10140174Y-13865024D01*
X10140174Y-13865024D02*
X10130651Y-13884072D01*
X10130651Y-13884072D02*
X10121127Y-13893596D01*
X10121127Y-13893596D02*
X10102079Y-13903119D01*
X10102079Y-13903119D02*
X10063984Y-13903119D01*
X10063984Y-13903119D02*
X10044936Y-13912643D01*
X10044936Y-13912643D02*
X10035413Y-13922167D01*
X10035413Y-13922167D02*
X10025889Y-13941215D01*
X10025889Y-13941215D02*
X10025889Y-13979310D01*
X10025889Y-13979310D02*
X10035413Y-13998357D01*
X10035413Y-13998357D02*
X10044936Y-14007881D01*
X10044936Y-14007881D02*
X10063984Y-14017405D01*
X10063984Y-14017405D02*
X10102079Y-14017405D01*
X10102079Y-14017405D02*
X10121127Y-14007881D01*
X10121127Y-14007881D02*
X10130651Y-13998357D01*
X10130651Y-13998357D02*
X10140174Y-13979310D01*
X10140174Y-13979310D02*
X10140174Y-13941215D01*
X10140174Y-13941215D02*
X10130651Y-13922167D01*
X10130651Y-13922167D02*
X10121127Y-13912643D01*
X10121127Y-13912643D02*
X10102079Y-13903119D01*
X10263984Y-13817405D02*
X10283032Y-13817405D01*
X10283032Y-13817405D02*
X10302079Y-13826929D01*
X10302079Y-13826929D02*
X10311603Y-13836453D01*
X10311603Y-13836453D02*
X10321127Y-13855500D01*
X10321127Y-13855500D02*
X10330651Y-13893596D01*
X10330651Y-13893596D02*
X10330651Y-13941215D01*
X10330651Y-13941215D02*
X10321127Y-13979310D01*
X10321127Y-13979310D02*
X10311603Y-13998357D01*
X10311603Y-13998357D02*
X10302079Y-14007881D01*
X10302079Y-14007881D02*
X10283032Y-14017405D01*
X10283032Y-14017405D02*
X10263984Y-14017405D01*
X10263984Y-14017405D02*
X10244936Y-14007881D01*
X10244936Y-14007881D02*
X10235413Y-13998357D01*
X10235413Y-13998357D02*
X10225889Y-13979310D01*
X10225889Y-13979310D02*
X10216365Y-13941215D01*
X10216365Y-13941215D02*
X10216365Y-13893596D01*
X10216365Y-13893596D02*
X10225889Y-13855500D01*
X10225889Y-13855500D02*
X10235413Y-13836453D01*
X10235413Y-13836453D02*
X10244936Y-13826929D01*
X10244936Y-13826929D02*
X10263984Y-13817405D01*
X10454460Y-13817405D02*
X10473508Y-13817405D01*
X10473508Y-13817405D02*
X10492555Y-13826929D01*
X10492555Y-13826929D02*
X10502079Y-13836453D01*
X10502079Y-13836453D02*
X10511603Y-13855500D01*
X10511603Y-13855500D02*
X10521127Y-13893596D01*
X10521127Y-13893596D02*
X10521127Y-13941215D01*
X10521127Y-13941215D02*
X10511603Y-13979310D01*
X10511603Y-13979310D02*
X10502079Y-13998357D01*
X10502079Y-13998357D02*
X10492555Y-14007881D01*
X10492555Y-14007881D02*
X10473508Y-14017405D01*
X10473508Y-14017405D02*
X10454460Y-14017405D01*
X10454460Y-14017405D02*
X10435413Y-14007881D01*
X10435413Y-14007881D02*
X10425889Y-13998357D01*
X10425889Y-13998357D02*
X10416365Y-13979310D01*
X10416365Y-13979310D02*
X10406841Y-13941215D01*
X10406841Y-13941215D02*
X10406841Y-13893596D01*
X10406841Y-13893596D02*
X10416365Y-13855500D01*
X10416365Y-13855500D02*
X10425889Y-13836453D01*
X10425889Y-13836453D02*
X10435413Y-13826929D01*
X10435413Y-13826929D02*
X10454460Y-13817405D01*
X10606841Y-14017405D02*
X10606841Y-13884072D01*
X10606841Y-13903119D02*
X10616365Y-13893596D01*
X10616365Y-13893596D02*
X10635413Y-13884072D01*
X10635413Y-13884072D02*
X10663984Y-13884072D01*
X10663984Y-13884072D02*
X10683032Y-13893596D01*
X10683032Y-13893596D02*
X10692555Y-13912643D01*
X10692555Y-13912643D02*
X10692555Y-14017405D01*
X10692555Y-13912643D02*
X10702079Y-13893596D01*
X10702079Y-13893596D02*
X10721127Y-13884072D01*
X10721127Y-13884072D02*
X10749698Y-13884072D01*
X10749698Y-13884072D02*
X10768746Y-13893596D01*
X10768746Y-13893596D02*
X10778270Y-13912643D01*
X10778270Y-13912643D02*
X10778270Y-14017405D01*
X10873508Y-14017405D02*
X10873508Y-13884072D01*
X10873508Y-13903119D02*
X10883032Y-13893596D01*
X10883032Y-13893596D02*
X10902079Y-13884072D01*
X10902079Y-13884072D02*
X10930651Y-13884072D01*
X10930651Y-13884072D02*
X10949698Y-13893596D01*
X10949698Y-13893596D02*
X10959222Y-13912643D01*
X10959222Y-13912643D02*
X10959222Y-14017405D01*
X10959222Y-13912643D02*
X10968746Y-13893596D01*
X10968746Y-13893596D02*
X10987794Y-13884072D01*
X10987794Y-13884072D02*
X11016365Y-13884072D01*
X11016365Y-13884072D02*
X11035413Y-13893596D01*
X11035413Y-13893596D02*
X11044936Y-13912643D01*
X11044936Y-13912643D02*
X11044936Y-14017405D01*
X11435413Y-13807881D02*
X11263984Y-14065024D01*
X11692555Y-13817405D02*
X11711603Y-13817405D01*
X11711603Y-13817405D02*
X11730651Y-13826929D01*
X11730651Y-13826929D02*
X11740175Y-13836453D01*
X11740175Y-13836453D02*
X11749698Y-13855500D01*
X11749698Y-13855500D02*
X11759222Y-13893596D01*
X11759222Y-13893596D02*
X11759222Y-13941215D01*
X11759222Y-13941215D02*
X11749698Y-13979310D01*
X11749698Y-13979310D02*
X11740175Y-13998357D01*
X11740175Y-13998357D02*
X11730651Y-14007881D01*
X11730651Y-14007881D02*
X11711603Y-14017405D01*
X11711603Y-14017405D02*
X11692555Y-14017405D01*
X11692555Y-14017405D02*
X11673508Y-14007881D01*
X11673508Y-14007881D02*
X11663984Y-13998357D01*
X11663984Y-13998357D02*
X11654460Y-13979310D01*
X11654460Y-13979310D02*
X11644936Y-13941215D01*
X11644936Y-13941215D02*
X11644936Y-13893596D01*
X11644936Y-13893596D02*
X11654460Y-13855500D01*
X11654460Y-13855500D02*
X11663984Y-13836453D01*
X11663984Y-13836453D02*
X11673508Y-13826929D01*
X11673508Y-13826929D02*
X11692555Y-13817405D01*
X11844936Y-13998357D02*
X11854460Y-14007881D01*
X11854460Y-14007881D02*
X11844936Y-14017405D01*
X11844936Y-14017405D02*
X11835413Y-14007881D01*
X11835413Y-14007881D02*
X11844936Y-13998357D01*
X11844936Y-13998357D02*
X11844936Y-14017405D01*
X11978270Y-13817405D02*
X11997317Y-13817405D01*
X11997317Y-13817405D02*
X12016365Y-13826929D01*
X12016365Y-13826929D02*
X12025889Y-13836453D01*
X12025889Y-13836453D02*
X12035413Y-13855500D01*
X12035413Y-13855500D02*
X12044936Y-13893596D01*
X12044936Y-13893596D02*
X12044936Y-13941215D01*
X12044936Y-13941215D02*
X12035413Y-13979310D01*
X12035413Y-13979310D02*
X12025889Y-13998357D01*
X12025889Y-13998357D02*
X12016365Y-14007881D01*
X12016365Y-14007881D02*
X11997317Y-14017405D01*
X11997317Y-14017405D02*
X11978270Y-14017405D01*
X11978270Y-14017405D02*
X11959222Y-14007881D01*
X11959222Y-14007881D02*
X11949698Y-13998357D01*
X11949698Y-13998357D02*
X11940175Y-13979310D01*
X11940175Y-13979310D02*
X11930651Y-13941215D01*
X11930651Y-13941215D02*
X11930651Y-13893596D01*
X11930651Y-13893596D02*
X11940175Y-13855500D01*
X11940175Y-13855500D02*
X11949698Y-13836453D01*
X11949698Y-13836453D02*
X11959222Y-13826929D01*
X11959222Y-13826929D02*
X11978270Y-13817405D01*
X12111603Y-13817405D02*
X12235413Y-13817405D01*
X12235413Y-13817405D02*
X12168746Y-13893596D01*
X12168746Y-13893596D02*
X12197317Y-13893596D01*
X12197317Y-13893596D02*
X12216365Y-13903119D01*
X12216365Y-13903119D02*
X12225889Y-13912643D01*
X12225889Y-13912643D02*
X12235413Y-13931691D01*
X12235413Y-13931691D02*
X12235413Y-13979310D01*
X12235413Y-13979310D02*
X12225889Y-13998357D01*
X12225889Y-13998357D02*
X12216365Y-14007881D01*
X12216365Y-14007881D02*
X12197317Y-14017405D01*
X12197317Y-14017405D02*
X12140175Y-14017405D01*
X12140175Y-14017405D02*
X12121127Y-14007881D01*
X12121127Y-14007881D02*
X12111603Y-13998357D01*
X12425889Y-14017405D02*
X12311603Y-14017405D01*
X12368746Y-14017405D02*
X12368746Y-13817405D01*
X12368746Y-13817405D02*
X12349698Y-13845977D01*
X12349698Y-13845977D02*
X12330651Y-13865024D01*
X12330651Y-13865024D02*
X12311603Y-13874548D01*
X12606841Y-13817405D02*
X12511603Y-13817405D01*
X12511603Y-13817405D02*
X12502079Y-13912643D01*
X12502079Y-13912643D02*
X12511603Y-13903119D01*
X12511603Y-13903119D02*
X12530651Y-13893596D01*
X12530651Y-13893596D02*
X12578270Y-13893596D01*
X12578270Y-13893596D02*
X12597317Y-13903119D01*
X12597317Y-13903119D02*
X12606841Y-13912643D01*
X12606841Y-13912643D02*
X12616365Y-13931691D01*
X12616365Y-13931691D02*
X12616365Y-13979310D01*
X12616365Y-13979310D02*
X12606841Y-13998357D01*
X12606841Y-13998357D02*
X12597317Y-14007881D01*
X12597317Y-14007881D02*
X12578270Y-14017405D01*
X12578270Y-14017405D02*
X12530651Y-14017405D01*
X12530651Y-14017405D02*
X12511603Y-14007881D01*
X12511603Y-14007881D02*
X12502079Y-13998357D01*
X12692556Y-13817405D02*
X12692556Y-13855500D01*
X12768746Y-13817405D02*
X12768746Y-13855500D01*
X13063984Y-14093596D02*
X13054460Y-14084072D01*
X13054460Y-14084072D02*
X13035413Y-14055500D01*
X13035413Y-14055500D02*
X13025889Y-14036453D01*
X13025889Y-14036453D02*
X13016365Y-14007881D01*
X13016365Y-14007881D02*
X13006841Y-13960262D01*
X13006841Y-13960262D02*
X13006841Y-13922167D01*
X13006841Y-13922167D02*
X13016365Y-13874548D01*
X13016365Y-13874548D02*
X13025889Y-13845977D01*
X13025889Y-13845977D02*
X13035413Y-13826929D01*
X13035413Y-13826929D02*
X13054460Y-13798357D01*
X13054460Y-13798357D02*
X13063984Y-13788834D01*
X13130651Y-13836453D02*
X13140175Y-13826929D01*
X13140175Y-13826929D02*
X13159222Y-13817405D01*
X13159222Y-13817405D02*
X13206841Y-13817405D01*
X13206841Y-13817405D02*
X13225889Y-13826929D01*
X13225889Y-13826929D02*
X13235413Y-13836453D01*
X13235413Y-13836453D02*
X13244937Y-13855500D01*
X13244937Y-13855500D02*
X13244937Y-13874548D01*
X13244937Y-13874548D02*
X13235413Y-13903119D01*
X13235413Y-13903119D02*
X13121127Y-14017405D01*
X13121127Y-14017405D02*
X13244937Y-14017405D01*
X13483032Y-14017405D02*
X13483032Y-13817405D01*
X13568746Y-14017405D02*
X13568746Y-13912643D01*
X13568746Y-13912643D02*
X13559222Y-13893596D01*
X13559222Y-13893596D02*
X13540175Y-13884072D01*
X13540175Y-13884072D02*
X13511603Y-13884072D01*
X13511603Y-13884072D02*
X13492556Y-13893596D01*
X13492556Y-13893596D02*
X13483032Y-13903119D01*
X13692556Y-14017405D02*
X13673508Y-14007881D01*
X13673508Y-14007881D02*
X13663984Y-13998357D01*
X13663984Y-13998357D02*
X13654460Y-13979310D01*
X13654460Y-13979310D02*
X13654460Y-13922167D01*
X13654460Y-13922167D02*
X13663984Y-13903119D01*
X13663984Y-13903119D02*
X13673508Y-13893596D01*
X13673508Y-13893596D02*
X13692556Y-13884072D01*
X13692556Y-13884072D02*
X13721127Y-13884072D01*
X13721127Y-13884072D02*
X13740175Y-13893596D01*
X13740175Y-13893596D02*
X13749699Y-13903119D01*
X13749699Y-13903119D02*
X13759222Y-13922167D01*
X13759222Y-13922167D02*
X13759222Y-13979310D01*
X13759222Y-13979310D02*
X13749699Y-13998357D01*
X13749699Y-13998357D02*
X13740175Y-14007881D01*
X13740175Y-14007881D02*
X13721127Y-14017405D01*
X13721127Y-14017405D02*
X13692556Y-14017405D01*
X13873508Y-14017405D02*
X13854460Y-14007881D01*
X13854460Y-14007881D02*
X13844937Y-13988834D01*
X13844937Y-13988834D02*
X13844937Y-13817405D01*
X14025889Y-14007881D02*
X14006841Y-14017405D01*
X14006841Y-14017405D02*
X13968746Y-14017405D01*
X13968746Y-14017405D02*
X13949699Y-14007881D01*
X13949699Y-14007881D02*
X13940175Y-13988834D01*
X13940175Y-13988834D02*
X13940175Y-13912643D01*
X13940175Y-13912643D02*
X13949699Y-13893596D01*
X13949699Y-13893596D02*
X13968746Y-13884072D01*
X13968746Y-13884072D02*
X14006841Y-13884072D01*
X14006841Y-13884072D02*
X14025889Y-13893596D01*
X14025889Y-13893596D02*
X14035413Y-13912643D01*
X14035413Y-13912643D02*
X14035413Y-13931691D01*
X14035413Y-13931691D02*
X13940175Y-13950738D01*
X14111603Y-14007881D02*
X14130651Y-14017405D01*
X14130651Y-14017405D02*
X14168746Y-14017405D01*
X14168746Y-14017405D02*
X14187794Y-14007881D01*
X14187794Y-14007881D02*
X14197318Y-13988834D01*
X14197318Y-13988834D02*
X14197318Y-13979310D01*
X14197318Y-13979310D02*
X14187794Y-13960262D01*
X14187794Y-13960262D02*
X14168746Y-13950738D01*
X14168746Y-13950738D02*
X14140175Y-13950738D01*
X14140175Y-13950738D02*
X14121127Y-13941215D01*
X14121127Y-13941215D02*
X14111603Y-13922167D01*
X14111603Y-13922167D02*
X14111603Y-13912643D01*
X14111603Y-13912643D02*
X14121127Y-13893596D01*
X14121127Y-13893596D02*
X14140175Y-13884072D01*
X14140175Y-13884072D02*
X14168746Y-13884072D01*
X14168746Y-13884072D02*
X14187794Y-13893596D01*
X14263984Y-14093596D02*
X14273508Y-14084072D01*
X14273508Y-14084072D02*
X14292556Y-14055500D01*
X14292556Y-14055500D02*
X14302080Y-14036453D01*
X14302080Y-14036453D02*
X14311603Y-14007881D01*
X14311603Y-14007881D02*
X14321127Y-13960262D01*
X14321127Y-13960262D02*
X14321127Y-13922167D01*
X14321127Y-13922167D02*
X14311603Y-13874548D01*
X14311603Y-13874548D02*
X14302080Y-13845977D01*
X14302080Y-13845977D02*
X14292556Y-13826929D01*
X14292556Y-13826929D02*
X14273508Y-13798357D01*
X14273508Y-13798357D02*
X14263984Y-13788834D01*
D12*
X9438921Y-14239921D02*
X9488921Y-14189921D01*
X9438921Y-14139921D01*
X9388921Y-14189921D01*
X9438921Y-14239921D01*
D11*
X9854460Y-14281405D02*
X9740174Y-14281405D01*
X9797317Y-14281405D02*
X9797317Y-14081405D01*
X9797317Y-14081405D02*
X9778270Y-14109977D01*
X9778270Y-14109977D02*
X9759222Y-14129024D01*
X9759222Y-14129024D02*
X9740174Y-14138548D01*
X9940174Y-14262357D02*
X9949698Y-14271881D01*
X9949698Y-14271881D02*
X9940174Y-14281405D01*
X9940174Y-14281405D02*
X9930651Y-14271881D01*
X9930651Y-14271881D02*
X9940174Y-14262357D01*
X9940174Y-14262357D02*
X9940174Y-14281405D01*
X10073508Y-14081405D02*
X10092555Y-14081405D01*
X10092555Y-14081405D02*
X10111603Y-14090929D01*
X10111603Y-14090929D02*
X10121127Y-14100453D01*
X10121127Y-14100453D02*
X10130651Y-14119500D01*
X10130651Y-14119500D02*
X10140174Y-14157596D01*
X10140174Y-14157596D02*
X10140174Y-14205215D01*
X10140174Y-14205215D02*
X10130651Y-14243310D01*
X10130651Y-14243310D02*
X10121127Y-14262357D01*
X10121127Y-14262357D02*
X10111603Y-14271881D01*
X10111603Y-14271881D02*
X10092555Y-14281405D01*
X10092555Y-14281405D02*
X10073508Y-14281405D01*
X10073508Y-14281405D02*
X10054460Y-14271881D01*
X10054460Y-14271881D02*
X10044936Y-14262357D01*
X10044936Y-14262357D02*
X10035413Y-14243310D01*
X10035413Y-14243310D02*
X10025889Y-14205215D01*
X10025889Y-14205215D02*
X10025889Y-14157596D01*
X10025889Y-14157596D02*
X10035413Y-14119500D01*
X10035413Y-14119500D02*
X10044936Y-14100453D01*
X10044936Y-14100453D02*
X10054460Y-14090929D01*
X10054460Y-14090929D02*
X10073508Y-14081405D01*
X10263984Y-14081405D02*
X10283032Y-14081405D01*
X10283032Y-14081405D02*
X10302079Y-14090929D01*
X10302079Y-14090929D02*
X10311603Y-14100453D01*
X10311603Y-14100453D02*
X10321127Y-14119500D01*
X10321127Y-14119500D02*
X10330651Y-14157596D01*
X10330651Y-14157596D02*
X10330651Y-14205215D01*
X10330651Y-14205215D02*
X10321127Y-14243310D01*
X10321127Y-14243310D02*
X10311603Y-14262357D01*
X10311603Y-14262357D02*
X10302079Y-14271881D01*
X10302079Y-14271881D02*
X10283032Y-14281405D01*
X10283032Y-14281405D02*
X10263984Y-14281405D01*
X10263984Y-14281405D02*
X10244936Y-14271881D01*
X10244936Y-14271881D02*
X10235413Y-14262357D01*
X10235413Y-14262357D02*
X10225889Y-14243310D01*
X10225889Y-14243310D02*
X10216365Y-14205215D01*
X10216365Y-14205215D02*
X10216365Y-14157596D01*
X10216365Y-14157596D02*
X10225889Y-14119500D01*
X10225889Y-14119500D02*
X10235413Y-14100453D01*
X10235413Y-14100453D02*
X10244936Y-14090929D01*
X10244936Y-14090929D02*
X10263984Y-14081405D01*
X10454460Y-14081405D02*
X10473508Y-14081405D01*
X10473508Y-14081405D02*
X10492555Y-14090929D01*
X10492555Y-14090929D02*
X10502079Y-14100453D01*
X10502079Y-14100453D02*
X10511603Y-14119500D01*
X10511603Y-14119500D02*
X10521127Y-14157596D01*
X10521127Y-14157596D02*
X10521127Y-14205215D01*
X10521127Y-14205215D02*
X10511603Y-14243310D01*
X10511603Y-14243310D02*
X10502079Y-14262357D01*
X10502079Y-14262357D02*
X10492555Y-14271881D01*
X10492555Y-14271881D02*
X10473508Y-14281405D01*
X10473508Y-14281405D02*
X10454460Y-14281405D01*
X10454460Y-14281405D02*
X10435413Y-14271881D01*
X10435413Y-14271881D02*
X10425889Y-14262357D01*
X10425889Y-14262357D02*
X10416365Y-14243310D01*
X10416365Y-14243310D02*
X10406841Y-14205215D01*
X10406841Y-14205215D02*
X10406841Y-14157596D01*
X10406841Y-14157596D02*
X10416365Y-14119500D01*
X10416365Y-14119500D02*
X10425889Y-14100453D01*
X10425889Y-14100453D02*
X10435413Y-14090929D01*
X10435413Y-14090929D02*
X10454460Y-14081405D01*
X10606841Y-14281405D02*
X10606841Y-14148072D01*
X10606841Y-14167119D02*
X10616365Y-14157596D01*
X10616365Y-14157596D02*
X10635413Y-14148072D01*
X10635413Y-14148072D02*
X10663984Y-14148072D01*
X10663984Y-14148072D02*
X10683032Y-14157596D01*
X10683032Y-14157596D02*
X10692555Y-14176643D01*
X10692555Y-14176643D02*
X10692555Y-14281405D01*
X10692555Y-14176643D02*
X10702079Y-14157596D01*
X10702079Y-14157596D02*
X10721127Y-14148072D01*
X10721127Y-14148072D02*
X10749698Y-14148072D01*
X10749698Y-14148072D02*
X10768746Y-14157596D01*
X10768746Y-14157596D02*
X10778270Y-14176643D01*
X10778270Y-14176643D02*
X10778270Y-14281405D01*
X10873508Y-14281405D02*
X10873508Y-14148072D01*
X10873508Y-14167119D02*
X10883032Y-14157596D01*
X10883032Y-14157596D02*
X10902079Y-14148072D01*
X10902079Y-14148072D02*
X10930651Y-14148072D01*
X10930651Y-14148072D02*
X10949698Y-14157596D01*
X10949698Y-14157596D02*
X10959222Y-14176643D01*
X10959222Y-14176643D02*
X10959222Y-14281405D01*
X10959222Y-14176643D02*
X10968746Y-14157596D01*
X10968746Y-14157596D02*
X10987794Y-14148072D01*
X10987794Y-14148072D02*
X11016365Y-14148072D01*
X11016365Y-14148072D02*
X11035413Y-14157596D01*
X11035413Y-14157596D02*
X11044936Y-14176643D01*
X11044936Y-14176643D02*
X11044936Y-14281405D01*
X11435413Y-14071881D02*
X11263984Y-14329024D01*
X11692555Y-14081405D02*
X11711603Y-14081405D01*
X11711603Y-14081405D02*
X11730651Y-14090929D01*
X11730651Y-14090929D02*
X11740175Y-14100453D01*
X11740175Y-14100453D02*
X11749698Y-14119500D01*
X11749698Y-14119500D02*
X11759222Y-14157596D01*
X11759222Y-14157596D02*
X11759222Y-14205215D01*
X11759222Y-14205215D02*
X11749698Y-14243310D01*
X11749698Y-14243310D02*
X11740175Y-14262357D01*
X11740175Y-14262357D02*
X11730651Y-14271881D01*
X11730651Y-14271881D02*
X11711603Y-14281405D01*
X11711603Y-14281405D02*
X11692555Y-14281405D01*
X11692555Y-14281405D02*
X11673508Y-14271881D01*
X11673508Y-14271881D02*
X11663984Y-14262357D01*
X11663984Y-14262357D02*
X11654460Y-14243310D01*
X11654460Y-14243310D02*
X11644936Y-14205215D01*
X11644936Y-14205215D02*
X11644936Y-14157596D01*
X11644936Y-14157596D02*
X11654460Y-14119500D01*
X11654460Y-14119500D02*
X11663984Y-14100453D01*
X11663984Y-14100453D02*
X11673508Y-14090929D01*
X11673508Y-14090929D02*
X11692555Y-14081405D01*
X11844936Y-14262357D02*
X11854460Y-14271881D01*
X11854460Y-14271881D02*
X11844936Y-14281405D01*
X11844936Y-14281405D02*
X11835413Y-14271881D01*
X11835413Y-14271881D02*
X11844936Y-14262357D01*
X11844936Y-14262357D02*
X11844936Y-14281405D01*
X11978270Y-14081405D02*
X11997317Y-14081405D01*
X11997317Y-14081405D02*
X12016365Y-14090929D01*
X12016365Y-14090929D02*
X12025889Y-14100453D01*
X12025889Y-14100453D02*
X12035413Y-14119500D01*
X12035413Y-14119500D02*
X12044936Y-14157596D01*
X12044936Y-14157596D02*
X12044936Y-14205215D01*
X12044936Y-14205215D02*
X12035413Y-14243310D01*
X12035413Y-14243310D02*
X12025889Y-14262357D01*
X12025889Y-14262357D02*
X12016365Y-14271881D01*
X12016365Y-14271881D02*
X11997317Y-14281405D01*
X11997317Y-14281405D02*
X11978270Y-14281405D01*
X11978270Y-14281405D02*
X11959222Y-14271881D01*
X11959222Y-14271881D02*
X11949698Y-14262357D01*
X11949698Y-14262357D02*
X11940175Y-14243310D01*
X11940175Y-14243310D02*
X11930651Y-14205215D01*
X11930651Y-14205215D02*
X11930651Y-14157596D01*
X11930651Y-14157596D02*
X11940175Y-14119500D01*
X11940175Y-14119500D02*
X11949698Y-14100453D01*
X11949698Y-14100453D02*
X11959222Y-14090929D01*
X11959222Y-14090929D02*
X11978270Y-14081405D01*
X12111603Y-14081405D02*
X12235413Y-14081405D01*
X12235413Y-14081405D02*
X12168746Y-14157596D01*
X12168746Y-14157596D02*
X12197317Y-14157596D01*
X12197317Y-14157596D02*
X12216365Y-14167119D01*
X12216365Y-14167119D02*
X12225889Y-14176643D01*
X12225889Y-14176643D02*
X12235413Y-14195691D01*
X12235413Y-14195691D02*
X12235413Y-14243310D01*
X12235413Y-14243310D02*
X12225889Y-14262357D01*
X12225889Y-14262357D02*
X12216365Y-14271881D01*
X12216365Y-14271881D02*
X12197317Y-14281405D01*
X12197317Y-14281405D02*
X12140175Y-14281405D01*
X12140175Y-14281405D02*
X12121127Y-14271881D01*
X12121127Y-14271881D02*
X12111603Y-14262357D01*
X12330651Y-14281405D02*
X12368746Y-14281405D01*
X12368746Y-14281405D02*
X12387794Y-14271881D01*
X12387794Y-14271881D02*
X12397317Y-14262357D01*
X12397317Y-14262357D02*
X12416365Y-14233786D01*
X12416365Y-14233786D02*
X12425889Y-14195691D01*
X12425889Y-14195691D02*
X12425889Y-14119500D01*
X12425889Y-14119500D02*
X12416365Y-14100453D01*
X12416365Y-14100453D02*
X12406841Y-14090929D01*
X12406841Y-14090929D02*
X12387794Y-14081405D01*
X12387794Y-14081405D02*
X12349698Y-14081405D01*
X12349698Y-14081405D02*
X12330651Y-14090929D01*
X12330651Y-14090929D02*
X12321127Y-14100453D01*
X12321127Y-14100453D02*
X12311603Y-14119500D01*
X12311603Y-14119500D02*
X12311603Y-14167119D01*
X12311603Y-14167119D02*
X12321127Y-14186167D01*
X12321127Y-14186167D02*
X12330651Y-14195691D01*
X12330651Y-14195691D02*
X12349698Y-14205215D01*
X12349698Y-14205215D02*
X12387794Y-14205215D01*
X12387794Y-14205215D02*
X12406841Y-14195691D01*
X12406841Y-14195691D02*
X12416365Y-14186167D01*
X12416365Y-14186167D02*
X12425889Y-14167119D01*
X12597317Y-14148072D02*
X12597317Y-14281405D01*
X12549698Y-14071881D02*
X12502079Y-14214738D01*
X12502079Y-14214738D02*
X12625889Y-14214738D01*
X12692556Y-14081405D02*
X12692556Y-14119500D01*
X12768746Y-14081405D02*
X12768746Y-14119500D01*
X13063984Y-14357596D02*
X13054460Y-14348072D01*
X13054460Y-14348072D02*
X13035413Y-14319500D01*
X13035413Y-14319500D02*
X13025889Y-14300453D01*
X13025889Y-14300453D02*
X13016365Y-14271881D01*
X13016365Y-14271881D02*
X13006841Y-14224262D01*
X13006841Y-14224262D02*
X13006841Y-14186167D01*
X13006841Y-14186167D02*
X13016365Y-14138548D01*
X13016365Y-14138548D02*
X13025889Y-14109977D01*
X13025889Y-14109977D02*
X13035413Y-14090929D01*
X13035413Y-14090929D02*
X13054460Y-14062357D01*
X13054460Y-14062357D02*
X13063984Y-14052834D01*
X13121127Y-14081405D02*
X13244937Y-14081405D01*
X13244937Y-14081405D02*
X13178270Y-14157596D01*
X13178270Y-14157596D02*
X13206841Y-14157596D01*
X13206841Y-14157596D02*
X13225889Y-14167119D01*
X13225889Y-14167119D02*
X13235413Y-14176643D01*
X13235413Y-14176643D02*
X13244937Y-14195691D01*
X13244937Y-14195691D02*
X13244937Y-14243310D01*
X13244937Y-14243310D02*
X13235413Y-14262357D01*
X13235413Y-14262357D02*
X13225889Y-14271881D01*
X13225889Y-14271881D02*
X13206841Y-14281405D01*
X13206841Y-14281405D02*
X13149698Y-14281405D01*
X13149698Y-14281405D02*
X13130651Y-14271881D01*
X13130651Y-14271881D02*
X13121127Y-14262357D01*
X13321127Y-14100453D02*
X13330651Y-14090929D01*
X13330651Y-14090929D02*
X13349698Y-14081405D01*
X13349698Y-14081405D02*
X13397318Y-14081405D01*
X13397318Y-14081405D02*
X13416365Y-14090929D01*
X13416365Y-14090929D02*
X13425889Y-14100453D01*
X13425889Y-14100453D02*
X13435413Y-14119500D01*
X13435413Y-14119500D02*
X13435413Y-14138548D01*
X13435413Y-14138548D02*
X13425889Y-14167119D01*
X13425889Y-14167119D02*
X13311603Y-14281405D01*
X13311603Y-14281405D02*
X13435413Y-14281405D01*
X13673508Y-14281405D02*
X13673508Y-14081405D01*
X13759222Y-14281405D02*
X13759222Y-14176643D01*
X13759222Y-14176643D02*
X13749699Y-14157596D01*
X13749699Y-14157596D02*
X13730651Y-14148072D01*
X13730651Y-14148072D02*
X13702079Y-14148072D01*
X13702079Y-14148072D02*
X13683032Y-14157596D01*
X13683032Y-14157596D02*
X13673508Y-14167119D01*
X13883032Y-14281405D02*
X13863984Y-14271881D01*
X13863984Y-14271881D02*
X13854460Y-14262357D01*
X13854460Y-14262357D02*
X13844937Y-14243310D01*
X13844937Y-14243310D02*
X13844937Y-14186167D01*
X13844937Y-14186167D02*
X13854460Y-14167119D01*
X13854460Y-14167119D02*
X13863984Y-14157596D01*
X13863984Y-14157596D02*
X13883032Y-14148072D01*
X13883032Y-14148072D02*
X13911603Y-14148072D01*
X13911603Y-14148072D02*
X13930651Y-14157596D01*
X13930651Y-14157596D02*
X13940175Y-14167119D01*
X13940175Y-14167119D02*
X13949699Y-14186167D01*
X13949699Y-14186167D02*
X13949699Y-14243310D01*
X13949699Y-14243310D02*
X13940175Y-14262357D01*
X13940175Y-14262357D02*
X13930651Y-14271881D01*
X13930651Y-14271881D02*
X13911603Y-14281405D01*
X13911603Y-14281405D02*
X13883032Y-14281405D01*
X14063984Y-14281405D02*
X14044937Y-14271881D01*
X14044937Y-14271881D02*
X14035413Y-14252834D01*
X14035413Y-14252834D02*
X14035413Y-14081405D01*
X14216365Y-14271881D02*
X14197318Y-14281405D01*
X14197318Y-14281405D02*
X14159222Y-14281405D01*
X14159222Y-14281405D02*
X14140175Y-14271881D01*
X14140175Y-14271881D02*
X14130651Y-14252834D01*
X14130651Y-14252834D02*
X14130651Y-14176643D01*
X14130651Y-14176643D02*
X14140175Y-14157596D01*
X14140175Y-14157596D02*
X14159222Y-14148072D01*
X14159222Y-14148072D02*
X14197318Y-14148072D01*
X14197318Y-14148072D02*
X14216365Y-14157596D01*
X14216365Y-14157596D02*
X14225889Y-14176643D01*
X14225889Y-14176643D02*
X14225889Y-14195691D01*
X14225889Y-14195691D02*
X14130651Y-14214738D01*
X14302080Y-14271881D02*
X14321127Y-14281405D01*
X14321127Y-14281405D02*
X14359222Y-14281405D01*
X14359222Y-14281405D02*
X14378270Y-14271881D01*
X14378270Y-14271881D02*
X14387794Y-14252834D01*
X14387794Y-14252834D02*
X14387794Y-14243310D01*
X14387794Y-14243310D02*
X14378270Y-14224262D01*
X14378270Y-14224262D02*
X14359222Y-14214738D01*
X14359222Y-14214738D02*
X14330651Y-14214738D01*
X14330651Y-14214738D02*
X14311603Y-14205215D01*
X14311603Y-14205215D02*
X14302080Y-14186167D01*
X14302080Y-14186167D02*
X14302080Y-14176643D01*
X14302080Y-14176643D02*
X14311603Y-14157596D01*
X14311603Y-14157596D02*
X14330651Y-14148072D01*
X14330651Y-14148072D02*
X14359222Y-14148072D01*
X14359222Y-14148072D02*
X14378270Y-14157596D01*
X14454461Y-14357596D02*
X14463984Y-14348072D01*
X14463984Y-14348072D02*
X14483032Y-14319500D01*
X14483032Y-14319500D02*
X14492556Y-14300453D01*
X14492556Y-14300453D02*
X14502080Y-14271881D01*
X14502080Y-14271881D02*
X14511603Y-14224262D01*
X14511603Y-14224262D02*
X14511603Y-14186167D01*
X14511603Y-14186167D02*
X14502080Y-14138548D01*
X14502080Y-14138548D02*
X14492556Y-14109977D01*
X14492556Y-14109977D02*
X14483032Y-14090929D01*
X14483032Y-14090929D02*
X14463984Y-14062357D01*
X14463984Y-14062357D02*
X14454461Y-14052834D01*
D13*
X9358921Y-14388921D02*
X9488921Y-14518921D01*
X9488921Y-14388921D02*
X9358921Y-14518921D01*
X9488921Y-14453921D02*
G75*
G02*
X9358921Y-14453921I-65000J0D01*
G01*
X9358921Y-14453921D02*
G75*
G02*
X9488921Y-14453921I65000J0D01*
G01*
D11*
X9854460Y-14545405D02*
X9740174Y-14545405D01*
X9797317Y-14545405D02*
X9797317Y-14345405D01*
X9797317Y-14345405D02*
X9778270Y-14373977D01*
X9778270Y-14373977D02*
X9759222Y-14393024D01*
X9759222Y-14393024D02*
X9740174Y-14402548D01*
X9940174Y-14526357D02*
X9949698Y-14535881D01*
X9949698Y-14535881D02*
X9940174Y-14545405D01*
X9940174Y-14545405D02*
X9930651Y-14535881D01*
X9930651Y-14535881D02*
X9940174Y-14526357D01*
X9940174Y-14526357D02*
X9940174Y-14545405D01*
X10016365Y-14345405D02*
X10140174Y-14345405D01*
X10140174Y-14345405D02*
X10073508Y-14421596D01*
X10073508Y-14421596D02*
X10102079Y-14421596D01*
X10102079Y-14421596D02*
X10121127Y-14431119D01*
X10121127Y-14431119D02*
X10130651Y-14440643D01*
X10130651Y-14440643D02*
X10140174Y-14459691D01*
X10140174Y-14459691D02*
X10140174Y-14507310D01*
X10140174Y-14507310D02*
X10130651Y-14526357D01*
X10130651Y-14526357D02*
X10121127Y-14535881D01*
X10121127Y-14535881D02*
X10102079Y-14545405D01*
X10102079Y-14545405D02*
X10044936Y-14545405D01*
X10044936Y-14545405D02*
X10025889Y-14535881D01*
X10025889Y-14535881D02*
X10016365Y-14526357D01*
X10263984Y-14345405D02*
X10283032Y-14345405D01*
X10283032Y-14345405D02*
X10302079Y-14354929D01*
X10302079Y-14354929D02*
X10311603Y-14364453D01*
X10311603Y-14364453D02*
X10321127Y-14383500D01*
X10321127Y-14383500D02*
X10330651Y-14421596D01*
X10330651Y-14421596D02*
X10330651Y-14469215D01*
X10330651Y-14469215D02*
X10321127Y-14507310D01*
X10321127Y-14507310D02*
X10311603Y-14526357D01*
X10311603Y-14526357D02*
X10302079Y-14535881D01*
X10302079Y-14535881D02*
X10283032Y-14545405D01*
X10283032Y-14545405D02*
X10263984Y-14545405D01*
X10263984Y-14545405D02*
X10244936Y-14535881D01*
X10244936Y-14535881D02*
X10235413Y-14526357D01*
X10235413Y-14526357D02*
X10225889Y-14507310D01*
X10225889Y-14507310D02*
X10216365Y-14469215D01*
X10216365Y-14469215D02*
X10216365Y-14421596D01*
X10216365Y-14421596D02*
X10225889Y-14383500D01*
X10225889Y-14383500D02*
X10235413Y-14364453D01*
X10235413Y-14364453D02*
X10244936Y-14354929D01*
X10244936Y-14354929D02*
X10263984Y-14345405D01*
X10454460Y-14345405D02*
X10473508Y-14345405D01*
X10473508Y-14345405D02*
X10492555Y-14354929D01*
X10492555Y-14354929D02*
X10502079Y-14364453D01*
X10502079Y-14364453D02*
X10511603Y-14383500D01*
X10511603Y-14383500D02*
X10521127Y-14421596D01*
X10521127Y-14421596D02*
X10521127Y-14469215D01*
X10521127Y-14469215D02*
X10511603Y-14507310D01*
X10511603Y-14507310D02*
X10502079Y-14526357D01*
X10502079Y-14526357D02*
X10492555Y-14535881D01*
X10492555Y-14535881D02*
X10473508Y-14545405D01*
X10473508Y-14545405D02*
X10454460Y-14545405D01*
X10454460Y-14545405D02*
X10435413Y-14535881D01*
X10435413Y-14535881D02*
X10425889Y-14526357D01*
X10425889Y-14526357D02*
X10416365Y-14507310D01*
X10416365Y-14507310D02*
X10406841Y-14469215D01*
X10406841Y-14469215D02*
X10406841Y-14421596D01*
X10406841Y-14421596D02*
X10416365Y-14383500D01*
X10416365Y-14383500D02*
X10425889Y-14364453D01*
X10425889Y-14364453D02*
X10435413Y-14354929D01*
X10435413Y-14354929D02*
X10454460Y-14345405D01*
X10606841Y-14545405D02*
X10606841Y-14412072D01*
X10606841Y-14431119D02*
X10616365Y-14421596D01*
X10616365Y-14421596D02*
X10635413Y-14412072D01*
X10635413Y-14412072D02*
X10663984Y-14412072D01*
X10663984Y-14412072D02*
X10683032Y-14421596D01*
X10683032Y-14421596D02*
X10692555Y-14440643D01*
X10692555Y-14440643D02*
X10692555Y-14545405D01*
X10692555Y-14440643D02*
X10702079Y-14421596D01*
X10702079Y-14421596D02*
X10721127Y-14412072D01*
X10721127Y-14412072D02*
X10749698Y-14412072D01*
X10749698Y-14412072D02*
X10768746Y-14421596D01*
X10768746Y-14421596D02*
X10778270Y-14440643D01*
X10778270Y-14440643D02*
X10778270Y-14545405D01*
X10873508Y-14545405D02*
X10873508Y-14412072D01*
X10873508Y-14431119D02*
X10883032Y-14421596D01*
X10883032Y-14421596D02*
X10902079Y-14412072D01*
X10902079Y-14412072D02*
X10930651Y-14412072D01*
X10930651Y-14412072D02*
X10949698Y-14421596D01*
X10949698Y-14421596D02*
X10959222Y-14440643D01*
X10959222Y-14440643D02*
X10959222Y-14545405D01*
X10959222Y-14440643D02*
X10968746Y-14421596D01*
X10968746Y-14421596D02*
X10987794Y-14412072D01*
X10987794Y-14412072D02*
X11016365Y-14412072D01*
X11016365Y-14412072D02*
X11035413Y-14421596D01*
X11035413Y-14421596D02*
X11044936Y-14440643D01*
X11044936Y-14440643D02*
X11044936Y-14545405D01*
X11435413Y-14335881D02*
X11263984Y-14593024D01*
X11692555Y-14345405D02*
X11711603Y-14345405D01*
X11711603Y-14345405D02*
X11730651Y-14354929D01*
X11730651Y-14354929D02*
X11740175Y-14364453D01*
X11740175Y-14364453D02*
X11749698Y-14383500D01*
X11749698Y-14383500D02*
X11759222Y-14421596D01*
X11759222Y-14421596D02*
X11759222Y-14469215D01*
X11759222Y-14469215D02*
X11749698Y-14507310D01*
X11749698Y-14507310D02*
X11740175Y-14526357D01*
X11740175Y-14526357D02*
X11730651Y-14535881D01*
X11730651Y-14535881D02*
X11711603Y-14545405D01*
X11711603Y-14545405D02*
X11692555Y-14545405D01*
X11692555Y-14545405D02*
X11673508Y-14535881D01*
X11673508Y-14535881D02*
X11663984Y-14526357D01*
X11663984Y-14526357D02*
X11654460Y-14507310D01*
X11654460Y-14507310D02*
X11644936Y-14469215D01*
X11644936Y-14469215D02*
X11644936Y-14421596D01*
X11644936Y-14421596D02*
X11654460Y-14383500D01*
X11654460Y-14383500D02*
X11663984Y-14364453D01*
X11663984Y-14364453D02*
X11673508Y-14354929D01*
X11673508Y-14354929D02*
X11692555Y-14345405D01*
X11844936Y-14526357D02*
X11854460Y-14535881D01*
X11854460Y-14535881D02*
X11844936Y-14545405D01*
X11844936Y-14545405D02*
X11835413Y-14535881D01*
X11835413Y-14535881D02*
X11844936Y-14526357D01*
X11844936Y-14526357D02*
X11844936Y-14545405D01*
X11978270Y-14345405D02*
X11997317Y-14345405D01*
X11997317Y-14345405D02*
X12016365Y-14354929D01*
X12016365Y-14354929D02*
X12025889Y-14364453D01*
X12025889Y-14364453D02*
X12035413Y-14383500D01*
X12035413Y-14383500D02*
X12044936Y-14421596D01*
X12044936Y-14421596D02*
X12044936Y-14469215D01*
X12044936Y-14469215D02*
X12035413Y-14507310D01*
X12035413Y-14507310D02*
X12025889Y-14526357D01*
X12025889Y-14526357D02*
X12016365Y-14535881D01*
X12016365Y-14535881D02*
X11997317Y-14545405D01*
X11997317Y-14545405D02*
X11978270Y-14545405D01*
X11978270Y-14545405D02*
X11959222Y-14535881D01*
X11959222Y-14535881D02*
X11949698Y-14526357D01*
X11949698Y-14526357D02*
X11940175Y-14507310D01*
X11940175Y-14507310D02*
X11930651Y-14469215D01*
X11930651Y-14469215D02*
X11930651Y-14421596D01*
X11930651Y-14421596D02*
X11940175Y-14383500D01*
X11940175Y-14383500D02*
X11949698Y-14364453D01*
X11949698Y-14364453D02*
X11959222Y-14354929D01*
X11959222Y-14354929D02*
X11978270Y-14345405D01*
X12225889Y-14345405D02*
X12130651Y-14345405D01*
X12130651Y-14345405D02*
X12121127Y-14440643D01*
X12121127Y-14440643D02*
X12130651Y-14431119D01*
X12130651Y-14431119D02*
X12149698Y-14421596D01*
X12149698Y-14421596D02*
X12197317Y-14421596D01*
X12197317Y-14421596D02*
X12216365Y-14431119D01*
X12216365Y-14431119D02*
X12225889Y-14440643D01*
X12225889Y-14440643D02*
X12235413Y-14459691D01*
X12235413Y-14459691D02*
X12235413Y-14507310D01*
X12235413Y-14507310D02*
X12225889Y-14526357D01*
X12225889Y-14526357D02*
X12216365Y-14535881D01*
X12216365Y-14535881D02*
X12197317Y-14545405D01*
X12197317Y-14545405D02*
X12149698Y-14545405D01*
X12149698Y-14545405D02*
X12130651Y-14535881D01*
X12130651Y-14535881D02*
X12121127Y-14526357D01*
X12425889Y-14545405D02*
X12311603Y-14545405D01*
X12368746Y-14545405D02*
X12368746Y-14345405D01*
X12368746Y-14345405D02*
X12349698Y-14373977D01*
X12349698Y-14373977D02*
X12330651Y-14393024D01*
X12330651Y-14393024D02*
X12311603Y-14402548D01*
X12502079Y-14364453D02*
X12511603Y-14354929D01*
X12511603Y-14354929D02*
X12530651Y-14345405D01*
X12530651Y-14345405D02*
X12578270Y-14345405D01*
X12578270Y-14345405D02*
X12597317Y-14354929D01*
X12597317Y-14354929D02*
X12606841Y-14364453D01*
X12606841Y-14364453D02*
X12616365Y-14383500D01*
X12616365Y-14383500D02*
X12616365Y-14402548D01*
X12616365Y-14402548D02*
X12606841Y-14431119D01*
X12606841Y-14431119D02*
X12492556Y-14545405D01*
X12492556Y-14545405D02*
X12616365Y-14545405D01*
X12692556Y-14345405D02*
X12692556Y-14383500D01*
X12768746Y-14345405D02*
X12768746Y-14383500D01*
X13063984Y-14621596D02*
X13054460Y-14612072D01*
X13054460Y-14612072D02*
X13035413Y-14583500D01*
X13035413Y-14583500D02*
X13025889Y-14564453D01*
X13025889Y-14564453D02*
X13016365Y-14535881D01*
X13016365Y-14535881D02*
X13006841Y-14488262D01*
X13006841Y-14488262D02*
X13006841Y-14450167D01*
X13006841Y-14450167D02*
X13016365Y-14402548D01*
X13016365Y-14402548D02*
X13025889Y-14373977D01*
X13025889Y-14373977D02*
X13035413Y-14354929D01*
X13035413Y-14354929D02*
X13054460Y-14326357D01*
X13054460Y-14326357D02*
X13063984Y-14316834D01*
X13130651Y-14364453D02*
X13140175Y-14354929D01*
X13140175Y-14354929D02*
X13159222Y-14345405D01*
X13159222Y-14345405D02*
X13206841Y-14345405D01*
X13206841Y-14345405D02*
X13225889Y-14354929D01*
X13225889Y-14354929D02*
X13235413Y-14364453D01*
X13235413Y-14364453D02*
X13244937Y-14383500D01*
X13244937Y-14383500D02*
X13244937Y-14402548D01*
X13244937Y-14402548D02*
X13235413Y-14431119D01*
X13235413Y-14431119D02*
X13121127Y-14545405D01*
X13121127Y-14545405D02*
X13244937Y-14545405D01*
X13483032Y-14545405D02*
X13483032Y-14345405D01*
X13568746Y-14545405D02*
X13568746Y-14440643D01*
X13568746Y-14440643D02*
X13559222Y-14421596D01*
X13559222Y-14421596D02*
X13540175Y-14412072D01*
X13540175Y-14412072D02*
X13511603Y-14412072D01*
X13511603Y-14412072D02*
X13492556Y-14421596D01*
X13492556Y-14421596D02*
X13483032Y-14431119D01*
X13692556Y-14545405D02*
X13673508Y-14535881D01*
X13673508Y-14535881D02*
X13663984Y-14526357D01*
X13663984Y-14526357D02*
X13654460Y-14507310D01*
X13654460Y-14507310D02*
X13654460Y-14450167D01*
X13654460Y-14450167D02*
X13663984Y-14431119D01*
X13663984Y-14431119D02*
X13673508Y-14421596D01*
X13673508Y-14421596D02*
X13692556Y-14412072D01*
X13692556Y-14412072D02*
X13721127Y-14412072D01*
X13721127Y-14412072D02*
X13740175Y-14421596D01*
X13740175Y-14421596D02*
X13749699Y-14431119D01*
X13749699Y-14431119D02*
X13759222Y-14450167D01*
X13759222Y-14450167D02*
X13759222Y-14507310D01*
X13759222Y-14507310D02*
X13749699Y-14526357D01*
X13749699Y-14526357D02*
X13740175Y-14535881D01*
X13740175Y-14535881D02*
X13721127Y-14545405D01*
X13721127Y-14545405D02*
X13692556Y-14545405D01*
X13873508Y-14545405D02*
X13854460Y-14535881D01*
X13854460Y-14535881D02*
X13844937Y-14516834D01*
X13844937Y-14516834D02*
X13844937Y-14345405D01*
X14025889Y-14535881D02*
X14006841Y-14545405D01*
X14006841Y-14545405D02*
X13968746Y-14545405D01*
X13968746Y-14545405D02*
X13949699Y-14535881D01*
X13949699Y-14535881D02*
X13940175Y-14516834D01*
X13940175Y-14516834D02*
X13940175Y-14440643D01*
X13940175Y-14440643D02*
X13949699Y-14421596D01*
X13949699Y-14421596D02*
X13968746Y-14412072D01*
X13968746Y-14412072D02*
X14006841Y-14412072D01*
X14006841Y-14412072D02*
X14025889Y-14421596D01*
X14025889Y-14421596D02*
X14035413Y-14440643D01*
X14035413Y-14440643D02*
X14035413Y-14459691D01*
X14035413Y-14459691D02*
X13940175Y-14478738D01*
X14111603Y-14535881D02*
X14130651Y-14545405D01*
X14130651Y-14545405D02*
X14168746Y-14545405D01*
X14168746Y-14545405D02*
X14187794Y-14535881D01*
X14187794Y-14535881D02*
X14197318Y-14516834D01*
X14197318Y-14516834D02*
X14197318Y-14507310D01*
X14197318Y-14507310D02*
X14187794Y-14488262D01*
X14187794Y-14488262D02*
X14168746Y-14478738D01*
X14168746Y-14478738D02*
X14140175Y-14478738D01*
X14140175Y-14478738D02*
X14121127Y-14469215D01*
X14121127Y-14469215D02*
X14111603Y-14450167D01*
X14111603Y-14450167D02*
X14111603Y-14440643D01*
X14111603Y-14440643D02*
X14121127Y-14421596D01*
X14121127Y-14421596D02*
X14140175Y-14412072D01*
X14140175Y-14412072D02*
X14168746Y-14412072D01*
X14168746Y-14412072D02*
X14187794Y-14421596D01*
X14263984Y-14621596D02*
X14273508Y-14612072D01*
X14273508Y-14612072D02*
X14292556Y-14583500D01*
X14292556Y-14583500D02*
X14302080Y-14564453D01*
X14302080Y-14564453D02*
X14311603Y-14535881D01*
X14311603Y-14535881D02*
X14321127Y-14488262D01*
X14321127Y-14488262D02*
X14321127Y-14450167D01*
X14321127Y-14450167D02*
X14311603Y-14402548D01*
X14311603Y-14402548D02*
X14302080Y-14373977D01*
X14302080Y-14373977D02*
X14292556Y-14354929D01*
X14292556Y-14354929D02*
X14273508Y-14326357D01*
X14273508Y-14326357D02*
X14263984Y-14316834D01*
X9288921Y-14617921D02*
X9488921Y-14817921D01*
X9488921Y-14617921D02*
X9288921Y-14817921D01*
X9388921Y-14617921D02*
X9388921Y-14817921D01*
X9288921Y-14717921D02*
X9488921Y-14717921D01*
X9730651Y-14609405D02*
X9854460Y-14609405D01*
X9854460Y-14609405D02*
X9787793Y-14685596D01*
X9787793Y-14685596D02*
X9816365Y-14685596D01*
X9816365Y-14685596D02*
X9835413Y-14695119D01*
X9835413Y-14695119D02*
X9844936Y-14704643D01*
X9844936Y-14704643D02*
X9854460Y-14723691D01*
X9854460Y-14723691D02*
X9854460Y-14771310D01*
X9854460Y-14771310D02*
X9844936Y-14790357D01*
X9844936Y-14790357D02*
X9835413Y-14799881D01*
X9835413Y-14799881D02*
X9816365Y-14809405D01*
X9816365Y-14809405D02*
X9759222Y-14809405D01*
X9759222Y-14809405D02*
X9740174Y-14799881D01*
X9740174Y-14799881D02*
X9730651Y-14790357D01*
X9940174Y-14790357D02*
X9949698Y-14799881D01*
X9949698Y-14799881D02*
X9940174Y-14809405D01*
X9940174Y-14809405D02*
X9930651Y-14799881D01*
X9930651Y-14799881D02*
X9940174Y-14790357D01*
X9940174Y-14790357D02*
X9940174Y-14809405D01*
X10025889Y-14628453D02*
X10035413Y-14618929D01*
X10035413Y-14618929D02*
X10054460Y-14609405D01*
X10054460Y-14609405D02*
X10102079Y-14609405D01*
X10102079Y-14609405D02*
X10121127Y-14618929D01*
X10121127Y-14618929D02*
X10130651Y-14628453D01*
X10130651Y-14628453D02*
X10140174Y-14647500D01*
X10140174Y-14647500D02*
X10140174Y-14666548D01*
X10140174Y-14666548D02*
X10130651Y-14695119D01*
X10130651Y-14695119D02*
X10016365Y-14809405D01*
X10016365Y-14809405D02*
X10140174Y-14809405D01*
X10263984Y-14609405D02*
X10283032Y-14609405D01*
X10283032Y-14609405D02*
X10302079Y-14618929D01*
X10302079Y-14618929D02*
X10311603Y-14628453D01*
X10311603Y-14628453D02*
X10321127Y-14647500D01*
X10321127Y-14647500D02*
X10330651Y-14685596D01*
X10330651Y-14685596D02*
X10330651Y-14733215D01*
X10330651Y-14733215D02*
X10321127Y-14771310D01*
X10321127Y-14771310D02*
X10311603Y-14790357D01*
X10311603Y-14790357D02*
X10302079Y-14799881D01*
X10302079Y-14799881D02*
X10283032Y-14809405D01*
X10283032Y-14809405D02*
X10263984Y-14809405D01*
X10263984Y-14809405D02*
X10244936Y-14799881D01*
X10244936Y-14799881D02*
X10235413Y-14790357D01*
X10235413Y-14790357D02*
X10225889Y-14771310D01*
X10225889Y-14771310D02*
X10216365Y-14733215D01*
X10216365Y-14733215D02*
X10216365Y-14685596D01*
X10216365Y-14685596D02*
X10225889Y-14647500D01*
X10225889Y-14647500D02*
X10235413Y-14628453D01*
X10235413Y-14628453D02*
X10244936Y-14618929D01*
X10244936Y-14618929D02*
X10263984Y-14609405D01*
X10454460Y-14609405D02*
X10473508Y-14609405D01*
X10473508Y-14609405D02*
X10492555Y-14618929D01*
X10492555Y-14618929D02*
X10502079Y-14628453D01*
X10502079Y-14628453D02*
X10511603Y-14647500D01*
X10511603Y-14647500D02*
X10521127Y-14685596D01*
X10521127Y-14685596D02*
X10521127Y-14733215D01*
X10521127Y-14733215D02*
X10511603Y-14771310D01*
X10511603Y-14771310D02*
X10502079Y-14790357D01*
X10502079Y-14790357D02*
X10492555Y-14799881D01*
X10492555Y-14799881D02*
X10473508Y-14809405D01*
X10473508Y-14809405D02*
X10454460Y-14809405D01*
X10454460Y-14809405D02*
X10435413Y-14799881D01*
X10435413Y-14799881D02*
X10425889Y-14790357D01*
X10425889Y-14790357D02*
X10416365Y-14771310D01*
X10416365Y-14771310D02*
X10406841Y-14733215D01*
X10406841Y-14733215D02*
X10406841Y-14685596D01*
X10406841Y-14685596D02*
X10416365Y-14647500D01*
X10416365Y-14647500D02*
X10425889Y-14628453D01*
X10425889Y-14628453D02*
X10435413Y-14618929D01*
X10435413Y-14618929D02*
X10454460Y-14609405D01*
X10606841Y-14809405D02*
X10606841Y-14676072D01*
X10606841Y-14695119D02*
X10616365Y-14685596D01*
X10616365Y-14685596D02*
X10635413Y-14676072D01*
X10635413Y-14676072D02*
X10663984Y-14676072D01*
X10663984Y-14676072D02*
X10683032Y-14685596D01*
X10683032Y-14685596D02*
X10692555Y-14704643D01*
X10692555Y-14704643D02*
X10692555Y-14809405D01*
X10692555Y-14704643D02*
X10702079Y-14685596D01*
X10702079Y-14685596D02*
X10721127Y-14676072D01*
X10721127Y-14676072D02*
X10749698Y-14676072D01*
X10749698Y-14676072D02*
X10768746Y-14685596D01*
X10768746Y-14685596D02*
X10778270Y-14704643D01*
X10778270Y-14704643D02*
X10778270Y-14809405D01*
X10873508Y-14809405D02*
X10873508Y-14676072D01*
X10873508Y-14695119D02*
X10883032Y-14685596D01*
X10883032Y-14685596D02*
X10902079Y-14676072D01*
X10902079Y-14676072D02*
X10930651Y-14676072D01*
X10930651Y-14676072D02*
X10949698Y-14685596D01*
X10949698Y-14685596D02*
X10959222Y-14704643D01*
X10959222Y-14704643D02*
X10959222Y-14809405D01*
X10959222Y-14704643D02*
X10968746Y-14685596D01*
X10968746Y-14685596D02*
X10987794Y-14676072D01*
X10987794Y-14676072D02*
X11016365Y-14676072D01*
X11016365Y-14676072D02*
X11035413Y-14685596D01*
X11035413Y-14685596D02*
X11044936Y-14704643D01*
X11044936Y-14704643D02*
X11044936Y-14809405D01*
X11435413Y-14599881D02*
X11263984Y-14857024D01*
X11692555Y-14609405D02*
X11711603Y-14609405D01*
X11711603Y-14609405D02*
X11730651Y-14618929D01*
X11730651Y-14618929D02*
X11740175Y-14628453D01*
X11740175Y-14628453D02*
X11749698Y-14647500D01*
X11749698Y-14647500D02*
X11759222Y-14685596D01*
X11759222Y-14685596D02*
X11759222Y-14733215D01*
X11759222Y-14733215D02*
X11749698Y-14771310D01*
X11749698Y-14771310D02*
X11740175Y-14790357D01*
X11740175Y-14790357D02*
X11730651Y-14799881D01*
X11730651Y-14799881D02*
X11711603Y-14809405D01*
X11711603Y-14809405D02*
X11692555Y-14809405D01*
X11692555Y-14809405D02*
X11673508Y-14799881D01*
X11673508Y-14799881D02*
X11663984Y-14790357D01*
X11663984Y-14790357D02*
X11654460Y-14771310D01*
X11654460Y-14771310D02*
X11644936Y-14733215D01*
X11644936Y-14733215D02*
X11644936Y-14685596D01*
X11644936Y-14685596D02*
X11654460Y-14647500D01*
X11654460Y-14647500D02*
X11663984Y-14628453D01*
X11663984Y-14628453D02*
X11673508Y-14618929D01*
X11673508Y-14618929D02*
X11692555Y-14609405D01*
X11844936Y-14790357D02*
X11854460Y-14799881D01*
X11854460Y-14799881D02*
X11844936Y-14809405D01*
X11844936Y-14809405D02*
X11835413Y-14799881D01*
X11835413Y-14799881D02*
X11844936Y-14790357D01*
X11844936Y-14790357D02*
X11844936Y-14809405D01*
X12044936Y-14809405D02*
X11930651Y-14809405D01*
X11987794Y-14809405D02*
X11987794Y-14609405D01*
X11987794Y-14609405D02*
X11968746Y-14637977D01*
X11968746Y-14637977D02*
X11949698Y-14657024D01*
X11949698Y-14657024D02*
X11930651Y-14666548D01*
X12121127Y-14628453D02*
X12130651Y-14618929D01*
X12130651Y-14618929D02*
X12149698Y-14609405D01*
X12149698Y-14609405D02*
X12197317Y-14609405D01*
X12197317Y-14609405D02*
X12216365Y-14618929D01*
X12216365Y-14618929D02*
X12225889Y-14628453D01*
X12225889Y-14628453D02*
X12235413Y-14647500D01*
X12235413Y-14647500D02*
X12235413Y-14666548D01*
X12235413Y-14666548D02*
X12225889Y-14695119D01*
X12225889Y-14695119D02*
X12111603Y-14809405D01*
X12111603Y-14809405D02*
X12235413Y-14809405D01*
X12406841Y-14609405D02*
X12368746Y-14609405D01*
X12368746Y-14609405D02*
X12349698Y-14618929D01*
X12349698Y-14618929D02*
X12340175Y-14628453D01*
X12340175Y-14628453D02*
X12321127Y-14657024D01*
X12321127Y-14657024D02*
X12311603Y-14695119D01*
X12311603Y-14695119D02*
X12311603Y-14771310D01*
X12311603Y-14771310D02*
X12321127Y-14790357D01*
X12321127Y-14790357D02*
X12330651Y-14799881D01*
X12330651Y-14799881D02*
X12349698Y-14809405D01*
X12349698Y-14809405D02*
X12387794Y-14809405D01*
X12387794Y-14809405D02*
X12406841Y-14799881D01*
X12406841Y-14799881D02*
X12416365Y-14790357D01*
X12416365Y-14790357D02*
X12425889Y-14771310D01*
X12425889Y-14771310D02*
X12425889Y-14723691D01*
X12425889Y-14723691D02*
X12416365Y-14704643D01*
X12416365Y-14704643D02*
X12406841Y-14695119D01*
X12406841Y-14695119D02*
X12387794Y-14685596D01*
X12387794Y-14685596D02*
X12349698Y-14685596D01*
X12349698Y-14685596D02*
X12330651Y-14695119D01*
X12330651Y-14695119D02*
X12321127Y-14704643D01*
X12321127Y-14704643D02*
X12311603Y-14723691D01*
X12549698Y-14609405D02*
X12568746Y-14609405D01*
X12568746Y-14609405D02*
X12587794Y-14618929D01*
X12587794Y-14618929D02*
X12597317Y-14628453D01*
X12597317Y-14628453D02*
X12606841Y-14647500D01*
X12606841Y-14647500D02*
X12616365Y-14685596D01*
X12616365Y-14685596D02*
X12616365Y-14733215D01*
X12616365Y-14733215D02*
X12606841Y-14771310D01*
X12606841Y-14771310D02*
X12597317Y-14790357D01*
X12597317Y-14790357D02*
X12587794Y-14799881D01*
X12587794Y-14799881D02*
X12568746Y-14809405D01*
X12568746Y-14809405D02*
X12549698Y-14809405D01*
X12549698Y-14809405D02*
X12530651Y-14799881D01*
X12530651Y-14799881D02*
X12521127Y-14790357D01*
X12521127Y-14790357D02*
X12511603Y-14771310D01*
X12511603Y-14771310D02*
X12502079Y-14733215D01*
X12502079Y-14733215D02*
X12502079Y-14685596D01*
X12502079Y-14685596D02*
X12511603Y-14647500D01*
X12511603Y-14647500D02*
X12521127Y-14628453D01*
X12521127Y-14628453D02*
X12530651Y-14618929D01*
X12530651Y-14618929D02*
X12549698Y-14609405D01*
X12692556Y-14609405D02*
X12692556Y-14647500D01*
X12768746Y-14609405D02*
X12768746Y-14647500D01*
X13063984Y-14885596D02*
X13054460Y-14876072D01*
X13054460Y-14876072D02*
X13035413Y-14847500D01*
X13035413Y-14847500D02*
X13025889Y-14828453D01*
X13025889Y-14828453D02*
X13016365Y-14799881D01*
X13016365Y-14799881D02*
X13006841Y-14752262D01*
X13006841Y-14752262D02*
X13006841Y-14714167D01*
X13006841Y-14714167D02*
X13016365Y-14666548D01*
X13016365Y-14666548D02*
X13025889Y-14637977D01*
X13025889Y-14637977D02*
X13035413Y-14618929D01*
X13035413Y-14618929D02*
X13054460Y-14590357D01*
X13054460Y-14590357D02*
X13063984Y-14580834D01*
X13225889Y-14676072D02*
X13225889Y-14809405D01*
X13178270Y-14599881D02*
X13130651Y-14742738D01*
X13130651Y-14742738D02*
X13254460Y-14742738D01*
X13483032Y-14809405D02*
X13483032Y-14609405D01*
X13568746Y-14809405D02*
X13568746Y-14704643D01*
X13568746Y-14704643D02*
X13559222Y-14685596D01*
X13559222Y-14685596D02*
X13540175Y-14676072D01*
X13540175Y-14676072D02*
X13511603Y-14676072D01*
X13511603Y-14676072D02*
X13492556Y-14685596D01*
X13492556Y-14685596D02*
X13483032Y-14695119D01*
X13692556Y-14809405D02*
X13673508Y-14799881D01*
X13673508Y-14799881D02*
X13663984Y-14790357D01*
X13663984Y-14790357D02*
X13654460Y-14771310D01*
X13654460Y-14771310D02*
X13654460Y-14714167D01*
X13654460Y-14714167D02*
X13663984Y-14695119D01*
X13663984Y-14695119D02*
X13673508Y-14685596D01*
X13673508Y-14685596D02*
X13692556Y-14676072D01*
X13692556Y-14676072D02*
X13721127Y-14676072D01*
X13721127Y-14676072D02*
X13740175Y-14685596D01*
X13740175Y-14685596D02*
X13749699Y-14695119D01*
X13749699Y-14695119D02*
X13759222Y-14714167D01*
X13759222Y-14714167D02*
X13759222Y-14771310D01*
X13759222Y-14771310D02*
X13749699Y-14790357D01*
X13749699Y-14790357D02*
X13740175Y-14799881D01*
X13740175Y-14799881D02*
X13721127Y-14809405D01*
X13721127Y-14809405D02*
X13692556Y-14809405D01*
X13873508Y-14809405D02*
X13854460Y-14799881D01*
X13854460Y-14799881D02*
X13844937Y-14780834D01*
X13844937Y-14780834D02*
X13844937Y-14609405D01*
X14025889Y-14799881D02*
X14006841Y-14809405D01*
X14006841Y-14809405D02*
X13968746Y-14809405D01*
X13968746Y-14809405D02*
X13949699Y-14799881D01*
X13949699Y-14799881D02*
X13940175Y-14780834D01*
X13940175Y-14780834D02*
X13940175Y-14704643D01*
X13940175Y-14704643D02*
X13949699Y-14685596D01*
X13949699Y-14685596D02*
X13968746Y-14676072D01*
X13968746Y-14676072D02*
X14006841Y-14676072D01*
X14006841Y-14676072D02*
X14025889Y-14685596D01*
X14025889Y-14685596D02*
X14035413Y-14704643D01*
X14035413Y-14704643D02*
X14035413Y-14723691D01*
X14035413Y-14723691D02*
X13940175Y-14742738D01*
X14111603Y-14799881D02*
X14130651Y-14809405D01*
X14130651Y-14809405D02*
X14168746Y-14809405D01*
X14168746Y-14809405D02*
X14187794Y-14799881D01*
X14187794Y-14799881D02*
X14197318Y-14780834D01*
X14197318Y-14780834D02*
X14197318Y-14771310D01*
X14197318Y-14771310D02*
X14187794Y-14752262D01*
X14187794Y-14752262D02*
X14168746Y-14742738D01*
X14168746Y-14742738D02*
X14140175Y-14742738D01*
X14140175Y-14742738D02*
X14121127Y-14733215D01*
X14121127Y-14733215D02*
X14111603Y-14714167D01*
X14111603Y-14714167D02*
X14111603Y-14704643D01*
X14111603Y-14704643D02*
X14121127Y-14685596D01*
X14121127Y-14685596D02*
X14140175Y-14676072D01*
X14140175Y-14676072D02*
X14168746Y-14676072D01*
X14168746Y-14676072D02*
X14187794Y-14685596D01*
X14263984Y-14885596D02*
X14273508Y-14876072D01*
X14273508Y-14876072D02*
X14292556Y-14847500D01*
X14292556Y-14847500D02*
X14302080Y-14828453D01*
X14302080Y-14828453D02*
X14311603Y-14799881D01*
X14311603Y-14799881D02*
X14321127Y-14752262D01*
X14321127Y-14752262D02*
X14321127Y-14714167D01*
X14321127Y-14714167D02*
X14311603Y-14666548D01*
X14311603Y-14666548D02*
X14302080Y-14637977D01*
X14302080Y-14637977D02*
X14292556Y-14618929D01*
X14292556Y-14618929D02*
X14273508Y-14590357D01*
X14273508Y-14590357D02*
X14263984Y-14580834D01*
M02*
