M48
; DRILL file {KiCad 8.0.8} date 2025-01-24T13:19:39-0600
; FORMAT={-:-/ absolute / inch / decimal}
; #@! TF.CreationDate,2025-01-24T13:19:39-06:00
; #@! TF.GenerationSoftware,Kicad,Pcbnew,8.0.8
; #@! TF.FileFunction,Plated,1,4,PTH
FMAT,2
INCH
; #@! TA.AperFunction,Plated,PTH,ViaDrill
T1C0.0059
; #@! TA.AperFunction,Plated,PTH,ViaDrill
T2C0.0098
; #@! TA.AperFunction,Plated,PTH,ComponentDrill
T3C0.0197
; #@! TA.AperFunction,Plated,PTH,ComponentDrill
T4C0.0315
; #@! TA.AperFunction,Plated,PTH,ComponentDrill
T5C0.0394
; #@! TA.AperFunction,Plated,PTH,ComponentDrill
T6C0.0512
; #@! TA.AperFunction,Plated,PTH,ComponentDrill
T7C0.1260
%
G90
G05
T1
X5.8819Y-4.2402
X5.9094Y-4.1417
T2
X4.1437Y-3.9961
X4.2097Y-4.5256
X4.2323Y-3.75
X4.2845Y-4.5251
X4.2913Y-4.7539
X4.3559Y-4.5248
X4.3701Y-4.4559
X4.4238Y-4.5248
X4.5124Y-3.3997
X4.5311Y-3.8746
X4.5311Y-3.9533
X4.535Y-4.0321
X4.565Y-4.3059
X4.565Y-4.4559
X4.6029Y-3.8746
X4.6029Y-3.9533
X4.6029Y-4.0321
X4.6063Y-4.5276
X4.6555Y-4.3602
X4.6659Y-3.4317
X4.6659Y-3.5817
X4.7309Y-4.1108
X4.7998Y-4.1108
X4.8037Y-3.3628
X4.8603Y-4.446
X4.8608Y-3.4317
X4.8716Y-3.3628
X4.9366Y-4.5248
X4.9454Y-3.4528
X4.9509Y-4.4559
X4.9803Y-3.878
X5.0045Y-4.5248
X5.0886Y-4.7441
X5.1457Y-4.3059
X5.1935Y-3.9051
X5.1935Y-3.973
X5.2343Y-4.5149
X5.2624Y-4.7801
X5.2742Y-3.8791
X5.2742Y-3.9791
X5.2929Y-4.0419
X5.345Y-3.3886
X5.3706Y-4.7801
X5.4287Y-3.5895
X5.5734Y-3.3728
X5.5896Y-4.4561
X5.6069Y-4.0338
X5.6236Y-3.4395
X5.6413Y-3.3728
X5.6659Y-4.525
X5.6733Y-4.0504
X5.6802Y-4.4561
X5.6895Y-3.9815
X5.7073Y-3.4555
X5.7338Y-4.525
X5.7412Y-4.0504
X5.788Y-4.1236
X5.8327Y-4.0484
X5.8391Y-3.0832
X5.8661Y-4.0984
X5.8751Y-4.3061
X5.8751Y-4.4561
X5.8844Y-3.8315
X5.9071Y-3.0832
X5.9769Y-3.0832
X6.0138Y-4.2815
X6.0188Y-3.221
X6.0222Y-3.162
X6.0222Y-3.2801
X6.0276Y-3.8612
X6.0449Y-3.0832
X6.1034Y-3.8476
X6.1034Y-3.8732
X6.1054Y-4.45
X6.1058Y-4.6506
X6.1058Y-4.7224
X6.1063Y-4.5148
X6.1063Y-4.5866
X6.1083Y-4.322
X6.1083Y-4.3614
X6.1083Y-4.3811
X6.1147Y-3.221
X6.1147Y-3.2889
X6.1181Y-4.2362
X6.1713Y-4.592
X6.1713Y-4.6599
X6.1733Y-4.45
X6.1998Y-3.7146
X6.1998Y-3.7835
X6.2137Y-4.2334
X6.2677Y-3.7146
X6.2677Y-3.7835
X6.2698Y-3.8476
X6.2795Y-4.5177
X6.2816Y-4.2334
X6.2816Y-4.3023
X6.2816Y-4.322
X6.3593Y-3.7994
X6.3593Y-3.9529
X6.3701Y-4.6575
X6.4272Y-4.5177
X6.437Y-3.4547
X6.4405Y-3.7368
X6.5124Y-3.7368
X6.5847Y-3.7994
X6.5847Y-3.9529
X6.5911Y-4.5744
X6.5911Y-4.6423
X6.6437Y-4.1535
X6.661Y-4.7801
X6.6836Y-4.5832
X6.6836Y-4.7013
X6.6871Y-4.6423
X6.7126Y-3.7416
X6.7126Y-3.8095
X6.7289Y-4.7801
X6.7348Y-3.4897
X6.7348Y-3.5576
X6.7628Y-3.2283
X6.7835Y-3.7421
X6.7939Y-3.4897
X6.7939Y-3.5576
X6.8307Y-3.2283
X6.8504Y-4.8327
X6.8661Y-3.8071
X6.8726Y-3.4828
X6.8726Y-3.5202
X6.8834Y-3.9533
X6.8834Y-4.0813
X6.9513Y-3.9533
X6.9513Y-4.0813
X6.9789Y-3.4828
X6.9951Y-4.6325
X6.9951Y-4.6915
X7.0104Y-4.0124
X7.0104Y-4.0321
X7.0138Y-4.5197
X7.0138Y-4.5697
X7.0202Y-4.2092
X7.0202Y-4.2771
X7.036Y-4.0419
X7.0596Y-3.4843
X7.0596Y-3.5522
X7.063Y-4.6325
X7.063Y-4.6915
X7.0695Y-4.1502
X7.0945Y-4.3189
X7.1088Y-4.1502
X7.1161Y-4.4882
X7.1187Y-3.9199
X7.1285Y-4.1502
X7.1384Y-3.7673
X7.1384Y-3.8352
X7.1384Y-4.0222
X7.1384Y-4.2102
X7.1384Y-4.2781
X7.1482Y-3.8943
X7.1777Y-4.1246
X7.1777Y-4.3012
X7.1817Y-3.3628
X7.1949Y-4.3307
X7.1974Y-4.1246
X7.2073Y-4.1502
X7.2087Y-4.4197
X7.2087Y-4.4697
X7.2171Y-3.9199
X7.2171Y-4.1246
X7.2244Y-4.3307
X7.2269Y-4.1502
X7.2343Y-3.2283
X7.2407Y-3.9435
X7.2407Y-3.9828
X7.2466Y-4.1502
X7.2539Y-3.5335
X7.2539Y-4.3307
X7.2565Y-3.7673
X7.2565Y-3.8352
X7.2565Y-4.2092
X7.2565Y-4.2771
X7.2663Y-3.9139
X7.2663Y-4.0321
X7.2663Y-4.0714
X7.2899Y-3.3628
X7.2992Y-3.8622
X7.3254Y-4.0222
X7.3263Y-3.9041
X7.3263Y-4.1403
X7.3425Y-3.2283
X7.372Y-3.5335
X7.3933Y-4.0222
X7.3943Y-3.9041
X7.3943Y-4.1403
X7.3982Y-3.3628
X7.3982Y-4.2781
X7.3982Y-4.347
X7.4803Y-3.9272
X7.5065Y-3.3628
X7.553Y-3.9124
X7.5787Y-3.6255
X7.703Y-4.1191
X7.7657Y-4.0551
X7.7657Y-4.123
X7.7953Y-3.435
X7.8248Y-4.0551
X7.8248Y-4.123
X7.9232Y-4.2815
T3
X4.0354Y-4.437
X4.2584Y-3.3628
X4.7073Y-3.8756
X4.91Y-4.7506
X5.2525Y-3.1364
X5.5675Y-3.1364
X5.9606Y-4.248
X6.0039Y-3.5945
X6.1102Y-3.4449
X6.1181Y-4.1693
X6.4291Y-4.1417
X7.0866Y-3.6811
X7.6299Y-4.3346
X7.7559Y-4.4882
T4
X7.0079Y-3.1326
X7.0079Y-3.231
T5
X3.8976Y-3.5122
X3.8976Y-3.6122
X3.8976Y-3.8945
X3.8976Y-3.9945
X3.8976Y-4.0945
X3.8976Y-4.3791
X3.8976Y-4.4791
X4.5457Y-3.1102
X4.6457Y-3.1102
X4.6638Y-4.7539
X4.7638Y-4.7539
X5.8843Y-4.7524
X5.9843Y-4.7524
X6.3173Y-3.1201
X6.3173Y-4.752
X6.4173Y-3.1201
X6.4173Y-4.752
X6.6618Y-3.1201
X6.7618Y-3.1201
X7.0906Y-4.8189
X7.1906Y-4.8189
X7.2575Y-3.1201
X7.2906Y-4.8189
X7.3575Y-3.1201
X7.3906Y-4.8189
X7.4575Y-3.1201
X7.4906Y-4.8189
X7.5575Y-3.1201
X7.5906Y-4.4896
X7.5906Y-4.5896
X7.5906Y-4.8189
X7.6575Y-3.1201
T6
X7.6673Y-3.6614
X7.9232Y-3.6614
T7
X3.8943Y-3.1069
X3.8943Y-4.7604
X7.91Y-3.1069
X7.91Y-4.7604
M30
