G04 #@! TF.GenerationSoftware,KiCad,Pcbnew,8.0.8*
G04 #@! TF.CreationDate,2025-01-24T13:19:23-06:00*
G04 #@! TF.ProjectId,delay_pedal,64656c61-795f-4706-9564-616c2e6b6963,rev?*
G04 #@! TF.SameCoordinates,Original*
G04 #@! TF.FileFunction,Legend,Bot*
G04 #@! TF.FilePolarity,Positive*
%FSLAX46Y46*%
G04 Gerber Fmt 4.6, Leading zero omitted, Abs format (unit mm)*
G04 Created by KiCad (PCBNEW 8.0.8) date 2025-01-24 13:19:23*
%MOMM*%
%LPD*%
G01*
G04 APERTURE LIST*
%ADD10C,1.000000*%
%ADD11C,6.000000*%
%ADD12R,1.700000X1.700000*%
%ADD13O,1.700000X1.700000*%
%ADD14R,2.250000X2.250000*%
%ADD15C,2.250000*%
%ADD16R,1.600000X1.600000*%
%ADD17C,1.600000*%
G04 APERTURE END LIST*
%LPC*%
D10*
X119564214Y-98439214D03*
D11*
X98914214Y-78914214D03*
D10*
X155200000Y-87500000D03*
X155400000Y-105900000D03*
D12*
X99000000Y-89210000D03*
D13*
X99000000Y-91750000D03*
D10*
X197000000Y-114000000D03*
D12*
X171750000Y-79250000D03*
D13*
X169210000Y-79250000D03*
D12*
X192800000Y-122400000D03*
D13*
X190260000Y-122400000D03*
X187720000Y-122400000D03*
X185180000Y-122400000D03*
X182640000Y-122400000D03*
X180100000Y-122400000D03*
D14*
X194750000Y-93000000D03*
D15*
X201250000Y-93000000D03*
D10*
X108164214Y-85414214D03*
X133414214Y-79664214D03*
D12*
X99000000Y-111230000D03*
D13*
X99000000Y-113770000D03*
D10*
X141414214Y-79664214D03*
D12*
X118000000Y-79000000D03*
D13*
X115460000Y-79000000D03*
D11*
X200914214Y-120914214D03*
D12*
X99000000Y-98920000D03*
D13*
X99000000Y-101460000D03*
X99000000Y-104000000D03*
D12*
X192800000Y-116575000D03*
D13*
X192800000Y-114035000D03*
D16*
X178000000Y-79567621D03*
D17*
X178000000Y-82067621D03*
D10*
X152500000Y-91300000D03*
D11*
X98914214Y-120914214D03*
D12*
X194500000Y-79250000D03*
D13*
X191960000Y-79250000D03*
X189420000Y-79250000D03*
X186880000Y-79250000D03*
X184340000Y-79250000D03*
D12*
X118460000Y-120750000D03*
D13*
X121000000Y-120750000D03*
D10*
X180000000Y-93500000D03*
X193800000Y-110100000D03*
X151400000Y-107900000D03*
D12*
X160460000Y-120700000D03*
D13*
X163000000Y-120700000D03*
D10*
X163300000Y-105200000D03*
D11*
X200914214Y-78914214D03*
D10*
X124714214Y-120664214D03*
D12*
X149460000Y-120710000D03*
D13*
X152000000Y-120710000D03*
D12*
X163000000Y-79250000D03*
D13*
X160460000Y-79250000D03*
D10*
X102500000Y-112700000D03*
%LPD*%
M02*
