%TF.GenerationSoftware,KiCad,Pcbnew,8.0.8*%
%TF.CreationDate,2025-01-24T13:44:05-06:00*%
%TF.ProjectId,delay_pedal,64656c61-795f-4706-9564-616c2e6b6963,rev?*%
%TF.SameCoordinates,Original*%
%TF.FileFunction,Drillmap*%
%TF.FilePolarity,Positive*%
%FSLAX45Y45*%
G04 Gerber Fmt 4.5, Leading zero omitted, Abs format (unit mm)*
G04 Created by KiCad (PCBNEW 8.0.8) date 2025-01-24 13:44:05*
%MOMM*%
%LPD*%
G01*
G04 APERTURE LIST*
%ADD10C,0.050000*%
%ADD11C,0.200000*%
G04 APERTURE END LIST*
D10*
X9691421Y-7491421D02*
X20291421Y-7491421D01*
X9491421Y-7691421D02*
G75*
G02*
X9691421Y-7491421I199999J1D01*
G01*
X20291421Y-7491421D02*
G75*
G02*
X20491419Y-7691421I-1J-199999D01*
G01*
X20491421Y-7691421D02*
X20491421Y-12291421D01*
X9491421Y-12291421D02*
X9491421Y-7691421D01*
X20291421Y-12491421D02*
X9691421Y-12491421D01*
X9691421Y-12491421D02*
G75*
G02*
X9491419Y-12291421I-1J200001D01*
G01*
X20491421Y-12291421D02*
G75*
G02*
X20291421Y-12491421I-200001J1D01*
G01*
D11*
X9749698Y-12805405D02*
X9749698Y-12605405D01*
X9749698Y-12605405D02*
X9797317Y-12605405D01*
X9797317Y-12605405D02*
X9825889Y-12614929D01*
X9825889Y-12614929D02*
X9844936Y-12633977D01*
X9844936Y-12633977D02*
X9854460Y-12653024D01*
X9854460Y-12653024D02*
X9863984Y-12691119D01*
X9863984Y-12691119D02*
X9863984Y-12719691D01*
X9863984Y-12719691D02*
X9854460Y-12757786D01*
X9854460Y-12757786D02*
X9844936Y-12776834D01*
X9844936Y-12776834D02*
X9825889Y-12795881D01*
X9825889Y-12795881D02*
X9797317Y-12805405D01*
X9797317Y-12805405D02*
X9749698Y-12805405D01*
X9949698Y-12805405D02*
X9949698Y-12672072D01*
X9949698Y-12710167D02*
X9959222Y-12691119D01*
X9959222Y-12691119D02*
X9968746Y-12681596D01*
X9968746Y-12681596D02*
X9987793Y-12672072D01*
X9987793Y-12672072D02*
X10006841Y-12672072D01*
X10073508Y-12805405D02*
X10073508Y-12672072D01*
X10073508Y-12605405D02*
X10063984Y-12614929D01*
X10063984Y-12614929D02*
X10073508Y-12624453D01*
X10073508Y-12624453D02*
X10083032Y-12614929D01*
X10083032Y-12614929D02*
X10073508Y-12605405D01*
X10073508Y-12605405D02*
X10073508Y-12624453D01*
X10197317Y-12805405D02*
X10178270Y-12795881D01*
X10178270Y-12795881D02*
X10168746Y-12776834D01*
X10168746Y-12776834D02*
X10168746Y-12605405D01*
X10302079Y-12805405D02*
X10283032Y-12795881D01*
X10283032Y-12795881D02*
X10273508Y-12776834D01*
X10273508Y-12776834D02*
X10273508Y-12605405D01*
X10530651Y-12805405D02*
X10530651Y-12605405D01*
X10530651Y-12605405D02*
X10597317Y-12748262D01*
X10597317Y-12748262D02*
X10663984Y-12605405D01*
X10663984Y-12605405D02*
X10663984Y-12805405D01*
X10844936Y-12805405D02*
X10844936Y-12700643D01*
X10844936Y-12700643D02*
X10835413Y-12681596D01*
X10835413Y-12681596D02*
X10816365Y-12672072D01*
X10816365Y-12672072D02*
X10778270Y-12672072D01*
X10778270Y-12672072D02*
X10759222Y-12681596D01*
X10844936Y-12795881D02*
X10825889Y-12805405D01*
X10825889Y-12805405D02*
X10778270Y-12805405D01*
X10778270Y-12805405D02*
X10759222Y-12795881D01*
X10759222Y-12795881D02*
X10749698Y-12776834D01*
X10749698Y-12776834D02*
X10749698Y-12757786D01*
X10749698Y-12757786D02*
X10759222Y-12738738D01*
X10759222Y-12738738D02*
X10778270Y-12729215D01*
X10778270Y-12729215D02*
X10825889Y-12729215D01*
X10825889Y-12729215D02*
X10844936Y-12719691D01*
X10940174Y-12672072D02*
X10940174Y-12872072D01*
X10940174Y-12681596D02*
X10959222Y-12672072D01*
X10959222Y-12672072D02*
X10997317Y-12672072D01*
X10997317Y-12672072D02*
X11016365Y-12681596D01*
X11016365Y-12681596D02*
X11025889Y-12691119D01*
X11025889Y-12691119D02*
X11035413Y-12710167D01*
X11035413Y-12710167D02*
X11035413Y-12767310D01*
X11035413Y-12767310D02*
X11025889Y-12786357D01*
X11025889Y-12786357D02*
X11016365Y-12795881D01*
X11016365Y-12795881D02*
X10997317Y-12805405D01*
X10997317Y-12805405D02*
X10959222Y-12805405D01*
X10959222Y-12805405D02*
X10940174Y-12795881D01*
X11121127Y-12786357D02*
X11130651Y-12795881D01*
X11130651Y-12795881D02*
X11121127Y-12805405D01*
X11121127Y-12805405D02*
X11111603Y-12795881D01*
X11111603Y-12795881D02*
X11121127Y-12786357D01*
X11121127Y-12786357D02*
X11121127Y-12805405D01*
X11121127Y-12681596D02*
X11130651Y-12691119D01*
X11130651Y-12691119D02*
X11121127Y-12700643D01*
X11121127Y-12700643D02*
X11111603Y-12691119D01*
X11111603Y-12691119D02*
X11121127Y-12681596D01*
X11121127Y-12681596D02*
X11121127Y-12700643D01*
M02*
